<svg width="52" height="53" viewBox="0 0 52 53" fill="none" xmlns="http://www.w3.org/2000/svg">
<path d="M22.6004 45.8C21.9004 45.8 21.4004 46.3 21.4004 47V48.3H32.7004V47C32.7004 46.3 32.2004 45.8 31.5004 45.8H22.6004Z" fill="black"/>
<path d="M18.2 27H15.5L11 14.5H23.7L23.8 12H5.79999L7.89999 14.5H9.20001L4.70001 27H2C2.3 31.2 5.80001 34.5 10.1 34.5C14.4 34.5 17.9 31.2 18.2 27ZM6 27L10.1 15.7L14.2 27H6Z" fill="black"/>
<path d="M48.9004 5.80005C50.3004 5.80005 51.4004 4.70005 51.4004 3.30005C51.4004 1.90005 50.3004 0.800049 48.9004 0.800049C47.5004 0.800049 46.4004 1.90005 46.4004 3.30005C46.4004 4.70005 47.5004 5.80005 48.9004 5.80005Z" fill="black"/>
<path d="M4.50018 43.9001C2.40018 43.9001 0.700195 45.6001 0.700195 47.7001C0.700195 49.8001 2.40018 51.5001 4.50018 51.5001C6.60018 51.5001 8.30017 49.8001 8.30017 47.7001C8.30017 45.6001 6.60018 43.9001 4.50018 43.9001Z" fill="black"/>
<path d="M23.9004 44.5H30.1004L28.9004 12H25.1004L23.9004 44.5Z" fill="black"/>
<path d="M49.3002 27L44.8002 14.5H46.1002L48.2002 12H30.2002L30.3002 14.5H43.0002L38.4002 27H35.7002C36.0002 31.2 39.5002 34.5 43.8002 34.5C48.1002 34.5 51.6002 31.2 51.9002 27H49.3002ZM39.8002 27L43.9002 15.7L48.0002 27H39.8002Z" fill="black"/>
<path d="M37.9 0.800049C38.4 0.800049 38.8 1.20005 38.8 1.70005C38.8 2.20005 38.4 2.60005 37.9 2.60005C37.4 2.60005 37 2.20005 37 1.70005C37 1.20005 37.4 0.800049 37.9 0.800049Z" fill="black"/>
<path d="M51.1002 43.3C51.6002 43.3 52.0002 43.7 52.0002 44.2C52.0002 44.7 51.6002 45.1 51.1002 45.1C50.6002 45.1 50.2002 44.7 50.2002 44.2C50.2002 43.7 50.6002 43.3 51.1002 43.3Z" fill="black"/>
<path d="M34.1998 34.5C34.6998 34.5 35.0998 34.9 35.0998 35.4C35.0998 35.9 34.6998 36.3 34.1998 36.3C33.6998 36.3 33.2998 35.9 33.2998 35.4C33.2998 34.9 33.6998 34.5 34.1998 34.5Z" fill="black"/>
<path d="M17.9 20.8C18.4 20.8 18.8 21.2001 18.8 21.7001C18.8 22.2001 18.4 22.6 17.9 22.6C17.4 22.6 17 22.2001 17 21.7001C17 21.2001 17.4 20.8 17.9 20.8Z" fill="black"/>
<path d="M16.1002 42C16.6002 42 17.0002 42.4 17.0002 42.9C17.0002 43.4 16.6002 43.8 16.1002 43.8C15.6002 43.8 15.2002 43.4 15.2002 42.9C15.2002 42.4 15.6002 42 16.1002 42Z" fill="black"/>
<path d="M24.1998 4.5C24.6998 4.5 25.0998 4.9 25.0998 5.4C25.0998 5.9 24.6998 6.3 24.1998 6.3C23.6998 6.3 23.2998 5.9 23.2998 5.4C23.2998 4.9 23.6998 4.5 24.1998 4.5Z" fill="black"/>
<path d="M3.60019 3.90015C4.10019 3.90015 4.50018 4.30015 4.50018 4.80015C4.50018 5.30015 4.10019 5.70015 3.60019 5.70015C3.10019 5.70015 2.7002 5.30015 2.7002 4.80015C2.7002 4.30015 3.10019 3.90015 3.60019 3.90015Z" fill="black"/>
<path d="M39.5004 51.6H37.0004V50.7C37.0004 50 36.5004 49.5 35.8004 49.5H18.2004C17.5004 49.5 17.0004 50 17.0004 50.7V51.6H14.5004C14.2004 51.6 13.9004 51.9 13.9004 52.2C13.9004 52.5 14.2004 52.8 14.5004 52.8H39.5004C39.8004 52.8 40.1004 52.5 40.1004 52.2C40.1004 51.9 39.8004 51.6 39.5004 51.6Z" fill="black"/>
</svg>
