<svg width="99" height="101" viewBox="0 0 99 101" fill="none" xmlns="http://www.w3.org/2000/svg">
<path d="M20.4135 76.7766H24.9298V9.03271C18.607 9.21337 13.5488 14.4522 13.5488 20.775V79.8477C15.3553 77.8605 17.7038 76.7766 20.4135 76.7766Z" fill="black"/>
<path d="M79.125 9.03271H27.0977V14.6329H79.125V9.03271Z" fill="black"/>
<path d="M13.5488 85.809C13.5488 89.6027 16.6199 92.6738 20.4135 92.6738H75.5119V89.2414H32.5171C31.9752 89.2414 31.4332 88.6995 31.4332 88.1575C31.4332 87.6156 31.9752 87.0736 32.5171 87.0736H75.5119V78.9443H20.4135C16.6199 78.9443 13.5488 82.0154 13.5488 85.809Z" fill="black"/>
<path d="M49.3171 46.7883C48.4138 47.6915 48.4138 49.1367 49.3171 50.0399L62.1433 62.8661C62.5046 63.2274 63.0465 63.5887 63.7691 63.5887C65.0337 63.5887 66.1176 62.5048 66.1176 61.4209C66.1176 60.8789 65.9369 60.337 65.395 59.7951L52.5688 46.9689C51.4849 45.885 50.2203 45.885 49.3171 46.7883Z" fill="black"/>
<path d="M3.43235 90.3252C1.62584 90.3252 0 91.7704 0 93.7576C0 95.7448 1.62584 97.0093 3.43235 97.0093C5.23885 97.0093 6.86469 95.5641 6.86469 93.5769C6.86469 91.5898 5.23885 90.3252 3.43235 90.3252Z" fill="black"/>
<path d="M68.4665 27.6394C67.5632 28.5426 67.5632 29.9878 68.4665 30.891L81.2927 43.7172C81.654 44.0785 82.3766 44.4398 82.9185 44.4398C84.1831 44.4398 85.267 43.3559 85.267 42.0914C85.267 41.5494 85.0863 41.0075 84.5444 40.4655C82.3766 38.2977 74.6086 30.5298 71.7182 27.6394C70.815 26.7361 69.3698 26.7361 68.4665 27.6394Z" fill="black"/>
<path d="M66.8407 57.9886C66.8407 57.9886 68.1053 59.2532 68.1053 61.2403C68.1053 63.7694 66.1181 65.7566 63.589 65.7566C62.3245 65.7566 61.2406 65.2146 60.3373 64.492L47.5111 51.6658C45.7046 49.8593 45.7046 46.9689 47.5111 45.343C49.3176 43.5365 52.208 43.5365 53.8339 45.343L66.6601 32.5168C64.8536 30.7103 64.8536 27.8199 66.6601 26.1941C68.4666 24.3876 71.357 24.3876 72.9829 26.1941L78.9443 32.1556V16.981H27.0977V71.1761H33.9624V69.7308C33.9624 66.8404 36.3108 64.492 39.2012 64.492H52.3887C55.2791 64.492 57.6276 66.8404 57.6276 69.7308V71.1761H59.976C60.518 71.1761 61.0599 71.718 61.0599 72.2599C61.0599 72.8019 60.518 73.3439 59.976 73.3439H27.2783V76.7762H79.3056V63.9501L70.2731 54.9175L66.8407 57.9886ZM33.9624 22.5811H45.3433C45.8853 22.5811 46.4272 23.123 46.4272 23.665C46.4272 24.2069 45.8853 24.7489 45.1627 24.7489H33.7817C33.2398 24.7489 32.6978 24.2069 32.6978 23.665C32.6978 23.123 33.2397 22.5811 33.9624 22.5811ZM33.9624 27.0973H54.3759C54.9178 27.0973 55.4598 27.6393 55.4598 28.1813C55.4598 28.7232 54.9178 29.2652 54.3759 29.2652H33.9624C33.4204 29.2652 32.8785 28.7232 32.8785 28.1813C32.8785 27.6393 33.2397 27.0973 33.9624 27.0973ZM33.9624 31.6136H54.3759C54.9178 31.6136 55.4598 32.1556 55.4598 32.6975C55.4598 33.2395 54.9178 33.7814 54.1952 33.7814H33.9624C33.4204 33.7814 32.8785 33.2395 32.8785 32.6975C32.8785 32.1556 33.2397 31.6136 33.9624 31.6136ZM33.9624 38.2977C33.4204 38.2977 32.8785 37.7557 32.8785 37.2138C32.8785 36.6718 33.4204 36.1299 33.9624 36.1299H54.3759C54.9178 36.1299 55.4598 36.6718 55.4598 37.2138C55.4598 37.7557 54.9178 38.2977 54.3759 38.2977H33.9624Z" fill="black"/>
<path d="M68.439 34.0679L55.665 46.8418L65.2455 56.4222L78.0194 43.6483L68.439 34.0679Z" fill="black"/>
<path d="M52.3884 66.4795H39.2009C37.5751 66.4795 36.1299 67.744 36.1299 69.5505V70.9958H55.2788V69.5505C55.4595 67.9247 54.0143 66.4795 52.3884 66.4795Z" fill="black"/>
<path d="M91.77 70.2729C92.6732 69.3697 92.6732 67.9244 91.77 67.0212L74.7888 50.04L71.5371 53.2917C82.3761 64.1308 86.5311 68.2858 88.5183 70.2729C88.8796 70.6342 89.4215 70.9955 90.1441 70.9955C90.8667 70.8149 91.4087 70.6342 91.77 70.2729Z" fill="black"/>
<path d="M98.2736 16.8004C98.2736 13.7293 95.7444 11.2002 92.6734 11.2002C89.6023 11.2002 87.0732 13.7293 87.0732 16.8004C87.0732 19.8714 89.6023 22.4005 92.6734 22.4005C95.7444 22.4005 98.2736 19.8714 98.2736 16.8004Z" fill="black"/>
<path d="M89.7831 29.2651C90.6863 29.2651 91.4089 29.9877 91.4089 30.891C91.4089 31.7942 90.6863 32.5168 89.7831 32.5168C88.8798 32.5168 88.1572 31.7942 88.1572 30.891C88.1572 29.9877 88.8798 29.2651 89.7831 29.2651Z" fill="black"/>
<path d="M96.6483 54.1953C97.5516 54.1953 98.2742 54.918 98.2742 55.8212C98.2742 56.7245 97.5516 57.4471 96.6483 57.4471C95.7451 57.4471 95.0225 56.7245 95.0225 55.8212C95.0225 54.918 95.7451 54.1953 96.6483 54.1953Z" fill="black"/>
<path d="M75.1503 0C76.0535 0 76.7761 0.722646 76.7761 1.6259C76.7761 2.52915 76.0535 3.25174 75.1503 3.25174C74.247 3.25174 73.5244 2.52915 73.5244 1.6259C73.5244 0.722646 74.247 0 75.1503 0Z" fill="black"/>
<path d="M3.9745 5.6001C4.87776 5.6001 5.60035 6.32269 5.60035 7.22594C5.60035 8.12919 4.87776 8.85184 3.9745 8.85184C3.07125 8.85184 2.34863 8.12919 2.34863 7.22594C2.34863 6.32269 3.07125 5.6001 3.9745 5.6001Z" fill="black"/>
<path d="M5.05748 32.6978C5.96074 32.6978 6.68335 33.4203 6.68335 34.3236C6.68335 35.2268 5.96074 35.9495 5.05748 35.9495C4.15423 35.9495 3.43164 35.2268 3.43164 34.3236C3.43164 33.4203 4.15423 32.6978 5.05748 32.6978Z" fill="black"/>
<path d="M2.89049 71.1763C3.79374 71.1763 4.51636 71.8989 4.51636 72.8021C4.51636 73.7054 3.79374 74.428 2.89049 74.428C1.98724 74.428 1.26465 73.7054 1.26465 72.8021C1.26465 71.8989 1.98724 71.1763 2.89049 71.1763Z" fill="black"/>
<path d="M90.8671 86.8926C91.7703 86.8926 92.4929 87.6152 92.4929 88.5184C92.4929 89.4217 91.7703 90.1443 90.8671 90.1443C89.9638 90.1443 89.2412 89.4217 89.2412 88.5184C89.2412 87.6152 89.9638 86.8926 90.8671 86.8926Z" fill="black"/>
<path d="M43.536 97.0093C44.4393 97.0093 45.1619 97.7319 45.1619 98.6351C45.1619 99.5384 44.4393 100.261 43.536 100.261C42.6327 100.261 41.9102 99.5384 41.9102 98.6351C41.9102 97.7319 42.6327 97.0093 43.536 97.0093Z" fill="black"/>
</svg>
