<svg width="97" height="100" viewBox="0 0 97 100" fill="none" xmlns="http://www.w3.org/2000/svg">
<path d="M6.35547 92.9189L22.1521 100L24.8757 93.8268L9.07903 86.564L6.35547 92.9189Z" fill="black"/>
<path d="M58.4054 7.10731L45.5664 19.9463L55.1956 29.5755L68.0346 16.7365L58.4054 7.10731Z" fill="black"/>
<path d="M11.2574 37.5398C11.2574 34.4531 8.71538 31.9111 5.62868 31.9111C2.54198 31.9111 0 34.4531 0 37.5398C0 40.6265 2.54198 43.1684 5.62868 43.1684C8.71538 43.1684 11.2574 40.6265 11.2574 37.5398Z" fill="black"/>
<path d="M80.2541 63.8677C79.5279 63.8677 78.8016 64.0492 78.0753 64.4124L68.6336 68.5885C61.3708 71.8567 53.0186 71.8567 45.7557 68.5885L43.94 67.8622C31.5932 62.4151 17.2491 68.0438 11.9836 80.209L9.98633 84.5668L25.783 91.8296L27.054 89.106C29.0512 84.7483 34.1352 82.5695 38.6745 84.5668C45.3926 87.4719 53.0185 87.4719 59.7367 84.5668L82.433 74.2172C83.704 73.6725 84.6118 72.7647 85.1565 71.4937C85.8828 69.8595 85.7013 67.8623 84.7934 66.4097C83.8855 64.7756 82.0698 63.8677 80.2541 63.8677Z" fill="black"/>
<path d="M29.4141 48.0707V50.068H52.1104V48.0707C52.1104 47.3444 51.3841 46.6182 50.6578 46.6182H30.8666C29.9588 46.6182 29.4141 47.3444 29.4141 48.0707Z" fill="black"/>
<path d="M51.9288 36.0873C52.8367 36.9951 54.2893 36.9951 55.1971 36.0873C56.105 35.1794 56.105 33.7269 55.1971 32.819L42.3056 19.9275C41.3978 19.0196 39.9452 19.0196 39.0373 19.9275C38.1295 20.8353 38.1295 22.2879 39.0373 23.1957L51.9288 36.0873Z" fill="black"/>
<path d="M59.1923 4.85699C60.1001 5.76484 69.7234 15.388 71.1759 16.8406C71.5391 17.2037 72.0838 17.5669 72.81 17.5669C74.081 17.5669 75.1705 16.4775 75.1705 15.2065C75.1705 14.6618 74.9889 14.1171 74.4442 13.5724L61.5527 0.68089C60.6448 -0.226963 59.1923 -0.226963 58.2844 0.68089C57.3766 1.58874 57.3766 3.04128 58.2844 3.94914C58.466 3.94914 59.1923 4.85699 59.1923 4.85699Z" fill="black"/>
<path d="M92.9645 12.6646C91.1488 12.6646 89.5146 14.1172 89.5146 16.1144C89.5146 18.1117 90.9672 19.5642 92.9645 19.5642C94.9618 19.5642 96.4143 18.1117 96.4143 16.1144C96.4143 14.1172 94.7802 12.6646 92.9645 12.6646Z" fill="black"/>
<path d="M61.5527 26.4637L78.6204 43.5312C79.5282 44.4391 80.9808 44.4391 81.8886 43.5312C82.7965 42.6234 82.7965 41.1708 81.8886 40.263L64.821 23.1953L61.5527 26.4637Z" fill="black"/>
<path d="M93.3275 77.4854C94.2353 77.4854 94.9616 78.2117 94.9616 79.1195C94.9616 80.0274 94.2353 80.7536 93.3275 80.7536C92.4196 80.7536 91.6934 80.0274 91.6934 79.1195C91.6934 78.2117 92.4196 77.4854 93.3275 77.4854Z" fill="black"/>
<path d="M90.0589 31.9111C90.9668 31.9111 91.6931 32.6373 91.6931 33.5452C91.6931 34.4531 90.9668 35.1794 90.0589 35.1794C89.1511 35.1794 88.4248 34.4531 88.4248 33.5452C88.4248 32.6373 89.1511 31.9111 90.0589 31.9111Z" fill="black"/>
<path d="M42.4876 3.58594C43.3955 3.58594 44.1218 4.31226 44.1218 5.22012C44.1218 6.12797 43.3955 6.85419 42.4876 6.85419C41.5798 6.85419 40.8535 6.12797 40.8535 5.22012C40.8535 4.31226 41.5798 3.58594 42.4876 3.58594Z" fill="black"/>
<path d="M3.81285 14.8438C4.7207 14.8438 5.44698 15.5701 5.44698 16.4779C5.44698 17.3858 4.7207 18.112 3.81285 18.112C2.90499 18.112 2.17871 17.3858 2.17871 16.4779C2.17871 15.5701 2.90499 14.8438 3.81285 14.8438Z" fill="black"/>
<path d="M28.8695 27.3716C29.7773 27.3716 30.5036 28.0978 30.5036 29.0057C30.5036 29.9135 29.7773 30.6398 28.8695 30.6398C27.9616 30.6398 27.2354 29.9135 27.2354 29.0057C27.2354 28.0978 27.9616 27.3716 28.8695 27.3716Z" fill="black"/>
<path d="M3.81285 63.6855C4.7207 63.6855 5.44698 64.4118 5.44698 65.3196C5.44698 66.2275 4.7207 66.9538 3.81285 66.9538C2.90499 66.9538 2.17871 66.2275 2.17871 65.3196C2.17871 64.4118 2.90499 63.6855 3.81285 63.6855Z" fill="black"/>
<path d="M69.723 48.9785C70.6309 48.9785 71.3571 49.7048 71.3571 50.6127C71.3571 51.5205 70.6309 52.2468 69.723 52.2468C68.8151 52.2468 68.0889 51.5205 68.0889 50.6127C68.0889 49.7048 68.8151 48.9785 69.723 48.9785Z" fill="black"/>
<path d="M75.1703 90.0137C76.0781 90.0137 76.8044 90.7399 76.8044 91.6477C76.8044 92.5556 76.0781 93.2819 75.1703 93.2819C74.2624 93.2819 73.5361 92.5556 73.5361 91.6477C73.5361 90.7399 74.2624 90.0137 75.1703 90.0137Z" fill="black"/>
<path d="M20.3365 57.3311H61.1899C61.7346 57.3311 62.2793 56.7864 62.2793 56.2416C62.2793 55.6969 61.7346 55.1523 61.1899 55.1523H56.6506V53.8813C56.6506 53.155 55.9243 52.4287 55.198 52.4287H26.3283C25.602 52.4287 24.8758 53.155 24.8758 53.8813V55.1523H20.3365C19.7918 55.1523 19.2471 55.6969 19.2471 56.2416C19.2471 56.7864 19.6102 57.3311 20.3365 57.3311Z" fill="black"/>
</svg>
