<svg width="102" height="100" viewBox="0 0 102 100" fill="none" xmlns="http://www.w3.org/2000/svg">
<path d="M36.3637 77.2725C34.5455 77.2725 32.9092 78.7271 32.9092 80.7271C32.9092 82.7271 34.3637 84.1815 36.3637 84.1815H66.0001C67.8183 84.1815 69.4546 82.7271 69.4546 80.7271C69.4546 78.7271 67.8183 77.2725 65.8183 77.2725H36.3637Z" fill="black"/>
<path d="M64.7279 20.5454C63.4552 20.5454 62.3643 21.6363 62.3643 22.909C62.3643 25.4545 62.3643 41.6363 62.3643 41.0908C62.3643 42.3636 63.4552 43.2727 64.5461 43.2727C65.8188 43.2727 66.9097 42.1818 66.9097 40.9091V22.7273C67.0915 21.4545 66.0006 20.5454 64.7279 20.5454Z" fill="black"/>
<path d="M37.4545 20.5454C36.1817 20.5454 35.0908 21.6363 35.0908 22.909V41.0908C35.0908 42.3636 36.1817 43.4546 37.4545 43.4546C38.7272 43.4546 39.8181 42.3636 39.6363 41.0908V22.7273C39.8181 21.4545 38.7272 20.5454 37.4545 20.5454Z" fill="black"/>
<path d="M48.9092 58.0001C48.9092 59.2729 50.0001 60.3637 51.2728 60.3637C52.5455 60.3637 53.6364 59.2729 53.6364 58.0001V40.9092H49.091V58.0001H48.9092Z" fill="black"/>
<path d="M60.1818 25.0908H42V38.7272H60.1818V25.0908Z" fill="black"/>
<path d="M18.1814 77.2723C18.1814 73.4542 15.0906 70.3633 11.2724 70.3633C7.4542 70.3633 4.36328 73.4542 4.36328 77.2723C4.36328 81.0905 7.4542 84.1814 11.2724 84.1814C15.0906 84.1814 18.1814 81.0905 18.1814 77.2723Z" fill="black"/>
<path d="M94.3638 56.9092C91.8184 56.9092 89.8184 58.9092 89.8184 61.4546C89.8184 64.0001 91.8184 66.0001 94.3638 66.0001C96.9093 66.0001 98.9093 64.0001 98.9093 61.4546C98.9093 58.9092 96.7274 56.9092 94.3638 56.9092Z" fill="black"/>
<path d="M93.6364 2.36377C94.5454 2.36377 95.2727 3.09109 95.2727 4.00018C95.2727 4.90927 94.5454 5.63647 93.6364 5.63647C92.7273 5.63647 92 4.90927 92 4.00018C92 3.09109 92.7273 2.36377 93.6364 2.36377Z" fill="black"/>
<path d="M1.63638 40.9092C2.54547 40.9092 3.27273 41.6365 3.27273 42.5456C3.27273 43.4547 2.54547 44.1819 1.63638 44.1819C0.727289 44.1819 0 43.4547 0 42.5456C0 41.6365 0.727289 40.9092 1.63638 40.9092Z" fill="black"/>
<path d="M22.1823 61.4546C23.0914 61.4546 23.8186 62.1819 23.8186 63.091C23.8186 64.0001 23.0914 64.7273 22.1823 64.7273C21.2732 64.7273 20.5459 64.0001 20.5459 63.091C20.5459 62.1819 21.2732 61.4546 22.1823 61.4546Z" fill="black"/>
<path d="M78.9088 62.5454C79.8179 62.5454 80.5452 63.2726 80.5452 64.1817C80.5452 65.0908 79.8179 65.8181 78.9088 65.8181C77.9998 65.8181 77.2725 65.0908 77.2725 64.1817C77.2725 63.2726 77.9998 62.5454 78.9088 62.5454Z" fill="black"/>
<path d="M99.4547 35.2729C100.364 35.2729 101.091 36.0002 101.091 36.9092C101.091 37.8183 100.364 38.5457 99.4547 38.5457C98.5456 38.5457 97.8184 37.8183 97.8184 36.9092C97.8184 36.0002 98.5456 35.2729 99.4547 35.2729Z" fill="black"/>
<path d="M99.4547 89.8184C100.364 89.8184 101.091 90.5456 101.091 91.4547C101.091 92.3637 100.364 93.0911 99.4547 93.0911C98.5456 93.0911 97.8184 92.3637 97.8184 91.4547C97.8184 90.5456 98.5456 89.8184 99.4547 89.8184Z" fill="black"/>
<path d="M9.63635 92.1816C10.5454 92.1816 11.2727 92.9088 11.2727 93.8179C11.2727 94.727 10.5454 95.4543 9.63635 95.4543C8.72726 95.4543 8 94.727 8 93.8179C8 92.9088 8.72726 92.1816 9.63635 92.1816Z" fill="black"/>
<path d="M15.2732 44.1818C16.5459 47.6363 20.0004 50 23.6368 50H27.8186C29.8186 57.8182 35.6368 64.3636 43.6368 66.9091C44.1822 67.0909 44.3641 67.4546 44.3641 68.0001V74.9091H58.0004V68.0001C58.0004 67.4546 58.3641 67.0909 58.7277 66.9091C66.7277 64.1818 72.5459 57.8182 74.5459 50H78.7277C82.3641 50 85.8186 47.6363 87.0913 44.1818L94.7277 23.4546C95.8186 20.7273 95.455 17.6364 93.6368 15.2728C92.0004 12.9091 89.2731 11.4545 86.3641 11.4545H77.455L78.1822 0H23.8186L24.5459 11.4545H15.6368C12.7277 11.4545 10.0004 12.9091 8.36406 15.2728C6.7277 17.6364 6.36405 20.7273 7.27314 23.4546L15.2732 44.1818ZM69.2732 40.9091C69.2732 43.4545 67.2732 45.4545 64.7277 45.4545C62.1822 45.4545 60.1822 43.4545 60.1822 40.9091H55.6368V58C55.6368 60.5455 53.6368 62.5455 51.0913 62.5455C48.5459 62.5455 46.5459 60.5455 46.5459 58V40.9091H42.0004C42.0004 43.4545 40.0004 45.4545 37.455 45.4545C34.9095 45.4545 32.9095 43.4545 32.9095 40.9091V22.7273C32.9095 20.1818 34.9095 18.1818 37.455 18.1818C40.0004 18.1818 42.0004 20.1818 42.0004 22.7273H60.1822C60.1822 20.1818 62.1822 18.1818 64.7277 18.1818C67.2732 18.1818 69.2732 20.1818 69.2732 22.7273V40.9091ZM77.2731 13.6364H86.3641C88.5459 13.6364 90.5459 14.7272 91.8186 16.5454C93.0913 18.3636 93.2732 20.5455 92.5459 22.7273L84.7277 43.6364C83.8186 46.1818 81.2732 48 78.5459 48H74.7277C74.9095 47.2728 74.9095 46.5454 74.9095 45.6363L77.2731 13.6364ZM31.8186 8.00005H70.5459C71.0913 8.00005 71.6368 8.54546 71.6368 9.09091C71.6368 9.63636 71.0913 10.1818 70.5459 10.1818H31.8186C31.2731 10.1818 30.7277 9.63636 30.7277 9.09091C30.7277 8.54546 31.0913 8.00005 31.8186 8.00005ZM15.6368 13.6364H24.7277L26.9095 45.4545C26.9095 46.1818 27.0913 47.0909 27.0913 47.8182H23.2731C20.5459 47.8182 18.0004 46 17.0913 43.4546L9.27315 22.5455C7.81861 18.1819 11.0913 13.6364 15.6368 13.6364Z" fill="black"/>
<path d="M88.5461 97.8182H80.5461V94.1818C80.5461 90 77.0915 86.5454 72.9097 86.5454H29.0915C24.9097 86.5454 21.4552 90 21.4552 94.1818V97.8182H13.4552C12.9097 97.8182 12.3643 98.3637 12.3643 98.9091C12.3643 99.4546 12.9097 100 13.4552 100H88.5461C89.0915 100 89.637 99.4546 89.637 98.9091C89.637 98.3637 89.2734 97.8182 88.5461 97.8182Z" fill="black"/>
</svg>
