<svg width="566" height="1180" viewBox="0 0 566 1180" fill="none" xmlns="http://www.w3.org/2000/svg">
<path fill-rule="evenodd" clip-rule="evenodd" d="M214.885 144.794C214.885 144.794 222.778 141.721 230.854 141.33C238.935 140.938 248.578 141.012 248.813 141.143C249.04 141.273 236.963 142.418 236.135 143.201C235.312 143.984 240.859 142.174 261.43 142.083C274.13 142.03 279.089 140.747 281.048 141.486C282.55 142.052 281.388 145.438 281.353 145.638C281.266 146.16 272.772 143.98 263.864 144.067C260.028 144.102 231.211 145.808 229.992 147.418C235.36 146.817 232.813 148.123 233.854 148.075C241.055 147.74 252.039 146.186 260.89 145.89C268.387 145.638 283.612 147.226 282.184 148.319C281.758 148.645 281.514 149.028 281.405 149.437C280.695 149.254 278.871 148.645 277.744 148.645C276.616 148.645 280.164 149.159 281.357 150.656C281.697 152.832 283.769 155.182 280.809 154.929C276.468 154.907 273.647 153.267 270.987 153.267C267.221 153.267 266.729 153.267 264.752 152.771C262.784 152.275 259.245 151.744 260.977 151.796C262.484 151.796 266.128 151.082 270.299 151.465C273.307 151.744 276.564 151.926 276.742 151.417C276.925 150.878 276.525 150.312 275.602 150.251C272.85 150.064 269.868 148.049 259.623 148.78C252.688 149.281 231.799 148.754 226.083 152.971C224.968 153.793 236.505 152.035 247.063 151.944C257.625 151.857 255.649 152.549 254.086 152.81C252.523 153.071 247.62 154.664 238.064 155.277C228.516 155.891 214.141 156.626 216.809 157.588C219.478 158.55 236.871 158.445 243.571 156.962C250.276 155.473 253.676 154.041 258.631 154.128C263.59 154.216 265.788 154.825 272.676 155.264C279.563 155.704 283.691 156.404 282.319 157.54C280.939 158.676 279.385 159.816 272.127 158.154C264.87 156.492 259.637 155.356 251.469 157.806C243.293 160.256 241.342 160.517 237.489 160.517C233.636 160.517 231.821 160.952 231.821 160.952C231.821 160.952 236.362 161.762 238.569 161.762C240.776 161.762 238.247 163.581 220.985 162.967C203.722 162.353 197.205 161.918 194.266 162.092C191.327 162.266 190.587 161.479 192.52 159.642C194.444 157.806 192.707 158.859 199.408 158.768C206.108 158.68 206.295 158.502 208.132 158.419C210.932 158.284 208.093 156.566 204.001 156.566C201.702 156.566 199.869 156.322 200.326 155.882C200.74 155.491 200.513 152.257 212.8 150.969C212.943 150.956 215.394 150.608 213.766 150.516C211.611 150.395 205.202 150.516 205.372 150.386C208.315 148.201 207.854 148.18 214.097 147.914C220.349 147.653 216.531 146.952 219.839 146.861C223.135 146.774 229.896 146.147 230.071 145.416C230.258 144.685 213.775 145.603 214.881 144.785M201.149 196.145C206.26 203.578 214.606 210.567 222.204 213.718C239.466 220.877 236.893 222.53 247.546 223.266C251.787 223.553 254.943 223.94 257.455 224.054C263.019 222.831 265.536 214.545 266.041 211.516C266.55 208.491 264.439 202.442 260.39 202.699C256.437 202.947 252.183 203.461 248.343 198.491C254.351 199.679 255.94 198.783 261.774 198.582C264.709 198.478 264.386 198.983 267.46 198.617C267.373 198.217 266.663 196.816 264.482 196.955C257.778 197.386 252.214 195.11 245.996 196.628C245.818 195.379 249.971 193.534 251.691 192.821C254.077 191.628 264.865 191.419 264.626 189.313C264.352 186.928 264.587 186.789 265.222 185.048C265.858 183.303 263.89 184.635 262.053 183.991C260.216 183.347 260.586 182.341 258.2 183.804C252.144 187.529 257.36 181.689 258.2 180.779C260.216 178.577 260.586 179.769 264.352 179.769C268.118 179.769 268.392 180.87 270.32 180.135C272.245 179.404 269.585 175.087 268.392 170.313C267.199 165.539 265.087 158.842 265.087 158.842C263.063 158.933 259.946 158.202 258.849 158.75C257.743 159.303 258.753 160.956 259.671 162.789C260.59 164.629 260.96 166.596 258.574 168.711C256.188 170.822 254.895 171.971 253.528 173.899C252.126 175.857 251.9 175.183 251.739 173.529C251.813 173.259 251.434 174.112 252.052 172.611C252.675 171.114 252.083 171.98 253.885 167.702C255.627 163.594 252.61 160.935 249.436 162.601C236.614 171.832 227.432 166.392 209.269 165.635C200.426 165.274 193.204 165.913 193.204 165.913C193.204 165.913 193.378 167.754 193.639 168.894C193.809 170.8 192.228 171.605 190.848 174.817C189.472 178.029 193.787 178.943 194.797 180.966C197.457 186.28 185.027 178.294 185.754 181.427C186.033 182.637 186.625 183.721 189.107 184.548C191.588 185.375 191.588 187.298 186.259 185.919C180.935 184.548 179.973 177.663 178.732 174.952C177.491 172.245 176.664 180.413 180.983 185.644C185.297 190.875 191.092 193.56 194.867 193.856C196.451 193.987 198.415 191.18 198.337 189.2C198.337 189.2 198.337 190.027 199.164 192.411C199.604 193.682 200.461 195.101 201.166 196.154L201.149 196.145ZM165.148 152.192C165.148 152.192 166.437 155.034 173.595 156.135C180.756 157.236 184.152 157.144 189.294 155.861C194.44 154.572 198.11 150.904 198.11 150.904C198.11 150.904 191.04 153.197 185.532 152.005C180.021 150.812 176.99 147.875 172.123 146.865C167.264 145.856 164.961 145.673 164.961 145.673C164.961 145.673 166.524 149.798 172.032 151.635C177.539 153.471 179.929 153.841 179.929 153.841C179.929 153.841 170.839 153.928 165.144 152.192H165.148ZM265.453 110.11C264.939 108.782 264.487 106.628 265.81 104.579C268.823 99.9309 274.84 99.1563 278.388 101.889C273.473 93.2204 264.552 101.167 263.285 102.803C263.259 99.7307 266.824 93.3553 268.566 91.3752C262.292 93.1551 261.382 98.0379 260.303 100.014C261.391 92.4719 255.344 85.4872 248.086 85.5699C251.748 87.2714 257.164 89.7563 256.45 101.567C256.345 100.679 256.262 100.057 256.262 100.057L256.215 100.175C255.287 95.7967 252.666 92.9636 248.735 91.0053C248.735 91.0053 255.296 97.9378 254.26 104.309C253.75 104.244 251.782 103.956 244.155 102.794C234.041 101.254 227.254 114.427 224.124 119.044C221.011 123.666 220.453 123.492 212.19 126.573C203.927 129.654 207.788 140.942 207.601 141.974C207.601 141.974 211.737 140.007 214.123 139.659C216.509 139.319 222.935 137.953 227.894 137.609C232.853 137.27 233.401 137.439 250.115 137.439C266.829 137.439 277.474 137.27 277.474 137.27C278.958 122.491 273.281 122.23 265.449 110.105L265.453 110.11ZM250.812 100.701C243.153 96.5321 234.703 96.5321 231.494 100.105C218.934 114.087 214.898 134.249 189.486 114.932C182.968 109.975 178.741 107.864 173.325 110.802C167.909 113.739 163.686 119.888 163.686 119.888C163.686 119.888 164.513 109.244 172.036 106.032C179.568 102.821 190.496 105.845 199.678 101.902C208.855 97.9595 218.738 87.7588 223.64 84.7387C233.558 78.6331 246.053 85.0346 249.619 93.6425C223.605 79.0987 219.108 111.542 208.028 104.013C219.687 103.373 218.607 86.1704 236.314 86.7579C218.211 81.9405 217.493 110.175 184.892 106.946C184.892 106.946 200.222 118.97 208.028 115.119C220.693 108.861 222.413 90.766 241.377 93.8732C246.528 94.7218 250.198 97.3503 250.812 100.706V100.701ZM230.985 79.0944C208.206 75.082 210.919 98.0857 179.934 98.9604C204.262 108.656 211.385 81.9535 230.985 79.0944ZM216.844 77.0273C216.844 77.0273 207.758 74.0898 199.86 81.7055C191.967 89.3255 188.658 90.5179 184.252 92.2586C179.846 94.0037 179.019 94.0037 179.019 94.0037C187.966 95.9316 193.047 95.7357 200.23 89.7824C195.389 90.3351 192.677 93.2421 188.201 92.9941C200.126 89.0078 204.253 77.1491 216.848 77.0273H216.844ZM200.683 128.144C200.683 128.144 193.339 130.711 185.99 128.605C175.78 125.672 170.577 126.542 164.6 130.624C171.339 114.044 188.671 128.148 200.683 128.148V128.144ZM204.083 132.918C204.083 132.918 200.318 137.596 191.044 138.24C181.771 138.884 180.395 137.779 176.355 137.135C172.315 136.495 170.294 137.226 170.294 137.226C170.294 137.226 173.233 130.437 181.218 132.731C189.207 135.028 194.993 135.577 204.079 132.918H204.083ZM202.795 141.36C202.795 141.36 201.51 149.99 191.136 148.519C180.756 147.052 181.954 144.942 176.168 143.932C170.386 142.923 170.112 142.74 170.112 142.74C170.112 142.74 173.05 139.341 183.055 141.273C193.06 143.197 194.902 142.923 199.12 140.351L203.343 137.783L202.79 141.36H202.795ZM179.246 163.25C184.017 161.505 183.286 159.486 183.286 159.486C183.286 159.486 176.947 161.505 171.988 160.312C167.034 159.12 164.922 157.562 164.922 157.562C165.079 165.099 169.855 166.679 179.246 163.25ZM268.383 107.39C268.84 105.645 274.156 99.2564 278.849 104.883C284.631 111.82 273.899 124.175 285.68 125.45C284.487 124.227 279.764 123.757 281.727 118.33C281.727 118.33 282.785 121.085 285.406 122.417C288.018 123.748 287.335 126.138 287.335 126.138C284.422 126.664 282.585 126.93 281.361 126.294C276.459 123.731 276.316 113.674 276.102 110.253C275.824 105.932 272.523 104.892 268.387 107.39H268.383ZM184.47 163.724C184.47 163.724 183.094 167.946 179.511 170.061C175.933 172.171 170.882 170.887 170.882 170.887C170.882 170.887 180.156 168.272 184.474 163.724H184.47ZM170.608 116.738C170.608 116.738 175.105 114.444 179.146 114.993C183.186 115.545 187.135 115.724 187.135 115.724C187.135 115.724 183.508 118.387 180.338 117.878C177.169 117.373 170.281 117.926 168.54 118.796C166.798 119.666 169.463 117.373 170.608 116.733V116.738ZM255.583 77.9585C255.583 77.9585 261.461 78.8768 265.414 82.3626C269.354 85.8528 273.12 89.9826 273.12 89.9826C273.12 89.9826 268.161 86.4925 265.501 84.9824C262.832 83.468 262.789 83.4679 262.789 83.4679C262.789 83.4679 263.429 85.3044 262.466 87.5978C261.509 89.8912 261.509 89.9826 261.509 89.9826C261.509 89.9826 261.87 80.9395 255.583 77.9585ZM236.714 76.2613C236.714 76.2613 241.077 73.9201 244.834 75.8044C248.609 77.6844 254.752 80.9918 256.132 82.4627C257.512 83.9292 257.56 84.2513 257.56 84.2513C257.56 84.2513 249.754 78.8811 245.992 78.3284C242.226 77.7801 243.741 76.5399 240.115 77.5016C236.484 78.4634 235.565 78.5591 235.565 78.5591C235.565 78.5591 236.074 76.5877 236.719 76.2657L236.714 76.2613ZM270.138 92.9636C270.138 92.9636 272.798 91.632 275.88 93.5598C278.95 95.4877 279.781 96.4059 279.781 96.4059C279.781 96.4059 273.817 93.1464 270.138 92.9636ZM270.442 108.239C270.442 108.239 272.828 108.426 273.747 110.671C274.665 112.921 275.223 115.171 275.223 115.171C275.223 115.171 272.375 110.214 270.442 108.239ZM278.31 162.78C278.31 162.78 276.986 164.02 273.377 163.376C269.763 162.732 269.411 161.348 269.411 162.136C269.411 165.852 273.895 171.462 274.387 174.512C275.022 178.481 276.233 184.334 276.908 184.513C276.908 184.513 279.729 171.801 279.764 171.218C280.086 164.355 280.73 162.567 278.314 162.78H278.31ZM266.006 253.424C266.006 253.424 266.629 250.965 270.007 252.706C273.394 254.447 276.15 257.928 276.773 260.082C277.395 262.232 277.278 264.182 277.278 264.182C277.278 264.182 278.923 263.259 279.437 258.955C285.693 245.747 267.926 241.639 265.762 233.906C263.085 247.88 277.961 243.28 278.519 257.724C278.519 257.728 274.835 251.083 271.352 249.068C269.184 247.81 264.926 248.402 266.006 253.428V253.424ZM268.039 254.125C268.039 254.125 268.779 259.264 271.548 260.8C274.313 262.341 274.008 262.646 275.031 263.464C276.054 264.282 276.054 260.692 273.699 259.16C271.344 257.624 270.077 256.449 268.039 254.125ZM278.07 215.002C278.07 215.002 280.761 219.349 278.392 222.752C274.918 227.753 271.265 225.777 268.348 232.113C268.348 232.113 269.071 225.829 272.611 224.041C276.15 222.252 278.488 218.945 278.07 215.002ZM272.079 219.776C271.296 222.478 271.165 223.122 271.165 223.122C272.833 220.024 274.422 218.683 275.754 214.863C275.754 214.863 275.197 218.209 274.6 220.111C275.641 219.206 277.6 217.408 277.404 215.346C277.178 212.965 275.379 211.486 275.379 211.464C274.452 214.741 272.959 216.708 272.075 219.771L272.079 219.776ZM129.87 250.33C120.763 238.515 126.671 226.543 136.162 219.919C152.122 208.779 170.582 222.391 174.953 198.286C171.718 209.532 160.708 213.566 153.559 211.777C153.559 211.777 165.035 210.676 168.618 201.681C172.197 192.686 171.918 184.791 171.918 184.791C182.045 194.3 183.608 213.949 166.498 216.642C151.352 219.027 123.074 216.364 129.866 250.326L129.87 250.33ZM187.748 195.71C187.748 195.71 193.905 205.528 191.519 214.153C189.133 222.783 185.363 230.129 175.632 232.875C165.902 235.629 161.217 236.086 159.38 238.706C157.543 241.322 158.509 244.76 158.509 244.76C158.653 240.595 160.02 238.371 164.434 237.875C162.506 239.711 160.76 242.601 161.539 246.087C162.323 249.573 164.387 258.02 162.919 265.457C161.448 272.885 156.95 277.751 156.95 277.751C156.95 277.751 161.631 267.289 157.865 257.933C154.103 248.567 151.804 235.26 160.712 232.139C169.62 229.015 179.167 228.005 183.303 221.495C187.435 214.98 188.902 208.182 187.435 203.139C185.963 198.086 182.933 191.572 182.933 191.572C182.933 191.572 186.699 193.865 187.753 195.706L187.748 195.71ZM161.356 227.283C168.361 224.415 179.132 219.654 182.424 212.182C183.112 210.619 183.804 209.109 183.804 209.109C185.045 217.221 184.248 221.234 176.734 225.216C179.189 223.07 180.626 220.002 180.774 218.653C177.609 222.783 167.508 226.917 161.361 227.283H161.356ZM109.787 289.962C109.099 291.933 108.685 292.342 108.96 292.073C118.947 282.085 127.65 289.3 138.539 284.64C166.79 272.537 143.972 253.737 145.148 237.744C145.609 231.508 148.178 228.749 151.578 226.177C154.978 223.61 161.583 219.754 161.583 219.754C161.583 219.754 153.041 221.038 147.446 224.889C141.847 228.745 137.986 235.808 140.467 244.529C143.354 254.673 155.418 265.474 146.619 274.265C146.619 274.265 150.659 268.024 147.542 263.072C144.421 258.115 140.197 252.88 138.909 249.394C137.624 245.908 137.716 243.062 137.716 243.062C137.716 243.062 131.747 247.009 137.899 256.553C140.881 261.179 146.206 266.188 144.238 271.693C141.839 260.792 135.722 261.418 131.564 254.995C131.564 254.995 132.391 259.765 136.249 263.712C149.127 276.893 129.836 282.755 119.626 281.332C124.424 283.513 130.14 283.808 135.874 282.895C125.66 286.729 113.427 279.522 109.787 289.958V289.962ZM161.3 197.342C155.126 203.121 145.801 201.529 143.397 211.66C156.18 198.395 171.457 218.209 168.74 169.26C167.978 177.232 167.147 191.867 161.304 197.342H161.3ZM138.243 184.348C138.243 184.348 141.221 174.66 147.403 170.9C153.594 167.14 161.308 168.285 161.308 168.285C161.308 168.285 145.718 170.922 138.243 184.348ZM153.916 174.987C153.916 174.987 146.293 180.078 144.751 189.531C143.215 198.983 143.154 205.989 143.154 205.989C143.154 205.989 141.212 198.752 141.416 194.613C141.621 190.475 142.522 187.485 142.522 187.485C141.956 188.83 140.602 191.189 139.257 195.797C138.547 190.814 140.898 176.153 153.92 174.987H153.916ZM186.921 228.375C186.921 228.375 187.566 235.077 180.308 238.932C173.055 242.784 169.38 245.721 169.563 251.779C169.75 257.837 168.279 266.462 166.35 268.943C164.426 271.423 163.964 271.515 163.964 271.515C163.964 271.515 167.543 264.813 167.086 259.673C166.629 254.534 164.513 245.817 168.649 242.51C172.776 239.207 183.795 235.621 186.917 228.375H186.921ZM188.663 232.966C188.663 232.966 189.398 238.837 182.328 241.961C175.258 245.082 172.41 247.558 171.405 251.509C170.395 255.452 170.395 257.38 170.395 257.38C176.076 243.097 192.429 248.006 188.663 232.966ZM171.631 266.153C171.631 266.153 177.966 259.73 180.443 256.24C182.925 252.754 184.392 247.566 184.392 247.566C184.392 247.566 182.241 248.145 181.405 249.12C180.569 250.091 179.019 255.086 175.71 259.395C172.406 263.712 170.477 267.106 171.627 266.149L171.631 266.153ZM170.577 261.971C170.577 261.971 172.323 257.11 174.522 254.629C176.725 252.149 177.922 250.678 177.922 250.678C177.922 250.678 175.715 257.38 170.577 261.971ZM129.022 257.61C129.022 257.61 129.209 262.202 131.777 264.586C134.35 266.976 135.448 269.913 135.909 271.928C136.366 273.947 135.548 276.062 135.548 276.062C135.548 276.062 136.096 272.389 132.883 270.279C129.67 268.172 128.199 265.966 128.199 265.966C128.199 265.966 128.29 269.452 129.67 271.197L131.046 272.942C131.046 272.942 126.205 271.38 124.986 267.158C123.767 262.937 128.29 259.173 129.026 257.61H129.022ZM132.235 242.009C132.235 242.009 131.869 235.129 134.716 230.721C137.563 226.317 142.979 223.292 142.979 223.292C142.979 223.292 136.458 230.081 132.235 242.009ZM123.392 279.835C125.391 280.009 127.707 279.966 129.361 279.2C132.905 277.568 133.336 274.831 133.336 274.831C133.336 274.831 131.133 277.812 127.724 278.303C126.174 278.53 124.842 278.382 123.845 278.16C124.968 278.06 126.274 277.833 127.25 277.685C129.383 277.368 131.002 276.062 131.002 276.062C131.002 276.062 130.571 276.11 129.143 276.484C127.72 276.859 124.594 276.075 124.594 276.075C124.594 276.075 123.989 276.258 123.253 276.772C122.574 277.25 121.699 277.572 121.564 277.624H121.555L121.546 277.629C121.546 277.629 116.67 278.351 114.463 280.645C112.26 282.938 111.938 284.135 111.938 284.135C111.938 284.135 117.698 279.078 122.578 279.748C122.887 279.792 123.153 279.822 123.392 279.831V279.835ZM107.397 315.664C107.397 315.664 105.007 306.207 108.133 300.154C111.254 294.096 114.924 290.332 118.69 289.414C122.456 288.495 125.848 288.313 125.848 288.313C125.848 288.313 117.95 290.423 114.463 295.841C110.975 301.251 109.504 304.371 109.595 307.034C109.687 309.693 109.408 310.611 109.408 310.611C109.408 310.611 110.514 304.279 114.093 299.875C117.671 295.471 120.61 294.457 120.61 294.457C120.61 294.457 115.199 301.342 114.001 304.919C112.808 308.501 108.855 315.934 107.392 315.659L107.397 315.664ZM135.905 287.995C135.905 287.995 127.872 291.159 125.303 293.409C122.726 295.658 119.378 299.923 119.378 299.923C119.378 299.923 122.225 292.947 126.266 290.236C130.306 287.529 135.861 286.937 137.468 286.245L139.074 285.558C139.074 285.558 136.828 288.078 135.909 287.991L135.905 287.995ZM159.41 195.345C159.776 194.796 163.263 188.734 164.278 180.657C165.283 172.585 165.562 169.369 165.562 169.369C165.562 169.369 164.278 173.407 161.888 181.114C159.502 188.826 156.467 192.129 154.817 195.249C153.163 198.369 151.33 199.653 151.787 199.931C152.248 200.206 158.492 196.811 159.41 195.34V195.345ZM162.166 169.234C162.166 169.234 160.055 176.945 156.933 181.528C153.811 186.123 152.893 188.504 152.893 188.504C152.893 188.504 157.947 182.998 158.862 181.619C159.78 180.244 156.014 187.677 153.724 190.98C151.426 194.283 149.867 199.792 149.867 199.792C149.867 199.792 146.88 202.36 146.332 203.369C146.332 203.378 145.483 183.595 162.171 169.229L162.166 169.234ZM191.854 254.464C187.374 255.739 186.538 276.31 168.166 281.263C174.413 282.546 191.305 289.705 192.96 285.671C194.61 281.628 197.274 274.108 197.274 274.108C197.274 274.108 197.366 283.195 198.193 286.406C199.02 289.618 200.122 288.883 200.67 286.037C201.223 283.195 202.878 279.883 202.878 278.234C202.878 276.584 203.796 286.585 210.862 290.349C217.933 294.114 222.156 293.748 221.603 289.335C221.054 284.931 217.38 266.762 217.933 256.849C218.49 246.94 218.851 244.921 218.851 244.921C218.851 244.921 227.132 290.21 234.72 292.007C244.098 294.218 237.276 259.551 237.354 256.187C237.515 250.256 236.919 243.789 239.418 239.05C241.225 249.89 242.383 264.882 246.393 273.556C247.498 275.945 245.108 260.156 244.56 250.796C244.002 241.435 245.282 234.093 245.282 234.093C221.995 232.801 206.87 218.84 200.657 217.691C196.316 216.886 198.219 252.645 197.727 264.016C197.636 266.127 194.971 258.694 191.85 254.468L191.854 254.464ZM178.815 500.446L88.9284 489.641C89.7904 487.504 91.4187 484.649 95.5504 478.461C103.291 466.89 126.026 425.721 142.914 398.148C145.492 408.21 153.602 426.431 158.522 434.616C164.03 443.794 160.965 451.332 165.005 460.14C169.045 468.952 179.511 469.866 180.247 475.376C180.983 480.881 183.551 487.857 181.353 493.732C180.443 496.143 179.786 498.188 178.815 500.438V500.446ZM196.29 694.107C197.932 684.824 203.574 616.527 204.292 613.067L198.45 695.508L203.574 644.535L200.261 696.261L205.76 637.894L202.059 695.604L208.228 627.263L204.149 694.842L214.785 576.003L206.334 693.036L210.888 647.76L208.041 692.371L224.211 511.496L104.654 494.767L141.477 501.299L97.5574 495.746L145.775 503.588L99.7865 497.835L150.433 505.999L104.393 500.307L143.236 506.8L108.063 502.888L208.289 518.654L196.295 694.103L196.29 694.107ZM195.302 510.251L221.638 513.358L217.58 549.861L219.757 514.503L195.302 510.251ZM165.854 507.17L218.42 515.095L214.985 561.389L215.799 516.348L165.854 507.17ZM131.869 514.881C154.251 517.479 180.06 521.544 198.345 525.348C196.978 543.93 194.584 587.265 194.488 577.656L193.983 528.159L131.873 514.881H131.869ZM36.1965 537.093C36.1965 537.093 32.3435 569.031 29.4047 595.094C26.466 621.162 25.1817 638.417 25.1817 638.417C25.1817 638.417 48.3172 643.922 57.8692 647.96C67.4125 651.999 40.0582 638.782 35.6479 624.465C31.242 610.152 37.3067 567.743 36.2009 537.093H36.1965ZM96.5299 365.105C91.6538 377.338 87.213 388.661 83.9042 395.807C71.9882 421.57 48.1561 485.054 46.0663 502.466C45.2478 509.272 49.0704 530.378 57.4643 553.291C65.8495 576.212 75.1881 606.648 77.8483 615.796C80.6781 625.544 67.0598 654.975 76.0066 659.571C79.7944 661.516 79.7552 665.985 84.6792 665.141C86.6558 664.802 88.5757 664.014 90.0778 664.763C93.9395 666.69 92.5115 672.735 98.9462 669.715C103.714 667.482 103.217 673.61 107.244 672.374C111.263 671.134 111.816 671.869 114.389 674.167C116.957 676.456 123.575 678.571 121.181 664.432C118.795 650.301 118.059 652.042 118.246 648.552C118.429 645.066 120.723 645.802 123.754 649.562C124.55 650.554 130.85 662.06 135.735 662.73C138.996 663.183 141.016 661.951 141.016 661.951C141.016 661.951 139.418 657.991 134.572 650.745C131.599 646.311 127.628 639.644 123.897 633.973C119.548 627.372 116.487 620.892 110.488 615.718C106.13 611.962 106.308 611.296 104.915 604.816C103.814 599.716 89.2636 519.386 88.9023 516.013C87.5875 503.85 77.4216 500.655 75.223 502.057C76.5987 479.044 90.8092 477.434 117.027 419.033C122.352 407.548 129.818 394.184 127.115 387.504C124.411 380.819 115.825 375.362 109.443 371.023C109.016 370.823 108.585 370.614 108.146 370.41C102.791 367.92 99.116 366.267 96.5343 365.096L96.5299 365.105ZM329.674 308.061C331.316 291.542 331.229 290.719 331.142 288.33C331.046 285.945 331.416 285.392 331.416 285.392C331.416 285.392 326.644 290.532 324.433 293.652C322.234 296.773 322.142 296.864 322.142 296.864C322.142 296.864 321.868 289.979 326.274 285.301C330.684 280.623 333.98 279.887 334.899 275.022C335.365 272.598 338.012 263.642 336.318 262.25C333.384 259.856 311.646 263.603 301.01 268.451C303.822 268.956 317.871 268.864 316.178 273.107C309.547 289.792 293.116 298.413 291.754 282.098C291.388 277.677 297.453 271.127 295.607 270.984C291.728 271.771 285.698 271.784 283.778 272.829C273.817 278.216 278.392 288.217 267.956 293.696C264.787 294.736 261.604 293.034 259.423 289.622C256.519 285.053 253.733 265.396 253.733 265.396C253.733 265.396 254.103 269.069 253.925 278.242C253.733 287.425 254.834 289.074 255.344 294.222C255.344 298.261 262.745 299.04 259.118 300.828C250.137 305.241 244.381 302.134 243.271 312.017C242.487 319.032 247.172 341.94 244.011 334.599C240.833 327.253 234.977 308.287 229.374 305.716C223.762 303.144 182.716 292.778 182.824 296.32C182.938 299.867 186.133 298.983 191.288 305.228C196.438 311.464 195.794 316.752 194.588 316.695C193.382 316.643 188.55 313.401 185.659 312.017C181.283 310.207 167.674 305.437 158.304 303.836C153.524 303.017 155.287 299.984 155.061 297.234C154.308 288.156 132.383 293.665 123.501 308.535C122.552 310.128 120.998 311.886 119.561 314.184C114.598 322.104 109.273 333.959 103.696 347.415C119.861 353.786 128.434 359.665 138.539 364.635C140.049 365.035 141.913 365.105 143.637 364.004C147.403 361.623 148.313 358.964 151.299 352.859C151.891 350.9 152.462 348.925 153.01 346.932C154.821 340.373 151.704 324.132 153.019 315.494C156.019 314.959 158.679 320.229 165.645 323.123C175.131 327.061 177.4 324.589 174.457 329.729C171.522 334.868 168.122 335.512 165.915 338.633C161.439 344.973 172.759 345.804 173.812 355.244C174.544 358.181 161.326 369.1 161.326 369.1C161.326 369.1 172.158 362.672 180.974 357.167C189.786 351.658 203.465 344.042 222.473 343.955C233.244 343.903 268.091 356.323 290.091 346.501C303.043 340.722 306.687 333.458 324.698 334.207C301.671 324.898 295.546 348.729 274.565 344.194C288.175 342.197 293.321 330.908 314.297 324.494C323.496 321.682 328.246 322.157 329.666 308.048L329.674 308.061ZM99.4338 360.527C99.4338 360.527 90.9833 357.959 90.1561 356.031C89.3289 354.108 90.8005 351.536 92.0848 351.262C93.3692 350.983 101.863 355.94 106.178 357.498C110.497 359.056 114.855 360.435 114.855 360.435C114.855 360.435 94.7493 350.522 93.9221 350.248C93.0949 349.974 94.1093 348.416 97.5966 349.974C101.088 351.536 120.919 360.07 131.294 364.661C141.669 369.248 146.123 372.002 147.268 372.642C148.417 373.282 148.095 377.233 146.354 377.416C144.608 377.595 146.075 378.517 143.141 377.046C140.197 375.58 130.837 372.09 130.837 372.09C130.837 372.09 137.86 376.224 139.692 377.138C141.53 378.056 143.184 380.032 143.184 380.032C143.184 380.032 143.136 381.037 141.617 380.858C140.106 380.671 117.798 369.887 99.4338 360.527ZM172.955 379.283C172.423 379.305 172.315 377.007 183.06 372.873C184.797 372.207 200.139 362.624 208.576 359.826C199.377 360.753 172.441 376.859 161.291 376.441C179.947 370.096 203.522 347.993 225.29 351.479C229.87 352.21 232.265 353.677 232.265 353.677C232.265 353.677 227.998 352.393 221.751 354.138C215.499 355.883 215.647 355.975 211.324 357.441C220.371 356.205 222.992 354.917 230.885 357.489C238.787 360.057 236.118 360.009 241.077 363.129C246.036 366.249 251.913 371.572 258.339 372.124C264.765 372.673 268.44 373.038 268.44 373.038C268.44 373.038 259.249 377.447 250.071 373.408C240.894 369.37 237.367 364.487 233.366 365.701C232.156 366.062 239.657 380.288 234.285 391.029C230.423 398.74 228.037 400.211 224.367 401.308C220.688 402.413 216.374 402.5 214.175 405.625C211.964 408.745 208.755 411.682 208.755 411.682C208.755 411.682 209.765 408.284 211.689 405.346C213.618 402.413 215.094 400.211 215.455 399.201C215.817 398.192 209.578 395.807 210.496 391.216C211.415 386.625 209.399 380.937 209.674 380.201C209.948 379.47 208.933 388.37 201.772 393.509C194.61 398.649 192.96 401.403 184.692 401.403C176.424 401.403 173.973 401.704 173.49 401.403C173.011 401.107 175.602 398.653 182.681 397.456C189.747 396.264 196.269 393.239 200.4 387.821C204.528 382.412 204.528 381.032 205.999 379.931C207.466 378.826 206.369 377.268 206.369 377.268C206.369 377.268 197.462 379.109 193.508 381.951C189.564 384.792 188.458 385.437 188.458 385.437C188.458 385.437 183.682 391.951 176.15 391.586C168.623 391.22 158.984 391.129 158.065 390.21C159.82 389.871 166.141 390.946 175.327 386.268C184.505 381.585 183.499 379.931 186.895 377.46C190.291 374.983 192.955 373.051 192.955 373.051C192.955 373.051 188.55 374.335 172.942 379.292L172.955 379.283ZM251.591 234.463C255.205 234.746 256.589 234.633 260.072 233.362C260.072 233.362 259.249 256.035 259.994 261.444C260.721 266.862 260.995 271.171 259.711 269.891C258.431 268.603 254.077 239.877 251.591 234.459V234.463ZM452.666 62.2311C452.666 62.2311 451.382 64.6898 450.463 70.765C449.544 76.8358 449.679 78.224 451.151 78.224C452.623 78.224 455.374 78.8028 458.866 73.7982C460.198 71.8834 461.291 69.6901 462 67.636C461.857 66.3218 459.841 65.2077 460.067 65.0249C460.263 64.877 462.118 64.6289 462.923 63.628C463.028 62.1353 462.762 61.0038 462.035 60.5338C460.633 59.6287 454.199 56.4344 452.666 62.2311ZM471.5 12.0067C471.5 12.0067 471.862 9.53049 474.295 6.59301C476.725 3.65553 477.552 3.01581 477.552 3.01581C477.552 3.01581 477.739 8.20318 477.865 9.02568C478.009 9.85253 475.205 8.83855 471.496 12.0067H471.5ZM467.29 16.1583C467.29 16.1583 468.396 15.5186 470.468 16.2758C472.532 17.033 472.275 15.214 474.844 14.0259C481.174 11.1015 476.698 19.3482 477.417 30.0841C477.691 34.214 477.321 36.6032 477.321 36.6032C468.426 36.1332 471.613 29.5706 471.722 25.3102C471.814 22.0072 470.782 19.5527 467.29 16.154V16.1583ZM471.587 38.3004C471.587 38.3004 472.693 39.1272 476.202 39.223C479.716 39.31 482.515 38.7878 482.515 38.7878C482.515 38.7878 479.049 39.7495 478.366 39.8627C477.678 39.9802 476.873 40.2805 477.356 41.6078C477.83 42.9394 478.083 43.9708 478.083 44.2928C478.083 44.6149 471.888 42.526 471.592 38.3047L471.587 38.3004ZM475.71 102.803C475.645 126.903 475.58 152.923 475.58 157.527C476.032 157.51 477.225 157.449 477.225 157.449C477.225 157.449 477.508 128.844 477.822 103.173L475.71 102.807V102.803ZM475.871 47.3696L475.858 54.5762L478.396 54.0496C478.936 50.9859 480.403 48.2095 480.464 47.8178C480.517 47.4262 478.179 47.8309 475.871 47.3652V47.3696ZM482.58 162.845C487.13 164.817 491.366 165.804 495.633 166.105C498.445 152.379 500.535 141.308 501.062 138.109C502.616 128.47 503.535 127.826 500.23 122.869C496.926 117.917 499.586 114.153 499.677 113.143C499.773 112.138 503.352 105.066 505.193 97.359C506.256 92.9027 506.591 77.8889 504.823 74.0506C502.808 69.6422 499.116 58.4406 497.291 57.5311C495.485 56.6172 491.989 55.8513 490.26 55.7033C486.917 55.4248 481.035 56.4867 478.24 57.4266C476.916 57.8792 475.41 58.2448 473.973 58.5451C473.559 58.5538 473.133 58.5755 472.689 58.6277C470.93 58.841 469.45 59.1587 468.278 59.472C462.862 60.9212 464.103 65.2382 467.908 65.2382C471.33 65.2382 478.584 62.8534 489.72 62.8534C495.598 62.8534 494.906 63.0405 495.463 64.5071C496.02 65.9736 493.813 65.6081 488.488 65.2382C484.57 64.9684 465.039 68.0712 464.382 68.4933C463.816 68.8589 461.173 72.6189 462.932 74.3074C464.06 75.391 467.543 76.9968 472.323 76.4354C483.307 75.1429 498.51 74.4988 499.32 75.5172C501.118 77.7932 498.911 77.7192 492.115 77.7192C485.319 77.7192 465.94 77.445 465.353 83.3635C465.022 86.6927 472.327 86.7144 476.555 85.6134C481.353 84.3644 492.124 84.1207 494.962 86.4838C497.152 88.3072 488.14 86.7753 483.438 87.2627C480.203 87.5935 467.011 89.7781 466.45 92.4066C465.901 94.9742 467.19 95.7053 475.083 95.5269C482.976 95.3397 488.671 92.4066 489.411 96.258C489.912 98.8995 493.848 103.125 489.128 116.172C486.477 123.496 487.478 127.917 489.494 130.302C491.518 132.691 488.397 133.24 488.397 133.24C486.237 134.114 482.907 136.277 481.753 141.465V157.701C484.509 158.036 485.236 161.557 481.239 161.714C481.788 162.084 482.241 162.458 482.593 162.845H482.58ZM473.324 162.675C470.181 164.072 467.181 164.999 464.221 165.552C466.598 159.668 469.101 154.015 471.631 149.028C472.179 147.923 473.033 147.126 473.999 146.5V157.727C471.274 158.132 470.516 161.561 474.513 161.718C474.047 162.036 473.66 162.358 473.32 162.675H473.324ZM475.418 161.157C473.969 160.835 473.612 159.52 475.806 159.137C477.517 158.842 481.74 158.698 482.885 159.246C482.598 158.25 479.676 157.993 474.67 158.354C471.613 158.576 472.158 161.566 475.418 161.152V161.157ZM474.822 163.555C473.438 164.899 473.612 167.819 475.741 169.086C478.597 170.766 482.11 169.086 481.596 165.643C481.3 163.694 479.498 162.393 478.305 162.266C477.386 162.171 476.146 162.284 474.822 163.559V163.555ZM474.482 172.115C474.482 172.115 474.513 171.723 474.53 171.14C474.543 170.548 474.543 170.296 474.543 170.296C477.399 171.383 479.594 170.844 480.956 170.487C480.408 171.484 476.738 170.944 475.366 172.136C475.366 172.136 475.035 172.115 474.478 172.115H474.482ZM471.161 176.775C471.161 176.775 472.676 179.347 475.336 184.121C477.996 188.891 477.674 188.29 477.674 188.29C477.674 188.29 478.688 185.035 477.399 182.65C476.115 180.266 475.253 178.738 477.186 178.325C479.106 177.907 481.087 177.306 483.194 176.845C485.306 176.379 484.801 175.857 484.801 175.857C484.801 175.857 479.929 176.819 476.115 176.453C472.301 176.088 471.069 175.809 471.156 176.771L471.161 176.775ZM450.293 234.528C453.049 242.005 455.544 248.746 457.394 253.746C467.242 246.949 474.596 241.374 476.446 238.78C480.8 232.679 488.096 201.785 493.639 175.644C489.995 175.03 486.655 174.116 483.817 173.076C485.153 173.968 486.664 175.457 486.124 177.485C486.076 177.689 478.906 191.358 478.052 191.358C478.009 191.358 477.948 191.319 477.865 191.25C477.783 191.319 477.726 191.358 477.678 191.358C476.82 191.358 469.654 177.689 469.606 177.485C469.027 175.3 470.821 173.733 472.227 172.876C468.879 174.151 464.769 175.261 460.255 175.892C453.885 193.447 449.279 210.741 449.449 216.568C449.618 222.487 458.626 232.352 453.672 234.372C452.623 234.794 451.525 234.768 450.285 234.524L450.293 234.528ZM428.86 176.501L429.021 176.928C429.465 176.384 429.7 175.975 429.7 175.975C429.7 175.975 429.378 176.197 428.864 176.501H428.86ZM422.238 179.426L422.743 178.037C422.687 178.029 422.63 178.016 422.565 177.998C417.728 176.688 418.098 170.4 422.338 168.503C422.338 168.503 421.533 169.53 421.015 171.109C420.501 172.689 420.823 174.269 422.66 175.492C422.935 175.674 423.235 175.801 423.54 175.888L423.853 175.035C422.421 174.238 421.999 172.358 423.048 170.757C424.271 168.89 427.82 167.732 433.231 169.982C438.643 172.241 445.609 175.396 458.748 174.425C465.087 173.955 469.158 172.341 472.079 171.031C472.475 170.853 471.862 170.078 471.674 169.543C469.611 170.378 460.638 172.419 459.144 172.075C463.524 170.953 466.119 170.417 471.439 168.328C471.174 167.319 470.991 166.536 471.6 164.764C469.341 165.796 463.698 167.632 459.423 167.919C462.745 168.202 465.183 168.181 468.971 167.175C468.971 167.175 468.022 168.42 459.022 169.947C450.01 171.479 436.383 167.663 436.383 167.663C442.609 168.572 449.736 170.095 455.396 168.694C440.328 168.611 439.239 165.3 429.304 163.82C422.321 162.776 417.58 167.924 417.323 172.171C417.096 175.77 419.291 178.629 422.234 179.426H422.238ZM424.859 179.373L424.794 179.574L424.859 179.561V179.373ZM530.719 179.574L530.645 179.373V179.561L530.719 179.574ZM531.646 175.03L531.969 175.883C532.273 175.801 532.565 175.67 532.839 175.487C534.677 174.264 534.999 172.689 534.485 171.105C533.971 169.525 533.161 168.498 533.161 168.498C537.419 170.396 537.781 176.688 532.935 177.994C532.878 178.011 532.822 178.024 532.757 178.037L533.27 179.421C536.213 178.634 538.399 175.77 538.19 172.167C537.933 167.915 533.183 162.771 526.191 163.816C516.26 165.3 515.176 168.607 500.108 168.69C505.768 170.087 512.886 168.563 519.112 167.658C519.112 167.658 505.485 171.475 496.486 169.943C487.478 168.416 486.529 167.171 486.529 167.171C490.317 168.181 492.746 168.198 496.081 167.915C491.793 167.628 486.068 165.896 483.812 164.869C484.391 166.405 484.326 167.31 484.052 168.324C489.381 170.409 491.971 170.948 496.355 172.071C494.862 172.415 485.889 170.374 483.825 169.538C483.634 170.074 483.029 170.853 483.421 171.027C486.342 172.337 490.413 173.951 496.76 174.421C509.9 175.387 516.853 172.232 522.268 169.978C527.68 167.724 531.228 168.886 532.443 170.752C533.492 172.354 533.079 174.234 531.638 175.03H531.646ZM526.496 176.928L526.648 176.501C526.135 176.197 525.825 175.975 525.825 175.975C525.825 175.975 526.052 176.388 526.496 176.928ZM429.94 179.434C431.655 177.724 432.038 175.048 429.6 171.705C429.6 171.705 429.278 173.324 428.007 174.19L427.262 172.171C427.101 171.671 426.635 171.301 426.087 171.301C425.538 171.301 425.072 171.666 424.92 172.171L424.332 173.764C423.553 172.48 424.263 170.309 426.283 169.978C428.355 169.634 430.541 171.114 433.767 172.589C439.823 175.365 446.297 176.432 452.44 176.44C447.955 190.114 444.52 203.805 442.988 214.78C437.877 200.945 432.892 187.437 429.944 179.439L429.94 179.434ZM427.31 181.014C427.489 180.953 427.663 180.883 427.841 180.81C431.037 189.452 436.422 204.061 441.808 218.631C436.292 221.643 431.599 224.175 427.31 226.399V181.014ZM424.067 181.536C424.332 181.536 424.598 181.528 424.855 181.51V227.666C417.453 231.456 411.093 234.393 403.391 237.501C410.535 218.187 419.421 194.126 424.067 181.541V181.536ZM392.542 259.747H390.508C393.025 271.445 401.249 279.6 411.328 283.626C400.94 290.084 391.91 295.554 386.638 298.618C381.492 297.93 387.3 261.732 388.941 252.362C389.102 251.409 392.441 249.581 397.109 247.449C395.263 252.427 393.682 256.679 392.537 259.747H392.542ZM424.859 259.747H395.154C396.469 256.209 398.219 251.479 400.235 246.056C408.602 242.392 419.456 238.197 424.846 235.847L424.863 235.838V259.752L424.859 259.747ZM448.547 259.747H427.31V234.837C437.154 231.13 443.145 232.627 447.411 233.802C450.498 242.161 453.306 249.734 455.322 255.169C453.162 256.649 450.885 258.181 448.547 259.743V259.747ZM530.645 259.747V181.51C530.915 181.528 531.176 181.536 531.442 181.536C538.49 200.636 555.243 246.03 560.346 259.747H530.641H530.645ZM498.493 259.747C504.78 242.849 521.019 198.83 527.663 180.81C527.841 180.883 528.015 180.953 528.194 181.014V259.747H498.489H498.493ZM448.034 264.125C448.034 264.125 410.457 263.773 405.315 263.594C400.178 263.416 396.817 263.063 396.817 263.063C396.817 263.063 400.269 277.411 413.831 280.51C427.384 283.608 440.585 279.357 440.585 279.357C440.585 279.357 428.891 280.775 421.977 278.121C415.072 275.462 416.395 273.425 412.847 272.894C409.308 272.363 407.801 266.34 416.043 266.871C424.284 267.402 442.004 265.013 448.038 264.125H448.034ZM551.351 264.147C551.351 264.147 513.783 263.794 508.65 263.616C503.504 263.438 500.134 263.085 500.134 263.085C500.134 263.085 503.182 278.29 519.543 281.859C535.904 285.427 546.484 279.378 546.484 279.378C546.484 279.378 532.212 280.797 525.299 278.138C518.389 275.483 519.722 273.447 516.182 272.916C512.634 272.385 511.123 266.362 519.369 266.893C527.61 267.424 545.33 265.035 551.356 264.147H551.351ZM380.464 246.613C380.464 246.613 377.06 252.027 375.867 256.248C374.674 260.47 372.658 265.335 372.658 265.335C372.658 265.335 373.207 256.705 375.318 251.383C377.43 246.061 378.479 244.129 380.464 246.609V246.613ZM397.54 306.721C398.637 306.373 400.291 304.802 402.128 303.579C403.957 302.36 403.957 300.785 405.433 300.437C406.9 300.084 408.367 296.42 409.286 303.757C410.205 311.094 414.245 338.35 413.326 344.634C412.408 350.918 412.046 350.918 411.31 351.797C410.57 352.667 411.672 348.999 410.94 341.487C410.205 333.976 410.753 330.308 409.286 324.363C407.819 318.427 407.819 317.727 407.636 316.156C407.457 314.585 406.717 310.912 406.539 309.693C406.347 308.466 405.063 307.944 405.063 307.944C405.063 307.944 405.25 311.96 405.62 318.075C405.99 324.193 407.636 325.586 407.457 329.429C407.27 333.276 407.27 335.021 407.457 336.94C407.636 338.868 408.006 340.086 408.006 340.086C408.006 340.086 405.063 332.749 403.783 327.331C402.49 321.917 402.316 321.917 402.49 319.472C402.673 317.026 401.484 315.368 401.484 315.368C401.484 315.368 401.027 310.82 399.83 311.255C398.637 311.695 398.267 308.113 394.597 307.939C390.931 307.765 388.632 308.2 388.632 308.2C388.632 308.2 390.561 306.982 394.509 305.581C398.458 304.184 399.377 302.26 401.023 301.999C402.673 301.738 403.047 301.211 403.047 301.211C403.047 301.211 398.824 304.793 397.54 306.712V306.721ZM389.276 360.357C388.802 360.905 388.162 361.484 387.478 362.08H387.47C385.367 363.904 382.755 365.914 382.755 367.855C382.737 370.941 377.029 372.216 374.818 374.065C372.61 375.915 366.52 382.142 362.466 385.071C358.404 387.995 356.01 389.405 354.717 390.432C353.428 391.464 351.678 391.99 351.678 391.99C351.678 391.99 352.967 389.945 356.467 387.804C364.87 382.664 363.79 377.338 364.029 374.17C364.208 371.676 364.029 371.345 364.674 369.457C364.948 368.656 367.316 360.183 368.897 352.994C371.043 343.202 372.51 334.068 372.51 334.068C372.576 334.002 374.073 330.956 374.091 331.713C374.186 339.499 375.075 336.365 371.605 350.026C369.976 356.406 369.911 366.406 369.689 367.215C369.132 369.187 369.471 374.535 369.188 375.48C369.188 375.501 371.026 374.957 372.415 366.933C373.059 363.203 373.059 362.285 372.885 360.836C372.698 359.387 375.371 354.743 376.059 354.726C376.755 354.713 374.914 362.72 374.914 366.114C374.914 369.509 374.448 371.345 376.019 370.562C377.591 369.779 377.443 367.864 378.188 367.616C378.227 367.603 381.527 364.165 381.318 360.226C381.239 358.716 381.827 356.188 382.289 355.827C382.755 355.466 382.933 361.049 382.846 362.433C382.781 363.429 387.095 363.368 383.303 347.341C382.48 343.837 383.577 343.833 383.577 343.833C384.222 345.548 386.664 350.892 388.349 354.795L388.366 354.808C389.076 356.445 390.269 357.424 390.678 357.154C391.092 356.889 392.25 357.063 392.25 357.063C392.25 357.063 391.183 357.659 390.678 358.668C390.469 359.082 389.886 359.739 389.276 360.361V360.357ZM406.904 356.162C405.62 355.631 398.615 357.058 395.907 352.036C393.19 347.019 393.042 346.61 391.536 344.995C388.811 342.079 388.205 338.607 386.029 335.539C386.029 335.539 387.618 348.094 391.444 351.675C395.267 355.261 394.862 357.324 399.725 359.217C404.375 360.596 409.36 360.139 410.91 358.943C412.46 357.75 412.216 357.75 412.943 356.279C413.683 354.813 413.513 354.173 413.513 354.173C413.513 354.173 409.682 357.567 406.904 356.157V356.162ZM372.545 295.245C372.545 295.245 372.724 322.413 368.126 335.26C363.999 346.805 357.312 359.456 357.764 371.881C357.764 371.881 352.466 361.876 353.881 353.799C354.678 349.216 358.37 341.527 353.807 329.202C353.807 329.202 360.259 335.169 359.902 340.674C359.549 346.179 358.936 349.395 358.936 349.395C358.936 349.395 364.064 340.034 362.466 334.982C360.869 329.933 361.578 330.303 361.404 324.154C361.226 318.005 361.935 317.914 361.583 313.688C361.23 309.471 360.525 307.539 360.525 307.539C360.525 307.539 359.114 313.135 358.583 318.001C358.052 322.866 358.143 322.866 358.143 322.866C358.143 322.866 355.844 316.808 356.019 304.693C356.197 292.577 356.019 285.423 356.019 285.423C356.019 285.423 352.57 300.467 353.454 309.193C354.342 317.914 354.512 319.659 354.512 319.659C354.512 319.659 351.508 322.592 350.272 311.952C349.035 301.307 348.504 293.687 348.504 293.687C348.504 293.687 346.728 311.029 346.819 316.995C346.906 322.962 344.877 329.111 344.965 332.692C345.052 336.27 345.052 337.005 345.052 337.005C345.052 337.005 338.247 331.222 338.073 314.889C337.894 298.552 339.396 292.49 340.28 277.168C341.168 261.836 341.246 255.6 344.612 254.042C347.973 252.48 350.755 256.396 352.431 256.118C354.116 255.844 353.541 258.716 352.923 263.307C352.3 267.894 351.421 282.947 351.421 282.947C351.904 279.67 356.759 260.069 357.063 255.565C357.233 253.167 359.815 253.855 360.259 252.658C360.703 251.466 361.935 250.273 364.678 250.913C367.421 251.557 366.711 250.639 369.232 250.36C371.757 250.091 373.168 249.172 372.371 251.096C371.579 253.024 366.711 280.51 366.711 287.851C366.711 295.193 366.633 297.673 366.711 298.13C366.807 298.592 366.189 291.89 369.014 284.178C371.835 276.471 371.226 275.919 372.811 271.793C374.4 267.659 374.143 266.375 375.197 263.803C376.254 261.236 376.254 261.144 376.254 261.144C376.254 261.144 377.317 266.649 375.728 272.894C374.139 279.139 372.28 280.971 371.831 286.38C371.396 291.794 372.541 295.236 372.541 295.236L372.545 295.245ZM268.901 267.293C268.901 267.293 270.368 268.76 273.586 269.769C276.803 270.783 278.545 271.423 278.545 271.423C278.545 271.423 273.673 276.837 272.576 280.048C271.47 283.26 269.916 284.914 269.916 284.914C270.682 276.014 272.867 275.227 268.901 267.293ZM255 1094.29C262.532 1103.46 270.064 1106.59 270.064 1106.59C270.064 1106.59 269.881 1106.59 267.308 1100.7C264.735 1094.84 268.226 1081.61 264.552 1072.43C260.873 1063.25 257.939 1059.22 255.74 1031.87C253.537 1004.52 255.553 974.782 257.577 948.902C259.602 923.017 261.243 917.334 264.648 907.603C268.044 897.868 265.471 886.762 265.471 886.762C265.471 886.762 265.1 887.78 264.373 890.161C263.633 892.546 262.81 892.92 260.15 897.781C257.49 902.646 257.294 910.81 257.294 910.81C253.119 898.316 260.738 891.719 263.18 885.296C266.097 877.623 265.196 874.285 262.632 864.002C260.055 853.727 262.075 830.232 251.796 779.198C241.508 728.173 237.106 649.979 237.106 649.979C237.106 649.979 230.946 658.331 233.153 679.259C235.356 700.186 230.58 713.033 233.523 725.514C235.151 732.438 197.392 724.644 224.89 651.359C222.204 654.684 218.276 661.211 214.188 668.919C212.974 680.912 212.046 689.307 211.594 691.626C210.514 697.292 205.281 700.121 199.752 700.743C188.728 731.498 183.042 770.242 184.492 777.092C196.003 759.685 195.367 730.427 202.12 724.961C202.12 724.961 199.913 745.524 195.324 762.23C190.735 778.933 188.345 799.129 184.126 825.741C179.903 852.352 176.416 878.964 173.66 883.559C173.203 884.316 191.78 843.213 193.957 816.441C195.276 800.191 211.668 759.297 211.668 759.297C211.668 759.297 202.116 809.587 206.709 814.909C211.306 820.227 219.805 819.692 213.74 831.981C207.675 844.28 198.08 872.183 187.061 889.987C176.046 907.79 168.697 914.401 164.474 920.088C160.251 925.781 176.96 914.213 191.284 894.756C205.612 875.299 203.221 870.53 209.277 860.059C215.333 849.598 219.195 842.078 219.195 842.078C216.252 853.845 214.576 857.561 221.768 871.087C224.881 876.953 226.322 875.299 218.79 890.348C211.267 905.401 195.498 939.915 187.056 967.445C178.61 994.975 178.153 1008.74 184.3 1023.62C190.452 1038.48 186.138 988.59 197.893 962.671C209.639 936.752 209.835 935.877 220.475 912.381C231.129 888.881 234.072 882.271 234.072 882.271C234.072 882.271 231.494 902.655 226.357 919.714C221.22 936.782 214.241 947.257 217.175 957.901C220.109 968.546 222.687 991.859 228.381 1005.99C234.072 1020.12 235.913 1031.87 237.38 1041.04C238.848 1050.23 237.01 1065.47 237.01 1065.47C237.529 1055.33 225.225 1009.74 218.642 998.83C222.208 1011.98 216.883 1045.53 222.317 1058.49C227.088 1069.87 229.479 1073.36 232.234 1075.55C234.99 1077.76 228.194 1069.32 227.088 1063.08C225.991 1056.84 225.991 1052.98 226.718 1052.24C227.458 1051.51 228.194 1064.17 230.58 1067.3C232.966 1070.41 238.66 1073.36 240.311 1081.43C241.965 1089.51 241.408 1093.36 245.818 1094.28C250.228 1095.19 252.984 1091.34 255 1094.28V1094.29ZM21.6029 1012.6C21.6029 1012.6 10.218 1002.87 12.2382 996.994C14.2583 991.127 9.11656 994.061 7.64501 985.248C6.17782 976.44 3.60479 970.752 6.17782 967.445C8.75085 964.142 13.5225 965.978 29.6877 958.624C45.8443 951.291 46.0271 951.104 68.6097 935.32C91.201 919.536 95.4241 914.396 95.4241 914.396C95.4241 914.396 97.6271 928.897 77.9789 941.378C58.3307 953.854 52.636 962.849 44.3771 968.363C36.1138 973.868 26.3746 983.599 23.0745 983.969C19.77 984.33 28.1248 984.421 32.8006 980.479C37.4852 976.531 39.6925 975.892 40.3325 975.522C40.9769 975.152 35.2866 978.912 35.4651 987.45C35.6523 995.984 36.4751 1000.02 29.3133 1000.94C22.1559 1001.86 20.5929 1002.13 20.5929 1002.13C20.5929 1002.13 18.1113 1005.99 21.6029 1012.6ZM31.6077 949.829C31.6077 949.829 26.6489 942.3 31.6077 936.425C36.5666 930.55 40.4239 927.613 45.1999 920.088C49.9716 912.56 50.7073 907.329 53.5503 907.603C56.3976 907.882 58.1435 908.978 59.7935 908.978C61.4435 908.978 59.3364 911.363 55.1133 914.118L50.8902 916.868C50.8902 916.868 61.1736 915.214 73.2072 906.045C85.2278 896.863 86.7951 895.762 92.3896 889.891C97.9884 884.016 100.104 881.718 100.104 881.718C100.104 881.718 95.6026 895.67 81.9233 906.685C68.2397 917.695 51.9003 924.945 48.2257 928.157C44.5469 931.368 43.1755 931.921 43.1755 931.921C43.1755 931.921 53.3631 928.979 59.4278 925.224C65.4838 921.459 65.3923 920.815 69.9855 917.786C74.5743 914.762 76.3201 913.935 76.3201 913.935C76.3201 913.935 63.468 929.079 53.916 933.118C44.3684 937.156 35.2779 940.638 33.9935 942.474C32.7092 944.311 31.5163 945.229 31.6077 949.824V949.829ZM307.875 630.527C307.875 630.527 301.637 681.191 290.252 720.47C278.867 759.754 274.457 779.577 271.883 789.494L269.31 799.399C269.31 799.399 288.41 772.601 293.917 757.182C299.425 741.764 305.302 732.586 305.302 732.586C305.302 732.586 291.715 747.269 290.613 751.677C289.507 756.081 291.344 732.22 300.531 720.836C309.717 709.456 310.44 698.441 319.26 678.614C328.072 658.792 328.808 650.715 328.808 650.715C328.808 650.715 318.159 671.456 311.728 683.206C305.302 694.947 302.729 697.519 302.729 697.519C302.729 697.519 313.017 648.696 307.871 630.518L307.875 630.527ZM340.193 683.758C340.193 683.758 341.66 735.889 337.437 754.062C333.214 772.226 334.503 782.514 335.051 790.038C335.6 797.567 335.238 797.746 335.238 797.746C335.238 797.746 330.65 786.187 330.375 778.467C330.101 770.764 328.808 766.452 328.808 766.452C328.808 766.452 324.859 776.635 327.245 785.077C329.631 793.524 335.965 810.962 331.938 834.823C327.889 858.693 326.797 870.251 322.569 876.313C318.346 882.375 309.347 894.665 302.185 917.242C295.023 939.824 295.023 941.66 295.023 941.66C295.023 941.66 289.137 926.607 297.039 911.002C304.932 895.396 304.197 894.848 310.81 887.323C317.423 879.795 316.23 877.684 313.931 877.41C311.633 877.136 300.718 883.294 300.074 890.078C299.429 896.867 299.704 899.252 299.704 899.252C299.704 899.252 290.334 891.362 294.009 884.752C301.985 870.412 311.232 879.521 311.633 851.9C311.633 851.9 306.587 867.962 301.536 871.074C296.491 874.203 291.249 880.626 290.7 882.65C290.152 884.665 290.152 885.126 290.152 885.126C290.152 885.126 287.618 879.582 290.021 874.49C290.086 874.425 292.955 871.814 294.78 864.019C296.612 856.121 304.876 848.779 305.246 840.702C305.607 832.63 306.521 824.914 306.521 824.914C306.521 824.914 304.514 830.902 302.668 839.423C300.827 847.939 291.854 850.655 290.644 864.964C288.863 863.232 286.451 859.602 287.853 853.375C289.964 844.018 284.823 853.192 291.07 824.553C297.313 795.918 298.963 796.658 301.715 784.908C304.471 773.158 304.471 768.21 304.471 768.21C304.471 768.21 309.617 778.114 307.963 784.359C306.312 790.596 305.938 800.326 306.312 802.163C306.674 803.995 309.247 779.951 313.296 773.528C317.327 767.104 319.535 765.816 319.713 752.417C319.905 739.018 318.429 731.489 318.429 731.489C318.429 731.489 323.205 739.205 323.388 747.834C323.575 756.46 325.956 759.389 325.956 759.389C325.956 759.389 325.038 745.807 328.159 732.407C331.281 719.008 327.428 711.484 329.626 698.998C331.834 686.517 334.398 677.344 335.504 665.777C336.61 654.214 337.158 651.272 337.158 651.272L340.189 683.763L340.193 683.758ZM180.944 695.987C164.252 717.755 144.172 763.114 140.058 791.879C135.652 822.716 142.261 872.636 137.855 888.055C133.449 903.473 131.982 904.579 131.982 904.579C131.982 904.579 150.346 873.006 148.139 847.304C145.936 821.611 151.447 799.212 162.096 780.491C172.746 761.769 175.136 755.346 175.314 750.759C175.502 746.163 175.502 742.86 175.502 742.86C175.502 742.86 171.096 756.081 163.747 765.255C156.402 774.437 150.529 785.813 150.529 785.813C150.529 785.813 152.545 763.78 163.568 745.437C171.609 732.033 181.018 715.809 191.292 699.956C189.93 699.508 188.711 698.907 187.727 698.158L180.948 695.983L180.944 695.987ZM97.8273 1055.94C97.8273 1055.94 93.0557 1079.25 101.315 1093.01C109.582 1106.78 114.354 1110.27 120.78 1108.07C127.21 1105.86 119.313 1098.52 123.353 1088.98C127.393 1079.43 138.23 1076.49 136.575 1090.44C134.925 1104.39 134.006 1109.71 144.103 1105.49C154.203 1101.28 166.69 1099.62 160.629 1107.33C154.569 1115.03 136.941 1122.93 135.835 1131.37C134.734 1139.82 139.144 1145.5 140.428 1146.24C141.713 1146.98 131.982 1135.96 147.773 1126.97C163.568 1117.97 169.628 1106.96 167.421 1099.61C165.222 1092.27 159.345 1091.17 155.67 1087.14C151.996 1083.09 149.244 1080.9 149.244 1080.9C149.244 1080.9 152.919 1090.62 156.585 1092.64C160.264 1094.66 160.995 1096.49 160.995 1096.49C160.995 1096.49 152.545 1092.64 147.037 1096.13C141.53 1099.61 139.688 1096.13 141.164 1088.23C142.631 1080.34 144.838 1079.61 135.835 1072.08C126.84 1064.56 120.414 1063.09 117.105 1046.75C113.805 1030.42 111.781 1027.11 134.916 987.468C158.056 947.823 163.198 932.765 163.198 932.765C163.198 932.765 125.739 994.805 113.618 1013.89C101.497 1032.98 108.472 1050.79 113.252 1062.71C118.024 1074.65 120.78 1077.96 120.78 1077.96C120.78 1077.96 116.187 1083.09 118.577 1092.46C120.963 1101.82 121.942 1105.66 117.293 1106.41C112.643 1107.16 94.3357 1086.22 97.8273 1055.93V1055.94ZM36.8583 1023.08C36.8583 1023.08 33.0009 1034.28 40.1627 1037.4C47.3245 1040.52 51.1819 1035.38 62.0139 1043.46C72.8502 1051.54 78.1748 1057.41 81.1092 1065.11C84.0479 1072.82 80.0077 1053.92 75.0532 1048.23C70.0943 1042.55 72.6674 1039.79 75.9718 1033C79.2763 1026.2 74.5003 1013.36 80.7435 1002.89C86.991 992.433 87.9096 985.827 88.4582 971.51C89.0111 957.188 93.7827 939.014 93.7827 939.014C93.7827 939.014 85.1537 955.908 83.1336 968.206C81.1135 980.505 80.565 990.227 74.8703 998.674C69.1801 1007.12 75.4232 1016.66 71.013 1023.82C66.607 1030.98 61.6482 1030.43 59.6281 1033.19C57.6079 1035.95 46.4103 1038.33 42.5485 1033.74C38.6912 1029.15 44.2029 1026.76 43.4672 1023.27C42.7357 1019.78 39.797 1019.42 48.056 1015.01C56.3193 1010.61 62.0139 1006.39 62.0139 1006.39C62.0139 1006.39 50.629 1010.98 42.37 1013.74C34.1067 1016.49 34.1067 1018.68 29.8793 1016.3C25.6606 1013.91 25.2862 1014.28 25.2862 1014.28C25.2862 1014.28 28.4121 1018.88 32.6308 1020.99C36.8539 1023.09 37.1325 1021.81 36.8539 1023.09L36.8583 1023.08ZM254.83 1166.07C254.83 1166.07 250.79 1163.87 248.217 1162.03C245.644 1160.2 244.177 1157.81 247.024 1155.33C249.871 1152.85 257.403 1145.6 263.463 1141.47C269.519 1137.34 274.94 1134.32 279.624 1132.2C284.3 1130.09 286.512 1130.92 287.43 1132.48C288.353 1134.04 293.574 1141.02 297.622 1145.05C301.654 1149.09 308.089 1156.07 311.393 1158.82C314.698 1161.58 316.901 1161.02 314.602 1162.85C312.312 1164.69 315.795 1165.34 317.536 1165.79C319.286 1166.25 321.398 1168.92 317.811 1170.38C314.232 1171.85 308.82 1173.23 306.983 1169.28C305.146 1165.34 304.323 1161.38 301.475 1157.71C298.633 1154.04 297.522 1150.93 296.43 1150.19C295.324 1149.46 298.171 1152.02 295.964 1152.49C293.769 1152.94 295.511 1153.59 297.801 1157.08C300.1 1160.57 304.963 1168.46 305.146 1170.2C305.333 1171.95 302.024 1174.7 299.364 1174.51C296.704 1174.33 295.141 1171.3 293.944 1168C292.751 1164.7 289.903 1159.18 288.985 1156.71C288.066 1154.23 288.253 1152.85 288.066 1152.3C287.879 1151.75 286.904 1154.09 284.762 1153.41C282.624 1152.73 279.624 1152.49 281.64 1154.13C283.656 1155.8 287.792 1161.2 289.716 1165.24C291.645 1169.29 293.939 1172.67 290.822 1174.33C287.7 1175.98 283.107 1176.53 282.01 1174.06C280.904 1171.58 282.733 1171.03 279.624 1164.78C276.494 1158.55 275.127 1156.07 273.464 1155.15C271.818 1154.23 271.997 1156.99 273.464 1158.27C274.931 1159.55 276.59 1161.76 277.417 1166.26C278.249 1170.75 278.61 1172.59 276.594 1173.41C274.578 1174.23 269.798 1174.78 269.432 1171.48C269.062 1168.18 269.432 1166.43 266.676 1162.21C263.921 1157.99 263.276 1157.35 262.001 1157.35C260.725 1157.35 259.145 1158.27 261.356 1160.29C263.555 1162.31 267.225 1166.53 265.945 1169.09C264.665 1171.67 263.002 1171.95 260.246 1171.02C257.499 1170.1 255.844 1168.09 254.834 1166.07L254.83 1166.07ZM123.714 805.109C123.714 805.109 108.659 820.897 109.391 862.379C110.127 903.86 109.025 936.534 102.782 968.102C96.5386 999.679 92.4984 1007.01 92.4984 1007.01C92.4984 1007.01 107.188 986.088 111.228 952.322C115.268 918.543 118.207 907.525 124.08 894.678C129.958 881.832 133.998 883.672 129.958 868.615C125.917 853.562 126.283 845.855 126.283 845.855C126.283 845.855 123.349 853.753 123.349 860.908C123.349 868.062 124.45 875.965 122.056 880.735C119.67 885.504 116.37 891.745 116.37 891.745C116.37 891.745 115.447 833.557 123.71 805.104L123.714 805.109ZM143.976 684.137C148.073 697.375 145.121 712.337 143.737 729.487C143.184 736.28 137.307 753.165 137.307 753.165C137.307 753.165 146.301 739.031 147.773 727.646C149.244 716.266 150.712 710.948 151.817 703.054C152.919 695.16 155.1 687.701 155.1 687.701L143.981 684.133L143.976 684.137ZM196.068 912.494C196.068 912.494 192.028 933.788 179.172 943.332C166.32 952.875 156.768 969.76 145.748 992.155C134.729 1014.54 128.116 1028.9 132.152 1039.53C136.196 1050.16 137.302 1052.73 137.302 1052.73C137.302 1052.73 120.406 1038.41 125.182 1024.46C129.958 1010.51 151.626 964.625 163.011 948.837C174.396 933.048 184.862 917.817 192.572 905.331C200.283 892.846 205.794 882.023 205.794 882.023C205.794 882.023 196.978 902.581 191.101 913.043C185.223 923.505 183.756 929.928 180.264 933.962C176.777 938.005 175.493 938.919 175.493 938.919C175.493 938.919 187.709 932.308 196.064 912.49L196.068 912.494ZM269.062 1115.04C269.062 1115.04 241.882 1116.14 224.99 1097.42C208.093 1078.7 207.366 1065.11 205.89 1045.66C204.423 1026.2 208.463 1000.88 208.463 1000.88C208.463 1000.88 199.281 1027.67 200.017 1042.35C200.749 1057.04 198.92 1063.65 201.484 1068.05C204.053 1072.46 195.977 1058.88 193.404 1048.23C190.831 1037.58 190.831 1036.11 190.831 1036.11C190.831 1036.11 184.958 1059.98 192.302 1067.69C199.647 1075.4 200.013 1077.23 205.154 1087.15C210.296 1097.06 218.377 1109.54 243.719 1115.04C269.062 1120.54 275.85 1118.9 279.35 1120.18C282.833 1121.46 273.285 1114.85 269.062 1115.04ZM151.352 1148.82C151.352 1148.82 159.615 1154.32 163.655 1144.59C167.7 1134.86 171.187 1128.07 183.491 1133.4C195.79 1138.72 204.423 1133.58 205.342 1133.58C206.26 1133.58 199.281 1139.63 192.302 1140.92C185.323 1142.21 171.918 1139.45 171.918 1139.45C171.918 1139.45 174.491 1148.45 183.856 1150.83C193.221 1153.22 194.135 1153.96 193.957 1155.97C193.77 1157.99 193.404 1159.65 193.404 1159.65C193.404 1159.65 199.281 1148.82 204.972 1145.14C210.671 1141.47 221.311 1138.72 232.517 1138.17C243.719 1137.61 249.41 1135.78 249.41 1135.78C249.41 1135.78 239.131 1146.06 230.859 1151.57C222.604 1157.08 222.974 1156.89 217.097 1158.9C211.219 1160.93 236.196 1157.08 242.252 1150.65C248.308 1144.22 252.719 1140.36 259.145 1135.05C265.571 1129.72 267.225 1128.44 267.225 1128.44C267.225 1128.44 259.515 1128.44 243.719 1131.2C227.924 1133.94 222.604 1133.21 214.885 1135.59C207.179 1137.98 206.443 1138.35 206.443 1138.35C206.443 1138.35 214.519 1133.4 217.458 1132.66L220.392 1131.92C220.392 1131.92 202.033 1133.21 194.688 1128.44C187.339 1123.67 183.852 1128.07 183.486 1115.03C183.116 1102 187.892 1107.51 181.283 1093.19C174.67 1078.87 165.305 1066.76 165.305 1066.76C165.305 1066.76 179.629 1090.8 179.816 1099.06C179.999 1107.33 177.796 1113.37 179.446 1119.62C181.1 1125.86 182.572 1128.06 182.572 1128.06C182.572 1128.06 172.654 1119.62 166.781 1129.16C160.904 1138.72 160.938 1148.66 151.352 1148.8V1148.82ZM171.923 982.694C171.923 982.694 163.111 998.852 163.477 1023.81C163.842 1048.78 170.09 1056.11 178.17 1068.97C186.251 1081.82 186.251 1082.92 186.251 1082.92C186.251 1082.92 179.638 1064.19 174.5 1048.78C169.358 1033.35 166.785 1010.22 171.927 982.689L171.923 982.694ZM150.99 1011.52C150.99 1011.52 142.54 1026.93 141.804 1036.49C141.073 1046.03 143.088 1044.38 141.804 1049.51C140.52 1054.66 140.52 1054.84 140.52 1054.84C140.52 1054.84 144.007 1045.66 144.007 1043.46C144.007 1041.26 146.58 1053.92 146.397 1062.73C146.21 1071.54 156.498 1076.86 161.274 1083.29C166.045 1089.71 166.594 1090.81 166.594 1090.81C166.594 1090.81 165.492 1081.82 158.696 1074.66C151.905 1067.5 150.25 1066.58 149.331 1057.78C148.417 1048.96 148.604 1048.04 148.417 1043.09C148.23 1038.13 148.604 1036.48 149.331 1033.36C150.067 1030.25 150.254 1029.69 150.254 1029.69C150.254 1029.69 146.767 1032.07 145.94 1034C145.113 1035.93 144.93 1036.76 144.93 1036.76C144.93 1036.76 144.93 1032.26 146.401 1029.33C147.869 1026.39 150.259 1016.01 150.995 1011.52H150.99ZM268.788 922.038C268.788 922.038 265.109 955.073 269.519 968.289C273.93 981.497 278.34 993.103 279.798 996.554C280.813 998.956 279.219 1002.7 277.204 1004.17C274.317 1006.28 274.108 1011.27 274.382 1012.98C274.844 1015.82 267.408 1012.61 265.753 1007.11C264.103 1001.6 263.551 1000.13 263.551 1000.13C263.551 1000.13 267.221 1008.58 269.607 1008.39C271.992 1008.2 269.428 1005.82 271.448 1003.26C273.464 1000.68 275.763 1000.41 273.93 995.083C272.092 989.765 263.093 978.929 263.093 958.559C263.093 938.188 266.028 931.203 268.788 922.034V922.038ZM260.159 1003.9C260.159 1003.9 265.658 1015.46 269.885 1020.24C274.113 1025.01 273.742 1025.74 273.934 1028.68C274.113 1031.62 271.178 1030.7 266.772 1023.17C262.362 1015.64 261.443 1012.34 260.159 1003.9ZM263.459 1043.37C263.459 1043.37 262.998 1052.09 267.965 1055.11C272.915 1058.14 273.93 1056.3 276.316 1057.68C278.701 1059.06 279.428 1055.75 279.711 1055.11C279.986 1054.47 272.092 1054.75 269.794 1052.08C267.499 1049.42 266.489 1047.95 266.489 1047.95C266.489 1047.95 263.677 1047.07 263.459 1043.36V1043.37ZM274.853 1085.21C274.853 1085.21 276.69 1082.45 279.803 1079.16C282.933 1075.85 285.497 1074.75 283.482 1070.71C281.457 1066.68 281.457 1065.03 281.457 1065.03C281.457 1065.03 281 1068.42 281.544 1070.71C282.102 1073.01 282.367 1074.07 281.27 1074.48C280.19 1074.89 280.19 1075.61 278.98 1076.96C279.428 1075.74 279.624 1075.3 279.711 1073.19C279.798 1071.08 280.904 1073.01 279.254 1070.26C277.604 1067.5 277.604 1068.61 277.604 1066.68C277.604 1064.75 277.791 1062.46 277.791 1062.46C277.791 1062.46 273.743 1064.57 274.761 1067.97C275.767 1071.37 277.243 1074.94 276.141 1077.33C275.036 1079.71 274.117 1083.29 274.861 1085.22L274.853 1085.21ZM281.884 1089.9C284.409 1088.1 283.503 1084.86 285.302 1086.3C287.1 1087.75 295.559 1095.29 299.155 1097.27C306.831 1101.49 305.977 1102.68 305.59 1104.6C305.076 1104.35 300.309 1101.53 300.648 1102.13C300.892 1102.54 304.715 1105.1 305.546 1105.82C307.523 1107.53 309.769 1108.33 310.044 1110.04C310.313 1111.75 308.785 1113.72 307.074 1113.01C305.368 1112.3 303.108 1109.59 300.866 1107.7C298.615 1105.82 301.406 1107.97 298.528 1105.91C295.65 1103.84 294.305 1102.66 292.951 1102.58C291.601 1102.49 292.498 1102.23 295.837 1105.45C299.159 1108.69 298.619 1108.51 301.41 1110.94C304.192 1113.36 306.717 1114.26 306.352 1116.51C305.995 1118.76 304.288 1120.74 301.584 1120.29C298.885 1119.84 294.836 1118.31 290.887 1115.07C286.93 1111.83 286.564 1109.14 283.961 1107.16C281.357 1105.19 278.292 1103.74 278.114 1101.32C277.696 1095.66 276.05 1094.07 281.888 1089.9L281.884 1089.9ZM254.46 646.428C254.46 646.428 257.033 683.871 257.764 709.203C258.496 734.535 258.496 733.43 259.602 750.685C260.385 763.04 263.82 791.531 264.378 789.603C265.571 785.469 261.805 756.56 264.016 741.141C266.215 725.723 268.418 718.016 270.625 711.775C272.82 705.53 273.19 704.799 273.19 704.799C273.19 704.799 270.625 720.953 269.524 737.107C268.418 753.261 266.816 768.91 268.144 768.675C269.476 768.44 273.19 721.689 279.428 710.304C285.667 698.929 283.839 697.092 287.509 679.837C291.188 662.582 290.452 656.346 293.756 648.635C297.061 640.928 299.264 631.75 300.004 630.096C300.727 628.451 292.651 638.908 290.635 645.514C288.61 652.125 288.249 653.774 288.61 652.303C288.98 650.837 288.61 642.764 289.716 638.169C290.822 633.582 291.732 629.543 291.732 629.543C291.732 629.543 290.448 629.178 288.61 633.399C286.777 637.616 287.696 635.418 284.757 649.918C281.814 664.423 279.798 675.986 277.413 683.876C275.027 691.77 273.372 694.707 272.267 698.746C271.169 702.784 271.535 693.789 273.734 685.16C275.941 676.534 276.86 678.371 278.144 672.126C279.424 665.885 280.169 660.563 280.169 660.563C280.169 660.563 270.987 680.938 268.784 691.77C266.576 702.597 266.211 706.27 265.849 709.573C265.479 712.876 263.455 714.9 262.719 717.65C261.988 720.405 262.17 712.511 261.439 700.578C260.708 688.645 260.15 685.525 259.044 669.928C257.947 654.323 254.643 649.244 254.456 646.428H254.46ZM276.302 645.31C276.302 645.31 275.336 655.458 271.866 662.112C268.396 668.766 267.608 673.092 266.015 680.742C264.417 688.393 265.645 698.372 265.645 698.372C265.645 698.372 268.34 678.58 273.303 667.274C278.283 655.963 278.388 647.647 279.35 643.156C280.317 638.665 279.398 632.677 279.398 632.677L276.302 645.314V645.31ZM287.753 786.3C287.753 786.3 279.302 821.537 276.72 834.758C274.156 847.974 277.09 862.292 277.09 862.292C277.09 862.292 278.009 842.104 280.221 831.268C282.415 820.436 293.251 788.132 296.007 777.488C298.763 766.843 299.312 765.559 299.312 765.559C299.312 765.559 292.703 781.526 287.748 786.305L287.753 786.3ZM277.156 1048.3C277.156 1048.3 281.679 1045.47 277.865 1042.83C274.06 1040.21 273.133 1040.98 266.851 1034.15C260.56 1027.33 258.513 1021.17 258.513 1021.17C258.513 1021.17 259.946 1031.52 263.964 1035.61C267.978 1039.71 272.506 1043.45 273.172 1044.67C273.843 1045.88 274.252 1046.18 274.252 1046.18C274.252 1046.18 271.831 1044.56 269.463 1043.11C267.094 1041.64 266.058 1040.27 266.058 1040.27C266.058 1040.27 267.769 1044.82 271.622 1046.33C275.484 1047.84 276.895 1049.62 278.588 1051.18C280.29 1052.74 280.491 1052.89 280.491 1052.89C280.491 1052.89 280.748 1049.82 279.716 1049.04C278.693 1048.25 279.572 1047.28 279.572 1047.28C279.572 1047.28 278.07 1048.69 277.151 1048.3L277.156 1048.3ZM165.283 444.36C162.967 458.982 170.913 461.141 174.065 462.964C174.065 462.964 173.002 460.975 170.843 456.941C168.679 452.903 168.923 451.802 168.923 451.802C168.923 451.802 172.724 457.403 175.332 462.264C177.935 467.129 179.167 468.321 179.167 468.321C179.167 468.321 177.038 457.215 173.307 452.537C169.576 447.855 166.515 445.561 165.283 444.365V444.36ZM183.504 477.251C183.504 477.251 181.849 479.453 184.605 480.002C187.365 480.554 183.686 483.857 185.341 484.597C186.991 485.328 189.198 484.41 193.787 484.597C198.376 484.78 201.867 482.939 200.213 484.963C198.559 486.982 192.681 486.429 190.108 488.079C187.539 489.732 187.357 491.382 189.925 491.752C192.498 492.117 196.539 492.117 215.812 493.222C235.099 494.323 289.268 492.491 304.144 490.655C319.021 488.823 328.468 485.467 328.468 485.467C328.468 485.467 327.097 483.592 327.188 482.482C327.275 481.381 328.107 480.65 326.178 481.29C324.254 481.934 319.291 481.842 315.616 482.574C311.946 483.309 311.027 483.309 311.027 483.309C311.027 483.309 314.606 481.568 318.468 481.203C322.321 480.837 321.903 479.823 323.653 479.549C325.395 479.271 327.467 479.183 327.741 478.539C328.016 477.9 328.242 477.991 328.242 476.981C328.242 475.972 328.19 475.415 328.103 474.592C328.016 473.77 328.377 473.217 327.741 473.217C327.106 473.217 313.971 474.775 307.262 475.693C300.561 476.612 279.894 477.713 274.204 478.078C268.514 478.444 267.595 478.444 267.595 478.444C267.595 478.444 266.685 480.463 275.684 480.463H287.979C287.979 480.463 281.736 482.112 264.482 482.665C247.211 483.218 240.102 483.587 237.167 484.319C234.233 485.05 241.168 484.867 252.179 485.42C263.194 485.972 270.351 485.42 268.514 485.785C267.077 486.072 256.532 487.665 244.999 488.092C241.813 488.209 234.921 487.918 231.742 488.035C217.053 488.588 214.572 487.922 214.528 487.439C214.48 486.96 225.726 486.521 228.66 485.42C231.603 484.319 229.766 483.77 233.07 482.665C236.375 481.564 236.466 481.198 241.238 481.198C246.01 481.198 255.849 478.809 255.849 478.809C255.849 478.809 219.853 480.463 204.789 479.362C189.738 478.257 183.491 477.251 183.491 477.251H183.504ZM233.767 496.895C233.767 496.895 236.797 497.078 238.36 497.078C239.923 497.078 238.264 504.415 241.482 515.835C244.699 527.249 242.313 545.823 246.532 558.326C250.755 570.828 251.312 573.731 251.312 573.731C251.312 573.731 252.227 564.305 249.288 555.967C246.345 547.633 245.618 532.955 245.618 532.955C245.618 532.955 249.649 547.089 254.059 558.508C258.47 569.923 264.896 583.714 267.273 595.856C269.659 607.997 270.947 610.748 280.595 615.735C291.214 621.236 301.937 628.442 312.264 610.352C310.078 586.834 314.062 579.841 313.74 572.282C313.248 560.854 310.07 560.323 312.634 550.714C315.207 541.11 314.65 539.3 314.65 539.3C314.65 539.3 317.589 547.638 316.309 552.712C315.02 557.786 315.568 562.86 316.487 565.58C317.41 568.296 317.41 568.661 317.41 568.661C317.41 568.661 320.353 557.969 319.247 542.751C318.15 527.528 317.04 525.9 318.511 516.47C319.979 507.048 319.979 505.055 319.979 505.055V500.708C319.979 500.708 322.922 507.414 322.922 519.917C322.922 532.419 326.405 540.026 324.019 554.527C321.633 569.022 320.349 583.34 319.43 591.856C318.511 600.377 319.617 600.195 320.349 604.903C321.085 609.616 322.138 612.523 323.375 612.571C324.615 612.623 326.779 612.515 331.551 610.883C340.306 607.889 347.725 610.996 346.61 619.038C346.61 619.038 346.414 611.244 337.424 613.598C328.425 615.953 326.775 619.399 322.735 617.584C318.694 615.77 319.421 613.233 317.406 612.149C315.39 611.061 315.751 612.693 312.63 616.679C309.508 620.666 303.452 628.455 288.763 624.473C274.073 620.487 270.804 613.563 266.359 616.501C261.866 619.469 272.737 626.636 256.802 630.092C250.455 631.471 246.336 632.624 243.032 629.73C239.727 626.828 235.735 626.828 235.186 630.274C234.629 633.717 234.951 636.075 230.001 636.262C225.033 636.445 219.526 634.626 219.526 634.626C219.526 634.626 230.724 636.441 232.195 632.455C233.536 628.83 232.5 626.366 237.711 624.299C237.711 624.299 242.113 618.32 236.793 602.919C231.468 587.513 225.778 573.683 227.794 565.889C229.809 558.099 231.264 577.278 232.753 535.801C234.276 539.97 236.976 566.677 237.341 577.369C237.711 588.057 239.727 594.585 240.472 599.294C241.194 604.007 241.752 594.041 240.833 588.967C239.914 583.893 245.056 597.122 244.873 607.271C244.695 617.415 244.873 625.392 246.34 627.024C247.808 628.651 252.579 629.017 257.364 626.662C262.136 624.304 263.968 626.101 263.059 621.949C261.935 616.849 263.059 615.496 265.353 613.537C265.353 612.267 262.323 603.28 252.775 587.518C243.227 571.755 241.934 569.758 240.833 553.452C239.727 537.141 240.472 546.202 238.63 529.712C236.793 513.228 236.148 505.577 232.295 503.045C228.442 500.503 225.869 496.978 226.374 496.395C226.875 495.812 231.372 496.234 232.391 497.187C233.397 498.14 235.003 499.541 235.648 500.995C236.292 502.44 236.566 502.579 236.566 502.579C236.566 502.579 236.061 500.407 235.504 499.224C234.955 498.049 233.027 497.143 233.763 496.913L233.767 496.895ZM243.911 497.022C243.911 497.022 248.408 496.586 249.789 498.118C251.169 499.65 249.88 496.861 252.449 500.908C255.022 504.955 255.94 506.308 255.94 506.308C255.94 506.308 255.714 504.607 254.425 502.261C253.136 499.924 251.765 496.408 252.588 496.408C253.411 496.408 255.993 497.718 256.998 497.544C258.004 497.361 260.168 507.161 264.391 515.534C268.605 523.907 271.452 530.261 278.984 546.819C286.516 563.387 285.049 566.446 287.248 570.224C289.451 574.001 282.837 570.585 278.806 555.641C274.757 540.696 269.437 536.558 267.225 531.875C265.022 527.193 263.921 527.014 263.921 527.014C263.921 527.014 268.692 537.628 271.823 543.747C274.944 549.87 273.29 552.394 273.29 552.394C273.29 552.394 269.067 541.232 263.559 536.014C258.056 530.792 260.068 528.45 257.869 523.407C255.666 518.367 256.585 514.046 253.65 510.086C250.698 506.121 245.2 502.057 243.911 497.017V497.022ZM325.316 492.443C325.316 492.443 327.058 494.92 332.652 502.718C338.26 510.525 338.991 514.834 339.636 519.977C340.28 525.113 338.717 527.315 339.178 530.805C339.636 534.291 339.814 534.661 339.814 534.661C339.814 534.661 333.484 527.959 331.921 521.535C330.362 515.108 328.625 513.55 328.625 513.55C328.625 513.55 331.738 528.507 334.124 546.128C336.518 563.748 334.681 570.907 337.067 575.132C339.453 579.358 339.453 585.507 340.189 592.479C340.929 599.455 343.406 602.114 343.406 602.114C343.406 602.114 337.428 603.032 336.706 592.566C335.965 582.104 332.295 572.926 332.295 572.926C332.295 572.926 332.482 585.777 331.925 589.815C331.377 593.854 329.722 600.647 329.722 600.647C329.722 600.647 330.641 590.368 329.174 582.291C327.706 574.21 326.413 572.926 328.442 565.589C330.458 558.243 331.194 542.642 329.174 530.713C327.149 518.781 326.239 507.309 325.225 503.458C324.215 499.607 323.483 497.126 323.483 497.126C323.483 497.126 327.798 505.107 329.997 509.973C332.208 514.838 334.407 515.66 335.691 519.059C336.98 522.454 337.067 522.915 337.067 522.915C337.067 522.915 336.793 515.386 331.834 506.217C326.875 497.035 325.221 493.919 325.321 492.448L325.316 492.443ZM343.924 588.54C344.063 588.862 345.988 592.718 347.002 595.012C348.012 597.305 347.324 599.646 346.584 600.421C345.853 601.204 344.89 601.757 344.89 601.757C344.89 601.757 346.815 599.05 345.761 596.069C344.699 593.088 343.924 588.54 343.924 588.54ZM315.978 492.853C315.978 492.853 318.185 505.703 314.14 521.488C310.109 537.272 306.617 546.819 305.699 555.445C304.78 564.074 303.496 572.147 303.496 572.147C303.496 572.147 299.817 564.44 301.658 555.445C303.496 546.45 306.06 539.844 306.252 536.353C306.43 532.868 306.613 532.136 306.613 532.136C306.613 532.136 302.621 536.723 303.308 541.314C303.992 545.906 299.817 549.988 299.125 549.391C298.445 548.791 301.284 536.54 302.028 529.752C302.755 522.963 304.414 522.776 307.527 519.655C310.653 516.535 311.389 517.266 311.937 512.497C312.495 507.727 313.653 505.321 312.943 506.304C312.242 507.288 311.937 510.847 309.186 513.968C306.426 517.088 305.694 518.05 304.963 517.453C304.227 516.857 307.349 510.847 306.8 505.891C306.252 500.934 307.527 501.121 306.613 498.001C305.694 494.876 304.863 494.419 306.056 494.049C307.248 493.684 309.086 493.775 309.73 493.592C310.374 493.405 310.923 497.539 310.923 499.828C310.923 502.118 310.462 505.247 310.462 505.247C310.462 505.247 311.842 504.972 312.299 501.208C312.76 497.444 313.035 497.996 313.209 495.699C313.405 493.405 313.304 492.304 313.304 492.304L315.965 492.853H315.978ZM260.708 496.708C260.708 496.708 266.036 503.132 267.504 507.723C268.971 512.314 266.585 512.127 271.178 519.29C275.758 526.444 275.758 526.261 280.356 533.42C284.949 540.575 287.888 549.026 289.899 550.492C291.924 551.959 290.639 544.617 293.574 542.233C296.508 539.848 300.361 529.752 300.361 529.752C300.361 529.752 297.427 534.338 293.199 537.646C288.976 540.945 288.998 538.869 287.696 537.276C286.39 535.688 284.574 533.059 283.656 531.223C282.737 529.386 278.336 523.328 278.336 523.328C278.336 523.328 279.433 523.877 283.286 525.713C287.143 527.545 288.245 528.559 291.005 528.833C293.756 529.108 295.964 525.713 297.801 523.694C299.638 521.675 300.914 522.41 302.39 517.819C303.857 513.228 305.011 504.054 304.227 503.045C303.448 502.035 303.121 511.209 299.268 516.535C295.415 521.857 293.574 522.589 288.245 520.021C282.924 517.449 282.737 516.165 280.164 516.165C277.591 516.165 277.043 513.78 276.494 512.127C275.945 510.473 273.002 506.435 273.002 506.435C273.002 506.435 273.368 505.703 280.896 507.536C288.428 509.372 285.306 509.738 287.692 511.117C290.078 512.492 287.779 509.007 290.722 507.901C293.656 506.8 293.199 506.892 295.681 505.699C298.158 504.507 298.889 503.31 298.889 503.31C298.889 503.31 294.392 505.334 291.632 505.608C288.88 505.882 287.779 505.242 287.779 505.242C287.779 505.242 292.825 502.487 295.406 501.752C297.971 501.021 297.422 499.372 299.077 498.54C300.727 497.714 302.02 495.786 302.02 495.786C302.02 495.786 299.712 495.42 296.691 496.43C293.661 497.439 292.102 494.867 290.078 496.43C288.053 497.992 289.246 499.55 286.312 499.55C283.377 499.55 282.829 498.445 281.266 498.54C279.698 498.632 279.054 497.992 277.587 497.257C276.12 496.521 275.475 495.694 275.201 496.521C274.927 497.348 275.75 500.198 273.364 499.646C270.978 499.093 270.429 499.646 269.232 498.91C268.039 498.179 265.562 496.434 260.694 496.708H260.708ZM160.272 424.89C160.272 424.89 163.394 432.784 170.739 437.741C178.836 443.207 187.522 452.559 191.854 439.76C195.894 427.828 194.61 426.174 195.711 419.572C196.813 412.966 200.487 408.188 200.487 408.188C200.487 408.188 200.853 410.211 198.646 421.957C196.447 433.707 199.016 439.395 192.773 445.635C186.529 451.871 184.505 449.674 184.505 452.607C184.505 455.54 185.053 463.073 186.338 464.722C187.622 466.376 191.519 465.497 192.951 465.092C194.383 464.688 194.423 464.905 199.743 454.448C205.072 443.982 208.006 439.943 212.046 431.318C216.087 422.688 218.66 407.087 221.045 404.515C223.44 401.947 220.684 418.832 218.102 426.174C215.538 433.52 215.36 439.208 210.218 449.304C205.072 459.4 203.417 461.785 202.133 465.458C200.849 469.131 204.885 470.049 209.848 468.213C214.807 466.376 225.634 465.458 228.39 466.011C231.15 466.559 227.842 465.641 217.554 469.496C207.275 473.348 204.519 475.367 201.214 472.617C197.91 469.862 196.256 468.765 194.971 469.318C193.687 469.866 195.158 472.438 191.85 473.169C188.545 473.9 187.243 470.584 185.241 469.318C183.234 468.047 182.581 467.294 182.119 459.957C181.658 452.611 181.47 452.246 178.079 449.678C174.679 447.106 174.866 444.996 168.901 440.866C162.928 436.736 162.197 433.711 160.268 424.894L160.272 424.89ZM215.447 472.247C216.004 472.247 218.577 469.766 224.541 470.684C230.506 471.603 232.522 469.035 234.546 467.747C236.571 466.463 235.652 470.41 239.135 469.949C242.635 469.488 244.83 469.309 247.407 469.949C249.971 470.589 244.555 467.468 242.635 462.973C240.702 458.478 240.332 458.756 240.241 454.992C240.149 451.227 238.774 453.521 239.318 450.401C239.875 447.28 237.167 443.425 237.215 441.797C237.254 440.165 239.875 445.718 241.342 450.213C242.81 454.713 244.094 457.464 246.201 460.035C248.313 462.607 249.789 463.983 249.789 463.983C249.789 463.983 245.74 456.732 243.354 450.305C240.968 443.882 241.791 442.963 239.958 438.833C238.121 434.704 233.436 424.886 231.42 418.828C229.396 412.77 224.258 412.218 227.01 411.299C229.766 410.381 234.181 411.665 237.476 415.891C240.789 420.116 237.663 420.482 241.887 430.212C246.11 439.934 245.008 443.977 247.755 450.401C250.516 456.824 251.804 457.189 253.454 461.415C255.109 465.632 255.562 466.55 255.753 461.598C255.932 456.641 255.383 449.944 253.171 442.419C250.973 434.891 252.993 435.992 251.343 429.203C249.688 422.41 248.77 419.107 248.77 419.107C248.77 419.107 252.623 424.525 253.637 430.304C254.639 436.087 254.56 437.193 255.283 438.655C256.027 440.122 255.196 436.174 255.283 434.434C255.379 432.689 255.753 431.775 255.009 429.938C254.277 428.102 254.003 427.828 254.003 427.828C254.003 427.828 260.89 431.039 260.429 437.832C259.976 444.621 260.155 455.727 260.799 459.766C261.448 463.804 262.17 466.742 258.413 467.199C254.639 467.66 253.911 468.391 254.639 469.492C255.379 470.597 256.672 469.492 260.055 471.79C263.459 474.083 266.764 476.651 261.348 475.184C255.927 473.713 251.617 474.91 244.642 474.266C237.659 473.622 237.476 469.949 234.45 471.877C231.42 473.805 229.949 473.896 226.549 473.343C223.153 472.795 222.97 472.982 221.96 472.982C220.95 472.982 220.31 471.607 215.438 472.247H215.447ZM249.153 401.669C249.153 401.669 259.619 406.626 263.285 419.294C266.951 431.958 275.04 444.443 282.563 451.045C290.095 457.655 294.505 457.285 296.891 462.977C299.277 468.669 300.196 471.607 303.687 470.319C307.17 469.035 304.967 467.386 308.089 465.184C311.219 462.977 311.393 462.059 313.048 459.491C314.702 456.92 314.702 455.453 316.909 452.703C319.104 449.948 318.925 447.929 318.925 447.929C318.925 447.929 317.819 447.929 313.966 453.068C310.113 458.208 309.556 458.386 309.556 458.386C309.556 458.386 312.499 453.068 315.072 440.948C317.636 428.833 316.169 428.65 317.636 425.53C319.104 422.405 321.311 418.737 320.579 424.425C319.848 430.121 318.377 437.275 320.579 441.679C322.782 446.088 324.441 442.785 323.331 447.737C322.234 452.698 320.218 454.718 320.767 460.771C321.315 466.829 321.42 467.912 321.685 470.132C321.942 472.347 317.462 470.132 314.702 471.046C311.946 471.964 309.56 470.314 311.219 469.213C312.865 468.108 312.686 467.007 314.885 462.79C317.088 458.569 318.747 455.083 318.747 455.083C318.747 455.083 316.182 466.82 310.766 469.67C305.333 472.516 303.861 473.252 298.72 472.699C293.582 472.147 292.476 472.334 292.476 472.334C292.476 472.334 296.525 471.415 293.034 467.743C289.542 464.07 288.811 461.685 288.811 461.685C288.811 461.685 288.811 464.07 282.197 467.56C275.584 471.046 279.076 472.512 273.56 471.785C268.061 471.046 266.036 471.046 266.036 471.046C266.036 471.046 269.889 471.785 276.686 467.56C283.473 463.338 284.392 460.031 285.497 459.666C286.603 459.3 279.25 454.343 274.295 447.185C269.328 440.03 264.195 431.218 259.78 420.934C255.379 410.66 256.11 410.838 249.135 401.66L249.153 401.669ZM248.413 376.18C248.413 376.18 260.538 383.156 261.822 393.801C263.102 404.441 269.537 401.695 279.633 414.176C289.738 426.657 290.469 423.907 296.713 430.878C302.951 437.854 300.204 438.585 303.147 440.605C306.082 442.624 306.452 443.177 303.87 437.114C301.306 431.057 302.041 430.878 297.814 426.653C293.591 422.431 292.124 424.085 296.164 417.662C300.204 411.234 299.647 408.11 300.753 404.441C301.859 400.772 303.139 398.57 304.066 396.368C304.976 394.162 300.017 398.2 298.55 402.979C297.083 407.744 298.728 411.787 292.672 412.335C286.616 412.883 283.86 411.234 278.536 407.013C273.207 402.792 272.658 402.604 270.455 399.484C268.248 396.364 266.602 393.422 266.602 391.956C266.602 390.489 264.944 389.749 264.944 389.749C264.944 389.749 268.07 390.302 272.846 395.99C277.617 401.682 274.683 395.807 273.024 391.951C271.378 388.1 269.171 387.36 272.846 384.975C276.516 382.59 276.877 380.937 276.877 380.937C276.877 380.937 271.744 386.625 267.33 383.874C262.928 381.124 263.655 379.105 259.623 379.283C255.575 379.47 252.466 376.715 248.417 376.163L248.413 376.18ZM268.435 410.32C270.821 411.165 272.846 418.933 281.649 427.536C290.469 436.144 289.921 437.824 295.615 445.174C301.306 452.52 300.566 450.209 303.321 455.248C306.077 460.284 305.337 449.16 299.098 442.232C292.86 435.304 295.058 436.144 290.099 430.687C285.149 425.225 284.231 423.128 281.1 420.608C277.979 418.088 271.374 410.111 268.431 410.32H268.435ZM265.314 376.546C265.314 376.546 278.714 379.296 289.181 370.671C299.647 362.045 296.343 360.757 301.676 357.824C306.996 354.887 307.732 353.233 310.479 351.584C313.235 349.93 313.783 351.218 313.971 352.689C314.158 354.156 316.365 352.689 318.751 355.439C321.137 358.194 319.478 358.007 321.137 364.617C322.782 371.228 326.087 367.372 323.884 372.512C321.681 377.651 323.697 381.872 324.245 386.642C324.803 391.416 326.457 390.685 324.067 399.493C321.681 408.301 321.681 408.671 321.681 408.671C321.681 408.671 327.376 406.286 327.737 400.041C328.098 393.805 328.294 388.848 330.123 388.3C331.96 387.743 333.436 384.257 333.436 384.257C333.436 384.257 333.244 388.3 331.777 389.492C330.31 390.685 330.41 390.685 330.584 391.416C330.771 392.151 332.243 394.719 331.96 397.195C331.686 399.676 330.767 404.175 330.767 404.175C330.767 404.175 334.629 400.32 335.356 395.176C336.1 390.036 337.015 391.046 337.467 387.926C337.929 384.806 337.015 381.594 338.208 383.792C339.4 385.998 340.04 388.748 340.04 388.748C340.04 388.748 343.902 385.171 344.081 378.926C344.194 375.11 343.741 354.734 334.72 349.743C331.481 347.95 330.406 347.175 326.918 346.166C323.427 345.16 322.417 345.613 319.944 344.882C318.08 344.329 315.394 345.535 313.587 346.518C314.071 345.613 315.159 343.106 319.709 343.367C324.25 343.624 334.86 347.271 336.053 346.718C337.245 346.17 326.361 340.661 320.854 340.752C314.371 340.861 310.331 342.928 306.447 348.459C304.062 351.858 302.303 349.743 297.527 356.627C292.755 363.512 292.577 366.262 283.395 370.484C274.208 374.709 271.37 375.993 267.874 375.536C264.391 375.075 262.554 376.363 265.309 376.541L265.314 376.546ZM296.164 398.666C296.164 398.666 296.343 393.344 300.566 387.099C304.789 380.858 303.87 384.161 306.63 377.738C309.386 371.315 310.305 370.027 311.223 370.027C312.142 370.027 311.223 371.68 310.483 376.816C309.761 381.959 307.179 385.815 303.696 389.488C300.204 393.157 298.18 396.46 297.727 399.763C297.257 403.066 296.26 401.873 296.164 398.662V398.666ZM467.712 13.2644C464.978 13.2731 461.931 14.0172 463.916 17.6945C467.22 23.8088 467.56 26.6114 467.395 30.9066C467.225 35.1975 470.037 37.182 470.037 37.182C468.352 41.3162 473.995 44.0143 473.995 44.7803V54.6981C467.882 55.773 466.075 56.8827 463.594 57.3353C462.954 57.4528 462.127 57.4092 460.603 57.0654C455.87 56.008 454.225 56.33 451.743 59.0847C449.018 62.1136 447.677 70.221 447.389 75.2387C447.08 80.252 449.758 81.7925 452.936 81.292C456.097 80.7872 458.178 77.9411 458.178 77.9411C458.374 79.7515 460.677 81.353 462.532 81.1528C459.031 84.2165 459.275 88.8163 463.498 91.2055C461.896 96.7367 465.758 99.1519 470.011 99.9265C470.011 99.9265 468.026 116.498 473.995 128.34C467.721 137.87 461.369 151.626 456.005 166.192C448.661 166.035 440.968 164.12 431.294 161.862C423.666 160.09 413.596 165.095 415.024 174.086C415.686 178.203 418.472 180.466 421.572 181.24C416.7 194.457 407.479 219.458 400.348 238.719C396.025 240.412 391.253 242.183 385.632 244.198C378.475 246.77 379.019 241.304 375.21 245.53C371.404 249.751 371.404 247.506 367.09 247.867C362.775 248.237 359.558 247.867 358.548 249.982C357.534 252.088 353.306 250.53 345.504 250.165C337.707 249.799 338.53 256.222 338.53 256.222L330.815 255.852C323.105 255.487 314.293 258.977 304.375 263.381C294.457 267.781 282.337 266.318 281.235 265.766C285.985 248.115 280.269 244.089 273.891 238.597C269.263 234.607 271.13 231.804 271.13 231.804C271.13 231.804 277.752 227.4 280.499 223.544C283.16 219.828 278.95 212.517 276.12 209.606C276.08 209.471 278.087 203.617 278.288 203.021C279.241 199.87 279.886 197.399 279.951 197.142C280.378 195.371 280.813 193.308 281.231 190.871C283.804 176.005 282.885 165.173 282.981 163.25C283.072 161.322 285.367 161.5 285.271 160.038C285.184 158.572 285.82 152.235 285.184 146.452C284.54 140.673 283.708 141.221 283.072 140.307C282.428 139.389 281.605 136.36 281.322 134.245C281.048 132.134 286.564 128.831 288.118 126.629C289.681 124.427 288.301 122.038 286.468 120.48C284.631 118.922 286.377 113.504 285.458 105.523C284.54 97.533 270.769 82.763 264.987 78.3546C259.201 73.9505 254.747 75.156 251.121 75.6956C249.51 75.9349 247.877 73.5458 244.39 72.9409C236.575 71.6005 236.257 76.344 226.788 74.4075C218.712 72.7538 213.387 73.3064 205.485 75.3257C197.592 77.3449 178.314 86.5186 170.416 98.0857C162.519 109.644 155.17 123.6 156.641 130.024C158.113 136.447 161.052 140.303 161.605 142.692C162.153 145.077 163.255 148.38 161.605 151.5C159.954 154.625 160.133 157.192 161.239 160.13C162.34 163.067 162.34 166.183 162.34 166.183C162.34 166.183 149.688 162.427 139.845 174.904C129.866 187.546 141.708 197.39 138.839 213.117C138.839 213.117 125.795 221.982 121.942 233.362C118.085 244.742 130.663 249.333 127.08 255.204C120.288 265.67 122.765 268.516 124.141 270.622C125.521 272.737 128.551 273.007 120.654 275.762C112.756 278.517 109.086 282.372 108.533 286.776C107.984 291.18 107.802 291.912 107.802 291.912C107.802 291.912 104.867 298.339 104.314 304.027C103.761 309.715 103.579 315.407 105.046 319.811C105.411 320.908 105.664 321.861 105.834 322.666C103.748 327.105 101.489 332.597 98.9811 339.338C98.9811 339.338 97.971 341.736 96.2469 345.831C95.6157 345.626 94.9974 345.43 94.3792 345.247C90.191 344.577 84.2308 354.713 87.914 359.104C88.7891 360.144 89.2549 360.801 89.7338 361.323C77.3389 390.85 56.5239 440.683 53.3196 449.948C51.1863 456.106 46.7716 471.402 42.4136 489.167L36.8496 489.663L30.7021 488.858L16.5091 643.273L71.949 661.046C72.1841 661.703 72.515 662.312 72.9678 662.874C76.307 667.012 84.714 672.7 88.8979 670.537C88.8979 670.537 89.8993 673.366 94.2094 674.193C98.5196 675.02 100.487 673.814 100.487 673.814C100.487 673.814 102.351 676.848 105.716 677.083C109.073 677.318 111.132 676.373 111.132 676.373C114.284 679.885 120.471 681.313 122.822 678.34C123.018 678.097 123.183 677.822 123.323 677.513L133.406 680.747C132.635 698.385 131.608 726.093 131.037 741.899C130.306 762.087 128.099 767.962 114.876 802.11C101.654 836.242 104.776 846.712 101.654 862.492C98.5326 878.28 84.7576 894.069 75.3971 900.309C66.028 906.546 67.8652 907.468 63.0936 905.449C58.3176 903.425 52.623 899.574 48.217 905.449C43.8111 911.315 41.791 916.459 30.4061 929.675C19.0212 942.892 26.7359 949.863 25.2644 953.902C23.7928 957.94 19.3869 959.046 8.73779 957.579C-1.91134 956.113 -0.448498 963.084 1.02305 972.628C2.49024 982.18 2.31174 977.036 5.06327 997.781C7.8148 1018.52 22.8742 1022.19 26.9144 1024.75C30.9547 1027.33 28.0203 1032.47 30.9547 1040.91C33.8978 1049.35 44.1768 1046.78 51.1558 1047.52C58.1304 1048.25 59.7848 1051.18 63.4593 1057.07C67.1338 1062.93 69.1539 1066.98 71.727 1068.08C74.2956 1069.17 76.8643 1077.44 81.0917 1083.13C85.3105 1088.82 83.1075 1089.91 84.2133 1095.06C85.3148 1100.2 84.0305 1101.29 93.7566 1112.31C103.487 1123.33 113.958 1119.83 115.612 1119.83C117.267 1119.83 123.14 1119.83 125.343 1121.49C127.546 1123.14 121.855 1130.66 122.038 1132.87C122.225 1135.07 125.896 1138.74 127.728 1139.29C129.57 1139.84 127.18 1145.72 135.256 1151.22C143.336 1156.73 154.173 1153.79 157.664 1152.87C161.156 1151.95 171.435 1158.39 179.146 1161.68C186.856 1164.99 188.332 1167.93 195.677 1167.18C203.021 1166.46 204.676 1168.66 216.792 1167.38C228.913 1166.09 239.932 1162.19 239.932 1162.19C239.932 1162.19 252.235 1172.14 257.734 1173.43C263.25 1174.71 265.775 1173.57 265.775 1173.57C267.678 1177.3 275.941 1179.3 278.662 1175.96C281.113 1179.79 290.408 1180.14 294.07 1176.29C298.119 1178.9 307.201 1177.93 307.484 1173.46C311.21 1177.96 324.772 1175.1 321.463 1166.64C319.805 1162.42 311.724 1154.16 305.855 1148.28C299.978 1142.41 289.324 1131.58 288.954 1129.74C288.593 1127.91 288.406 1126.62 291.34 1125.89C294.283 1125.15 292.999 1121.3 295.019 1122.04C297.035 1122.77 301.079 1123.88 304.937 1122.77C308.79 1121.67 308.241 1115.8 308.241 1115.8C308.241 1115.8 312.094 1114.88 313.013 1112.12C313.931 1109.37 310.078 1107.53 309.16 1106.98C308.241 1106.43 308.79 1104.1 308.79 1102.03C308.79 1099.97 304.71 1098.22 300.709 1094.87C296.717 1091.52 284.736 1082.02 284.374 1080.92C284.004 1079.82 284.004 1077.25 286.02 1074.13C288.044 1071.01 286.568 1068.45 284.923 1064.59C283.264 1060.73 281.061 1060.55 281.618 1056.14C282.167 1051.74 280.421 1049.81 280.604 1045.22C280.787 1040.63 275.458 1041.18 275.654 1038.24C275.832 1035.31 275.832 1030.16 276.015 1022.64C276.198 1015.11 276.198 1015.66 277.848 1011.63C279.507 1007.59 278.588 1006.5 280.978 1003.19C283.364 999.888 281.157 998.412 281.157 992.907C281.157 987.402 289.237 965.378 297.688 941.512C306.138 917.647 316.605 891.036 325.425 877.084C334.228 863.132 338.277 798.155 342.683 768.049C347.093 737.956 340.297 634.056 340.667 628.551C341.037 623.042 346.297 623.494 348.835 623.773C353.001 624.234 346.375 610.265 345.809 607.989C344.703 603.585 347.825 603.95 349.666 600.464C351.504 596.974 345.901 589.354 343.789 584.767C341.677 580.176 342.322 577.609 342.409 570.263C342.505 562.926 339.749 554.109 340.297 548.882C340.846 543.647 342.683 546.219 344.346 545.027C345.992 543.834 346.453 534.103 346.362 522.998C346.266 511.892 335.156 502.07 333.414 497.579C331.673 493.079 332.966 490.141 331.398 488.218C329.835 486.286 330.384 486.377 330.205 481.607C330.01 476.833 329.461 472.425 330.928 471.877C332.404 471.328 334.429 469.126 334.429 469.126L334.607 464.54C334.794 459.948 334.429 459.583 338.286 441.962C341.19 428.694 340.916 416.004 341.543 408.379C341.543 408.379 341.138 403.266 344.076 396.29C347.011 389.318 350.137 384.732 349.767 379.77C349.405 374.814 349.044 372.242 349.044 372.242C349.044 372.242 353.158 383.108 350.877 387.66C348.6 392.212 348.674 394.662 349.192 396.838C348.73 400.146 373.825 380.919 382.724 374.77C391.636 368.625 392.28 362.842 392.28 362.842C392.28 362.842 395.028 363.76 406.412 362.842C417.797 361.919 415.969 355.683 416.887 345.217C417.797 334.755 412.107 294.557 412.107 294.557C412.107 294.557 416.757 291.263 423.239 286.367C439.335 287.621 456.288 279.426 461.709 259.865C473.651 251.914 484.653 244.041 486.29 240.229C489.594 232.518 496.02 202.051 500.06 178.555C500.191 177.837 500.308 177.106 500.43 176.353C507.348 176.684 514.832 175.744 521.772 172.567C524.998 171.092 527.184 169.612 529.265 169.956C531.281 170.287 531.99 172.467 531.198 173.746L530.619 172.149C530.458 171.649 529.996 171.279 529.439 171.279C528.882 171.279 528.425 171.645 528.272 172.149L527.523 174.164C526.248 173.307 525.926 171.684 525.926 171.684C523.496 175.03 523.875 177.702 525.586 179.413C518.907 197.516 501.754 244.037 495.907 259.725H493.804C504.188 297.665 557.856 293.087 565.017 259.725H562.984C558.517 247.745 541.312 201.137 533.958 181.21C537.054 180.435 539.862 178.177 540.515 174.055C541.943 165.065 531.864 160.06 524.236 161.831C515.673 163.824 508.659 165.556 502.063 166.039C505.594 142.601 509.207 111.655 509.978 95.949C510.901 77.2274 503.191 58.5015 498.223 54.833C495.215 52.6048 488.61 52.8442 481.757 53.8277V44.7498C481.757 43.9882 487.4 41.2901 485.724 37.1515C485.724 37.1515 488.532 35.1671 488.358 30.8762C488.188 26.5809 488.527 23.774 491.836 17.664C493.821 13.9824 490.77 13.2426 488.04 13.2339C487.983 12.9902 485.78 3.90794 477.891 0C470.007 3.91229 467.795 12.9902 467.739 13.2339L467.712 13.2644Z" fill="#1E1E1E"/>
</svg>
