<svg width="134" height="128" viewBox="0 0 134 128" fill="none" xmlns="http://www.w3.org/2000/svg">
<path d="M76.4375 51.4295V51.9014C76.4375 55.2042 79.0326 58.0352 82.5713 58.0352C84.2227 58.0352 85.6382 57.3274 86.8178 56.3838C87.9973 55.2042 88.4692 53.7887 88.4692 52.1373V51.4295H76.4375Z" fill="#1E1E1E"/>
<path d="M72.1893 74.5493H60.3936V77.6162H72.1893V74.5493Z" fill="#1E1E1E"/>
<path d="M54.4955 80.4472C53.7878 80.4472 53.0801 81.1549 53.0801 81.8627C53.0801 82.5704 53.7878 83.2782 54.4955 83.2782H78.0871C78.7948 83.2782 79.5026 82.5704 79.5026 81.8627C79.5026 81.1549 78.7948 80.4472 78.0871 80.4472H54.4955Z" fill="#1E1E1E"/>
<path d="M82.3327 41.0493L80.4453 48.3627H84.22L82.3327 41.0493Z" fill="#1E1E1E"/>
<path d="M19.1093 109.937C14.1551 109.937 10.1445 113.947 10.1445 118.901C10.1445 123.856 14.1551 127.866 19.1093 127.866C24.0635 127.866 28.0741 123.856 28.0741 118.901C28.0741 113.947 23.8276 109.937 19.1093 109.937Z" fill="#1E1E1E"/>
<path d="M46.7107 60.6303H44.3516V61.1021C44.3516 64.405 46.9466 67.2359 50.4854 67.2359C52.1368 67.2359 53.5523 66.5282 54.7318 65.5845C55.9114 64.4049 56.3833 62.9894 56.3833 61.338V60.8662H46.7107V60.6303Z" fill="#1E1E1E"/>
<path d="M48.5977 57.7993H52.3723L50.485 50.486L48.5977 57.7993Z" fill="#1E1E1E"/>
<path d="M67.945 116.542L85.4028 104.039H50.4873L67.945 116.542Z" fill="#1E1E1E"/>
<path d="M122.676 54.4964L120.789 22.8837C120.317 13.2112 112.06 5.42599 102.387 5.42599H33.4999C23.8273 5.42599 15.5703 12.9753 15.0985 22.8837L13.2111 54.4964C11.5597 73.6056 20.0527 92.4788 35.6231 103.803L67.9436 127.158L100.264 103.803C115.834 92.4788 124.327 73.6056 122.676 54.4964ZM96.9611 99.3204L68.8872 119.609C68.4154 120.081 67.7077 120.081 67.2358 119.609L39.1618 99.3204C25.0069 89.176 17.4576 72.1901 19.109 54.9683L20.7604 23.1197C21.2323 16.2781 26.8942 11.088 33.4999 11.088H102.387C109.229 11.088 114.891 16.2781 115.127 23.1197L117.014 54.7323C118.665 72.1901 111.116 88.9401 96.9611 99.3204Z" fill="#1E1E1E"/>
<path d="M128.102 96.4895C124.799 96.4895 122.204 99.0846 122.204 102.387C122.204 105.69 124.799 108.285 128.102 108.285C131.405 108.285 134 105.69 134 102.387C134 99.0846 131.405 96.4895 128.102 96.4895Z" fill="#1E1E1E"/>
<path d="M112.295 23.3556C112.059 18.1655 107.577 14.1549 102.387 14.1549H33.4995C28.3094 14.1549 24.0629 18.1655 23.5911 23.3556L21.7037 54.9683C20.2882 71.2465 27.3657 87.2887 40.577 96.7253L46.2389 100.972H89.4115L95.0735 96.9613C108.285 87.2887 115.598 71.4824 113.947 55.2042C114.183 54.9683 114.183 56.6197 112.295 23.3556ZM91.7707 51.4296H91.2988C91.2988 51.6655 91.5347 55.2042 88.7037 58.2711C87.0523 59.9225 84.6932 60.8662 82.334 60.8662C77.3798 60.8662 73.3692 56.8556 73.3692 51.9014V51.4296H72.8974C72.1897 51.4296 71.4819 50.7218 71.4819 50.0141C71.4819 49.3063 72.1897 48.5986 72.8974 48.5986H77.3798L80.2108 37.2746L67.4713 41.0493V71.7183H73.3692C74.077 71.7183 74.7847 72.426 74.7847 73.1338V77.3803H77.8517C80.2108 77.3803 82.334 79.2676 82.334 81.8627C82.334 84.4577 80.4467 86.3451 77.8517 86.3451H54.2601C51.9009 86.3451 49.7777 84.4577 49.7777 81.8627C49.7777 79.2676 51.665 77.3803 54.2601 77.3803H57.327V72.8979C57.327 72.1902 58.0347 71.4824 58.7425 71.4824H64.6404V41.757L52.1368 45.2958L55.2038 57.5634H59.9221C60.6298 57.5634 61.3376 58.2711 61.3376 58.9789C61.3376 59.6866 60.6298 60.3944 59.9221 60.3944H59.4502V60.8662C59.4502 63.2253 58.5065 65.5845 56.8551 67.2359C55.2037 68.8873 52.8446 69.831 50.4854 69.831C45.5312 69.831 41.5206 65.8204 41.5206 60.8662V60.3944H41.0488C40.3411 60.3944 39.6333 59.6866 39.6333 58.9789C39.6333 58.2711 40.3411 57.5634 41.0488 57.5634H45.5312L49.0699 43.8803C49.3059 43.4084 49.5418 42.9366 50.0136 42.9366L64.6404 38.6901V33.2641C64.6404 32.5563 65.3481 31.8486 66.0559 31.8486C66.7636 31.8486 67.4713 32.5563 67.4713 33.2641V37.9824L81.8622 33.7359C82.5699 33.5 83.5136 33.9718 83.7495 34.6796L87.2883 48.3627H91.7707C92.4784 48.3627 93.1862 49.0704 93.1862 49.7782C93.1862 50.4859 92.4784 51.4296 91.7707 51.4296ZM104.51 24.2993H30.9044C30.1967 24.2993 29.489 23.5915 29.489 22.8838C29.489 22.176 30.1967 21.4683 30.9044 21.4683H104.51C105.218 21.4683 105.926 22.176 105.926 22.8838C105.926 23.5915 105.218 24.2993 104.51 24.2993Z" fill="#1E1E1E"/>
<path d="M124.327 2.35913C125.507 2.35913 126.451 3.30281 126.451 4.48239C126.451 5.66197 125.507 6.60562 124.327 6.60562C123.148 6.60562 122.204 5.66197 122.204 4.48239C122.204 3.30281 123.148 2.35913 124.327 2.35913Z" fill="#1E1E1E"/>
<path d="M4.95428 0C6.13386 0 7.07758 0.943684 7.07758 2.12326C7.07758 3.30284 6.13386 4.24649 4.95428 4.24649C3.7747 4.24649 2.83105 3.30284 2.83105 2.12326C2.83105 0.943684 3.7747 0 4.95428 0Z" fill="#1E1E1E"/>
<path d="M2.12323 47.8908C3.3028 47.8908 4.24645 48.8345 4.24645 50.0141C4.24645 51.1936 3.3028 52.1373 2.12323 52.1373C0.943648 52.1373 0 51.1936 0 50.0141C0 48.8345 0.943648 47.8908 2.12323 47.8908Z" fill="#1E1E1E"/>
<path d="M131.877 79.0317C133.057 79.0317 134 79.9754 134 81.1549C134 82.3345 133.057 83.2782 131.877 83.2782C130.698 83.2782 129.754 82.3345 129.754 81.1549C129.754 79.9754 130.698 79.0317 131.877 79.0317Z" fill="#1E1E1E"/>
<path d="M106.634 115.835C107.814 115.835 108.757 116.778 108.757 117.958C108.757 119.137 107.814 120.081 106.634 120.081C105.454 120.081 104.511 119.137 104.511 117.958C104.511 116.778 105.454 115.835 106.634 115.835Z" fill="#1E1E1E"/>
<path d="M47.6545 121.732C48.8341 121.732 49.7777 122.676 49.7777 123.856C49.7777 125.035 48.8341 125.979 47.6545 125.979C46.4749 125.979 45.5312 125.035 45.5312 123.856C45.5312 122.676 46.4749 121.732 47.6545 121.732Z" fill="#1E1E1E"/>
<path d="M8.02166 89.176C9.20124 89.176 10.1449 90.1197 10.1449 91.2993C10.1449 92.4788 9.20124 93.4225 8.02166 93.4225C6.84209 93.4225 5.89844 92.4788 5.89844 91.2993C5.89844 90.1197 6.84209 89.176 8.02166 89.176Z" fill="#1E1E1E"/>
</svg>
