<svg width="1920" height="258" viewBox="0 0 1920 258" fill="none" xmlns="http://www.w3.org/2000/svg">
<g clip-path="url(#clip0_86_55)">
<path d="M1878.36 207.263V220.879H1856.31V184.002L1844.71 180.032V167.053H1843.03V179.454L1838.52 177.91V167.053H1836.84V177.333L1834.73 176.612L1817.37 184.002V237.368H1814.08V194.277V186.341V171.718H1757.91V186.341H1752.94V204.677H1742.91V152.34H1738.62V126.392H1734.76V110.689L1725.16 97.377L1715.56 110.689V126.392H1711.7V152.34H1707.41V223.179H1703.04V144.009L1699.94 143.996V122.192H1697.42V110.099H1696.25V107.687H1694.64V105.27H1693.42V102.857H1690.91V100.44V98.0279L1685.73 88.2303L1680.54 98.0279V100.44V102.857H1678.03V105.27H1676.81V107.687H1675.2V110.099H1674.02V122.192H1671.51V143.87L1668.41 143.857V211.511H1660.99V169.653H1648.97V163.873H1635.39V133.5L1616.46 115.44V163.873V169.653V176.773V177.476V208.114H1605.43V164.671L1582.15 150.431L1558.86 164.671V201.302H1550.44V169.331V148.179V134.602V116.59V96.5352H1548.73V83.5441H1547.03V96.5352H1542.24V116.59L1534.04 125.859V148.179H1520.78V185.013H1512.68V163.643H1501.5V158.913H1498.67V155.312L1485.72 149.524L1472.76 155.312V158.913V160.97V163.643V166.372V198.98H1464.76V100.523L1439.34 76.4714L1413.91 100.523V226.82H1409.5V141.158H1404.11V121.168H1399.53V103.99L1387.65 96.1013L1375.78 103.99V121.168H1371.19V141.158H1365.81V205.996H1358.48V119.641H1348.25V103.452H1347.14V119.641H1343.02V104.714H1341.92V119.641H1323.95V114.712H1321.05V112.191H1312V98.3706H1310.9V112.191H1304.72V96.1013H1303.62V112.191H1297.84V114.712H1294.93V119.641H1290.58V207.25H1283.57V133.56H1278.58V58.0869H1273.83V17.4907H1271.26V0H1269.84V17.4907H1266.75V3.32371H1265.72V17.4907H1263.39V58.0869H1260.77V133.56H1251.91V207.25H1245.47V100.879L1211.68 83.8044L1177.9 100.879V206.947H1160.64V113.87L1101.92 124.813V219.261H1098.5V145.059H1091.04V98.8957L1085.37 96.5482V44.5968H1071.86V20.0204H1070.6V44.5968H1064.16V14.64H1062.89V44.5968H1057.85V96.5482V113.87V145.059H1050.39V225.106H1044.39V137.144H996.274V206.947H990.26V169.436H951.322V223.561H944.119V143.757H941.603V136.632H938.912V129.512H934.955V98.2318H932.157V91.1114H926.564V83.9867H920.42V68.2186H919.257V83.9867H913.113V91.1114H907.52V98.2318H904.565V129.512H900.608V136.632H897.918V143.757H896.004V223.561H890.533V169.436H836.877V223.561H827.379V162.155H823.582V127.49H814.878V102.909H807.914V59.9093H793.192V102.909H791.613V127.49H787.812V162.155H775.819V223.561H771.983V113.87L751.356 94.8994V65.0511H747.03V94.8994L726.402 113.87V217.391H719.416V146.643L657.69 92.9078V202.99H644.734V70.9869H639.905V64.6345H634.286V58.2821H628.749V51.9341H623.104V23.24H620.149V51.9341H614.504V58.2821H608.963V64.6345H603.344V70.9869H598.515V199.284H593.295V136.632H547.71V212.47H541.379V99.2254L536.233 101.404V80.0902H533.834V53.1664L529.117 50.4632V33.9618H526.974V49.2309L524.058 47.5603V28.3904H521.915V46.3281L518.743 44.51V80.0902H516.343V109.843L496.106 118.421V222.958H489.034V164.142H427.819V203.805H422.387V118.66H380.373V216.97H372.836V157.742H367.603V150.209H364.613V142.672H357.068V132.51L346.637 124.882V113.592H345.236V123.863L342.502 121.858V110.051H341.1V120.838L325.133 132.51V142.672H317.588V150.209H314.598V157.742H309.369V191.552H305.1V170.338H290.317V146.708H289.007V170.338H286.078V150.209H284.763V170.338H248.047V165.786H241.395V161.148H233.429V146.708H232.118V161.148H224.942V143.905H223.627V161.148H218.112V165.786H211.46V170.338H205.052V230.781H196.374V171.705L173.911 164.125V131.339H170.57V162.996L167.003 161.79V140.993H163.658V160.662L153.583 157.265V234.101H147.243V148.912H131.493V142.408H127.332V138.394H124.954V127.251H123.618V138.394H119.756V119.97H117.526V138.394H114.258V142.408H111.581V148.912H107.42V210.201H98.2866V172.863L74.4396 159.048L56.832 172.863V210.201H49.6987V190.024L26.7455 180.63L0 190.024V258H39.0031H49.6987H56.832H98.2866H107.42H129.115H137.823H147.243H153.583H178.059H181.391H196.374H205.052H221.627H301.399H305.1H309.369H324.3H351.05H372.836H394.617V257.753H407.899H422.387H427.819H434.254H469.213V258H512.777V257.753H515.918V258H559.486V257.753H580.317H593.295H598.515H606.273H641.566H644.734H657.69H667.526H702.464H719.416H726.402H731.626H761.066H771.983H775.819H827.379H836.877H856.763H873.134H890.533H951.322H957.653H977.911H990.26H996.274H1010.67H1042.14H1044.39H1050.39H1052.29H1093.75H1098.5H1101.92H1103.92H1155.1H1160.64H1177.9H1187.87H1235.75H1245.47H1251.91H1283.57H1290.58H1300.56H1349.62H1358.48H1365.81H1377.53H1390.77H1409.5H1413.91H1421.7H1456.5H1464.76H1472.76H1492.45H1509.66H1512.68H1520.78H1526.54H1534.04H1550.44H1558.86H1566.97H1599.85H1605.43H1616.46H1618.58H1657.45H1660.99H1668.41H1673.71H1697.42H1703.04H1707.41H1716.33H1732.88H1742.91H1752.94H1765.12H1803.26H1814.08H1817.37H1827.97H1843.87H1856.31H1878.36H1884.79H1920V207.263H1878.36Z" fill="#1E1E1E"/>
<path d="M6.85188 194.576H5.00781V198.047H6.85188V194.576Z" fill="white"/>
<path d="M12.0804 194.576H10.2363V198.047H12.0804V194.576Z" fill="white"/>
<path d="M22.5413 194.576H20.6973V198.047H22.5413V194.576Z" fill="white"/>
<path d="M27.7698 194.576H25.9258V198.047H27.7698V194.576Z" fill="white"/>
<path d="M33.0023 194.576H31.1582V198.047H33.0023V194.576Z" fill="white"/>
<path d="M38.2308 194.576H36.3867V198.047H38.2308V194.576Z" fill="white"/>
<path d="M43.4652 194.576H41.6211V198.047H43.4652V194.576Z" fill="white"/>
<path d="M112.276 155.529H110.432V159H112.276V155.529Z" fill="white"/>
<path d="M121.405 155.529H119.561V159H121.405V155.529Z" fill="white"/>
<path d="M125.969 155.529H124.125V159H125.969V155.529Z" fill="white"/>
<path d="M130.539 155.529H128.695V159H130.539V155.529Z" fill="white"/>
<path d="M139.668 155.529H137.824V159H139.668V155.529Z" fill="white"/>
<path d="M144.237 155.529H142.393V159H144.237V155.529Z" fill="white"/>
<path d="M112.276 161.274H110.432V164.745H112.276V161.274Z" fill="white"/>
<path d="M121.405 161.274H119.561V164.745H121.405V161.274Z" fill="white"/>
<path d="M125.969 161.274H124.125V164.745H125.969V161.274Z" fill="white"/>
<path d="M135.104 161.274H133.26V164.745H135.104V161.274Z" fill="white"/>
<path d="M116.84 167.019H114.996V170.49H116.84V167.019Z" fill="white"/>
<path d="M125.969 167.019H124.125V170.49H125.969V167.019Z" fill="white"/>
<path d="M130.539 167.019H128.695V170.49H130.539V167.019Z" fill="white"/>
<path d="M135.104 167.019H133.26V170.49H135.104V167.019Z" fill="white"/>
<path d="M139.668 167.019H137.824V170.49H139.668V167.019Z" fill="white"/>
<path d="M130.539 172.764H128.695V176.235H130.539V172.764Z" fill="white"/>
<path d="M139.668 172.764H137.824V176.235H139.668V172.764Z" fill="white"/>
<path d="M116.84 178.509H114.996V181.98H116.84V178.509Z" fill="white"/>
<path d="M121.405 178.509H119.561V181.98H121.405V178.509Z" fill="white"/>
<path d="M130.539 178.509H128.695V181.98H130.539V178.509Z" fill="white"/>
<path d="M135.104 178.509H133.26V181.98H135.104V178.509Z" fill="white"/>
<path d="M144.237 178.509H142.393V181.98H144.237V178.509Z" fill="white"/>
<path d="M112.276 184.253H110.432V187.725H112.276V184.253Z" fill="white"/>
<path d="M116.84 184.253H114.996V187.725H116.84V184.253Z" fill="white"/>
<path d="M121.405 184.253H119.561V187.725H121.405V184.253Z" fill="white"/>
<path d="M125.969 184.253H124.125V187.725H125.969V184.253Z" fill="white"/>
<path d="M135.104 184.253H133.26V187.725H135.104V184.253Z" fill="white"/>
<path d="M112.276 189.999H110.432V193.47H112.276V189.999Z" fill="white"/>
<path d="M121.405 189.999H119.561V193.47H121.405V189.999Z" fill="white"/>
<path d="M130.539 189.999H128.695V193.47H130.539V189.999Z" fill="white"/>
<path d="M139.668 189.999H137.824V193.47H139.668V189.999Z" fill="white"/>
<path d="M112.276 195.743H110.432V199.214H112.276V195.743Z" fill="white"/>
<path d="M116.84 195.743H114.996V199.214H116.84V195.743Z" fill="white"/>
<path d="M125.969 195.743H124.125V199.214H125.969V195.743Z" fill="white"/>
<path d="M135.104 195.743H133.26V199.214H135.104V195.743Z" fill="white"/>
<path d="M139.668 195.743H137.824V199.214H139.668V195.743Z" fill="white"/>
<path d="M211.436 177.263H209.592V180.734H211.436V177.263Z" fill="white"/>
<path d="M219.539 177.263H217.695V180.734H219.539V177.263Z" fill="white"/>
<path d="M227.641 177.263H225.797V180.734H227.641V177.263Z" fill="white"/>
<path d="M235.743 177.263H233.898V180.734H235.743V177.263Z" fill="white"/>
<path d="M243.848 177.263H242.004V180.734H243.848V177.263Z" fill="white"/>
<path d="M251.948 177.263H250.104V180.734H251.948V177.263Z" fill="white"/>
<path d="M260.053 177.263H258.209V180.734H260.053V177.263Z" fill="white"/>
<path d="M268.155 177.263H266.311V180.734H268.155V177.263Z" fill="white"/>
<path d="M276.26 177.263H274.416V180.734H276.26V177.263Z" fill="white"/>
<path d="M284.36 177.263H282.516V180.734H284.36V177.263Z" fill="white"/>
<path d="M292.461 177.263H290.617V180.734H292.461V177.263Z" fill="white"/>
<path d="M300.567 177.263H298.723V180.734H300.567V177.263Z" fill="white"/>
<path d="M319.385 164.255H317.541V167.726H319.385V164.255Z" fill="white"/>
<path d="M334.481 164.255H332.637V167.726H334.481V164.255Z" fill="white"/>
<path d="M342.026 164.255H340.182V167.726H342.026V164.255Z" fill="white"/>
<path d="M349.571 164.255H347.727V167.726H349.571V164.255Z" fill="white"/>
<path d="M357.116 164.255H355.271V167.726H357.116V164.255Z" fill="white"/>
<path d="M364.662 164.255H362.818V167.726H364.662V164.255Z" fill="white"/>
<path d="M638.986 172.473H636.877V175.944H638.986V172.473Z" fill="white"/>
<path d="M632.464 172.473H630.355V175.944H632.464V172.473Z" fill="white"/>
<path d="M625.943 172.473H623.834V175.944H625.943V172.473Z" fill="white"/>
<path d="M619.421 172.473H617.312V175.944H619.421V172.473Z" fill="white"/>
<path d="M612.896 172.473H610.787V175.944H612.896V172.473Z" fill="white"/>
<path d="M606.374 172.473H604.266V175.944H606.374V172.473Z" fill="white"/>
<path d="M638.986 165.913H636.877V169.384H638.986V165.913Z" fill="white"/>
<path d="M632.464 165.913H630.355V169.384H632.464V165.913Z" fill="white"/>
<path d="M619.421 165.913H617.312V169.384H619.421V165.913Z" fill="white"/>
<path d="M606.374 165.913H604.266V169.384H606.374V165.913Z" fill="white"/>
<path d="M638.986 159.356H636.877V162.827H638.986V159.356Z" fill="white"/>
<path d="M632.464 159.356H630.355V162.827H632.464V159.356Z" fill="white"/>
<path d="M619.421 159.356H617.312V162.827H619.421V159.356Z" fill="white"/>
<path d="M612.896 159.356H610.787V162.827H612.896V159.356Z" fill="white"/>
<path d="M606.374 159.356H604.266V162.827H606.374V159.356Z" fill="white"/>
<path d="M632.464 152.795H630.355V156.267H632.464V152.795Z" fill="white"/>
<path d="M612.896 152.795H610.787V156.267H612.896V152.795Z" fill="white"/>
<path d="M552.697 141.713H550.883V145.185H552.697V141.713Z" fill="white"/>
<path d="M565.171 141.713H563.357V145.185H565.171V141.713Z" fill="white"/>
<path d="M571.409 141.713H569.596V145.185H571.409V141.713Z" fill="white"/>
<path d="M583.884 141.713H582.07V145.185H583.884V141.713Z" fill="white"/>
<path d="M590.124 141.713H588.311V145.185H590.124V141.713Z" fill="white"/>
<path d="M552.697 150.461H550.883V153.932H552.697V150.461Z" fill="white"/>
<path d="M558.935 150.461H557.121V153.932H558.935V150.461Z" fill="white"/>
<path d="M571.409 150.461H569.596V153.932H571.409V150.461Z" fill="white"/>
<path d="M583.884 150.461H582.07V153.932H583.884V150.461Z" fill="white"/>
<path d="M552.697 159.204H550.883V162.675H552.697V159.204Z" fill="white"/>
<path d="M565.171 159.204H563.357V162.675H565.171V159.204Z" fill="white"/>
<path d="M571.409 159.204H569.596V162.675H571.409V159.204Z" fill="white"/>
<path d="M583.884 159.204H582.07V162.675H583.884V159.204Z" fill="white"/>
<path d="M552.697 167.952H550.883V171.423H552.697V167.952Z" fill="white"/>
<path d="M558.935 167.952H557.121V171.423H558.935V167.952Z" fill="white"/>
<path d="M571.409 167.952H569.596V171.423H571.409V167.952Z" fill="white"/>
<path d="M577.65 167.952H575.836V171.423H577.65V167.952Z" fill="white"/>
<path d="M590.124 167.952H588.311V171.423H590.124V167.952Z" fill="white"/>
<path d="M552.697 176.695H550.883V180.166H552.697V176.695Z" fill="white"/>
<path d="M558.935 176.695H557.121V180.166H558.935V176.695Z" fill="white"/>
<path d="M571.409 176.695H569.596V180.166H571.409V176.695Z" fill="white"/>
<path d="M577.65 176.695H575.836V180.166H577.65V176.695Z" fill="white"/>
<path d="M552.697 185.442H550.883V188.914H552.697V185.442Z" fill="white"/>
<path d="M565.171 185.442H563.357V188.914H565.171V185.442Z" fill="white"/>
<path d="M571.409 185.442H569.596V188.914H571.409V185.442Z" fill="white"/>
<path d="M583.884 185.442H582.07V188.914H583.884V185.442Z" fill="white"/>
<path d="M590.124 194.19H588.311V197.661H590.124V194.19Z" fill="white"/>
<path d="M1002.52 144.499H1000.71V147.97H1002.52V144.499Z" fill="white"/>
<path d="M1015 144.499H1013.19V147.97H1015V144.499Z" fill="white"/>
<path d="M1021.24 144.499H1019.42V147.97H1021.24V144.499Z" fill="white"/>
<path d="M1033.71 144.499H1031.9V147.97H1033.71V144.499Z" fill="white"/>
<path d="M1039.95 144.499H1038.14V147.97H1039.95V144.499Z" fill="white"/>
<path d="M1002.52 153.247H1000.71V156.718H1002.52V153.247Z" fill="white"/>
<path d="M1008.76 153.247H1006.95V156.718H1008.76V153.247Z" fill="white"/>
<path d="M1021.24 153.247H1019.42V156.718H1021.24V153.247Z" fill="white"/>
<path d="M1033.71 153.247H1031.9V156.718H1033.71V153.247Z" fill="white"/>
<path d="M1002.52 161.99H1000.71V165.461H1002.52V161.99Z" fill="white"/>
<path d="M1015 161.99H1013.19V165.461H1015V161.99Z" fill="white"/>
<path d="M1021.24 161.99H1019.42V165.461H1021.24V161.99Z" fill="white"/>
<path d="M1033.71 161.99H1031.9V165.461H1033.71V161.99Z" fill="white"/>
<path d="M1002.52 170.737H1000.71V174.209H1002.52V170.737Z" fill="white"/>
<path d="M1008.76 170.737H1006.95V174.209H1008.76V170.737Z" fill="white"/>
<path d="M1021.24 170.737H1019.42V174.209H1021.24V170.737Z" fill="white"/>
<path d="M1027.48 170.737H1025.66V174.209H1027.48V170.737Z" fill="white"/>
<path d="M1039.95 170.737H1038.14V174.209H1039.95V170.737Z" fill="white"/>
<path d="M1002.52 179.48H1000.71V182.952H1002.52V179.48Z" fill="white"/>
<path d="M1008.76 179.48H1006.95V182.952H1008.76V179.48Z" fill="white"/>
<path d="M1021.24 179.48H1019.42V182.952H1021.24V179.48Z" fill="white"/>
<path d="M1027.48 179.48H1025.66V182.952H1027.48V179.48Z" fill="white"/>
<path d="M1002.52 188.228H1000.71V191.699H1002.52V188.228Z" fill="white"/>
<path d="M1015 188.228H1013.19V191.699H1015V188.228Z" fill="white"/>
<path d="M1021.24 188.228H1019.42V191.699H1021.24V188.228Z" fill="white"/>
<path d="M1033.71 188.228H1031.9V191.699H1033.71V188.228Z" fill="white"/>
<path d="M1039.95 196.976H1038.14V200.447H1039.95V196.976Z" fill="white"/>
<path d="M502.269 123.802H500.455V127.273H502.269V123.802Z" fill="white"/>
<path d="M506.698 123.802H504.885V127.273H506.698V123.802Z" fill="white"/>
<path d="M511.128 123.802H509.314V127.273H511.128V123.802Z" fill="white"/>
<path d="M519.984 123.802H518.17V127.273H519.984V123.802Z" fill="white"/>
<path d="M524.415 123.802H522.602V127.273H524.415V123.802Z" fill="white"/>
<path d="M528.845 123.802H527.031V127.273H528.845V123.802Z" fill="white"/>
<path d="M533.275 123.802H531.461V127.273H533.275V123.802Z" fill="white"/>
<path d="M524.415 114.334H522.602V117.805H524.415V114.334Z" fill="white"/>
<path d="M528.845 114.334H527.031V117.805H528.845V114.334Z" fill="white"/>
<path d="M533.275 114.334H531.461V117.805H533.275V114.334Z" fill="white"/>
<path d="M537.704 114.334H535.891V117.805H537.704V114.334Z" fill="white"/>
<path d="M533.275 104.866H531.461V108.337H533.275V104.866Z" fill="white"/>
<path d="M537.704 104.866H535.891V108.337H537.704V104.866Z" fill="white"/>
<path d="M502.269 133.265H500.455V136.736H502.269V133.265Z" fill="white"/>
<path d="M506.698 133.265H504.885V136.736H506.698V133.265Z" fill="white"/>
<path d="M511.128 133.265H509.314V136.736H511.128V133.265Z" fill="white"/>
<path d="M515.558 133.265H513.744V136.736H515.558V133.265Z" fill="white"/>
<path d="M519.984 133.265H518.17V136.736H519.984V133.265Z" fill="white"/>
<path d="M528.845 133.265H527.031V136.736H528.845V133.265Z" fill="white"/>
<path d="M533.275 133.265H531.461V136.736H533.275V133.265Z" fill="white"/>
<path d="M502.269 142.733H500.455V146.205H502.269V142.733Z" fill="white"/>
<path d="M506.698 142.733H504.885V146.205H506.698V142.733Z" fill="white"/>
<path d="M515.558 142.733H513.744V146.205H515.558V142.733Z" fill="white"/>
<path d="M519.984 142.733H518.17V146.205H519.984V142.733Z" fill="white"/>
<path d="M528.845 142.733H527.031V146.205H528.845V142.733Z" fill="white"/>
<path d="M533.275 142.733H531.461V146.205H533.275V142.733Z" fill="white"/>
<path d="M502.269 152.201H500.455V155.672H502.269V152.201Z" fill="white"/>
<path d="M506.698 152.201H504.885V155.672H506.698V152.201Z" fill="white"/>
<path d="M515.558 152.201H513.744V155.672H515.558V152.201Z" fill="white"/>
<path d="M528.845 152.201H527.031V155.672H528.845V152.201Z" fill="white"/>
<path d="M537.704 152.201H535.891V155.672H537.704V152.201Z" fill="white"/>
<path d="M502.269 161.665H500.455V165.136H502.269V161.665Z" fill="white"/>
<path d="M511.128 161.665H509.314V165.136H511.128V161.665Z" fill="white"/>
<path d="M519.984 161.665H518.17V165.136H519.984V161.665Z" fill="white"/>
<path d="M528.845 161.665H527.031V165.136H528.845V161.665Z" fill="white"/>
<path d="M537.704 161.665H535.891V165.136H537.704V161.665Z" fill="white"/>
<path d="M506.698 171.132H504.885V174.604H506.698V171.132Z" fill="white"/>
<path d="M515.558 171.132H513.744V174.604H515.558V171.132Z" fill="white"/>
<path d="M519.984 171.132H518.17V174.604H519.984V171.132Z" fill="white"/>
<path d="M528.845 171.132H527.031V174.604H528.845V171.132Z" fill="white"/>
<path d="M533.275 171.132H531.461V174.604H533.275V171.132Z" fill="white"/>
<path d="M537.704 171.132H535.891V174.604H537.704V171.132Z" fill="white"/>
<path d="M502.269 180.6H500.455V184.071H502.269V180.6Z" fill="white"/>
<path d="M506.698 180.6H504.885V184.071H506.698V180.6Z" fill="white"/>
<path d="M515.558 180.6H513.744V184.071H515.558V180.6Z" fill="white"/>
<path d="M524.415 180.6H522.602V184.071H524.415V180.6Z" fill="white"/>
<path d="M533.275 180.6H531.461V184.071H533.275V180.6Z" fill="white"/>
<path d="M537.704 180.6H535.891V184.071H537.704V180.6Z" fill="white"/>
<path d="M502.269 190.063H500.455V193.535H502.269V190.063Z" fill="white"/>
<path d="M506.698 190.063H504.885V193.535H506.698V190.063Z" fill="white"/>
<path d="M519.984 190.063H518.17V193.535H519.984V190.063Z" fill="white"/>
<path d="M524.415 190.063H522.602V193.535H524.415V190.063Z" fill="white"/>
<path d="M533.275 190.063H531.461V193.535H533.275V190.063Z" fill="white"/>
<path d="M537.704 190.063H535.891V193.535H537.704V190.063Z" fill="white"/>
<path d="M502.269 199.531H500.455V203.002H502.269V199.531Z" fill="white"/>
<path d="M506.698 199.531H504.885V203.002H506.698V199.531Z" fill="white"/>
<path d="M511.128 199.531H509.314V203.002H511.128V199.531Z" fill="white"/>
<path d="M528.845 199.531H527.031V203.002H528.845V199.531Z" fill="white"/>
<path d="M533.275 199.531H531.461V203.002H533.275V199.531Z" fill="white"/>
<path d="M537.704 199.531H535.891V203.002H537.704V199.531Z" fill="white"/>
<path d="M502.269 208.999H500.455V212.47H502.269V208.999Z" fill="white"/>
<path d="M506.698 208.999H504.885V212.47H506.698V208.999Z" fill="white"/>
<path d="M511.128 208.999H509.314V212.47H511.128V208.999Z" fill="white"/>
<path d="M388.049 126.384H386.205V129.855H388.049V126.384Z" fill="white"/>
<path d="M393.75 126.384H391.906V129.855H393.75V126.384Z" fill="white"/>
<path d="M399.451 126.384H397.607V129.855H399.451V126.384Z" fill="white"/>
<path d="M405.153 126.384H403.309V129.855H405.153V126.384Z" fill="white"/>
<path d="M410.854 126.384H409.01V129.855H410.854V126.384Z" fill="white"/>
<path d="M416.557 126.384H414.713V129.855H416.557V126.384Z" fill="white"/>
<path d="M388.049 132.944H386.205V136.416H388.049V132.944Z" fill="white"/>
<path d="M393.75 132.944H391.906V136.416H393.75V132.944Z" fill="white"/>
<path d="M405.153 132.944H403.309V136.416H405.153V132.944Z" fill="white"/>
<path d="M416.557 132.944H414.713V136.416H416.557V132.944Z" fill="white"/>
<path d="M388.049 139.505H386.205V142.976H388.049V139.505Z" fill="white"/>
<path d="M393.75 139.505H391.906V142.976H393.75V139.505Z" fill="white"/>
<path d="M405.153 139.505H403.309V142.976H405.153V139.505Z" fill="white"/>
<path d="M410.854 139.505H409.01V142.976H410.854V139.505Z" fill="white"/>
<path d="M416.557 139.505H414.713V142.976H416.557V139.505Z" fill="white"/>
<path d="M393.75 146.065H391.906V149.537H393.75V146.065Z" fill="white"/>
<path d="M410.854 146.065H409.01V149.537H410.854V146.065Z" fill="white"/>
<path d="M388.049 152.622H386.205V156.093H388.049V152.622Z" fill="white"/>
<path d="M393.75 152.622H391.906V156.093H393.75V152.622Z" fill="white"/>
<path d="M399.451 152.622H397.607V156.093H399.451V152.622Z" fill="white"/>
<path d="M405.153 152.622H403.309V156.093H405.153V152.622Z" fill="white"/>
<path d="M416.557 152.622H414.713V156.093H416.557V152.622Z" fill="white"/>
<path d="M388.049 159.183H386.205V162.654H388.049V159.183Z" fill="white"/>
<path d="M399.451 159.183H397.607V162.654H399.451V159.183Z" fill="white"/>
<path d="M405.153 159.183H403.309V162.654H405.153V159.183Z" fill="white"/>
<path d="M410.854 159.183H409.01V162.654H410.854V159.183Z" fill="white"/>
<path d="M416.557 159.183H414.713V162.654H416.557V159.183Z" fill="white"/>
<path d="M438.077 169.87H436.264V173.341H438.077V169.87Z" fill="white"/>
<path d="M444.148 169.87H442.334V173.341H444.148V169.87Z" fill="white"/>
<path d="M450.222 169.87H448.408V173.341H450.222V169.87Z" fill="white"/>
<path d="M456.296 169.87H454.482V173.341H456.296V169.87Z" fill="white"/>
<path d="M462.37 169.87H460.557V173.341H462.37V169.87Z" fill="white"/>
<path d="M474.517 169.87H472.703V173.341H474.517V169.87Z" fill="white"/>
<path d="M480.591 169.87H478.777V173.341H480.591V169.87Z" fill="white"/>
<path d="M486.665 169.87H484.852V173.341H486.665V169.87Z" fill="white"/>
<path d="M438.077 178.86H436.264V182.331H438.077V178.86Z" fill="white"/>
<path d="M444.148 178.86H442.334V182.331H444.148V178.86Z" fill="white"/>
<path d="M450.222 178.86H448.408V182.331H450.222V178.86Z" fill="white"/>
<path d="M456.296 178.86H454.482V182.331H456.296V178.86Z" fill="white"/>
<path d="M462.37 178.86H460.557V182.331H462.37V178.86Z" fill="white"/>
<path d="M474.517 178.86H472.703V182.331H474.517V178.86Z" fill="white"/>
<path d="M480.591 178.86H478.777V182.331H480.591V178.86Z" fill="white"/>
<path d="M432.003 187.851H430.189V191.322H432.003V187.851Z" fill="white"/>
<path d="M438.077 187.851H436.264V191.322H438.077V187.851Z" fill="white"/>
<path d="M450.222 187.851H448.408V191.322H450.222V187.851Z" fill="white"/>
<path d="M468.447 187.851H466.633V191.322H468.447V187.851Z" fill="white"/>
<path d="M486.665 187.851H484.852V191.322H486.665V187.851Z" fill="white"/>
<path d="M432.003 196.841H430.189V200.313H432.003V196.841Z" fill="white"/>
<path d="M456.296 196.841H454.482V200.313H456.296V196.841Z" fill="white"/>
<path d="M462.37 196.841H460.557V200.313H462.37V196.841Z" fill="white"/>
<path d="M474.517 196.841H472.703V200.313H474.517V196.841Z" fill="white"/>
<path d="M474.517 205.827H472.703V209.298H474.517V205.827Z" fill="white"/>
<path d="M480.591 205.827H478.777V209.298H480.591V205.827Z" fill="white"/>
<path d="M486.665 205.827H484.852V209.298H486.665V205.827Z" fill="white"/>
<path d="M388.049 165.743H386.205V169.214H388.049V165.743Z" fill="white"/>
<path d="M399.451 165.743H397.607V169.214H399.451V165.743Z" fill="white"/>
<path d="M405.153 165.743H403.309V169.214H405.153V165.743Z" fill="white"/>
<path d="M416.557 165.743H414.713V169.214H416.557V165.743Z" fill="white"/>
<path d="M388.049 172.299H386.205V175.771H388.049V172.299Z" fill="white"/>
<path d="M393.75 172.299H391.906V175.771H393.75V172.299Z" fill="white"/>
<path d="M399.451 172.299H397.607V175.771H399.451V172.299Z" fill="white"/>
<path d="M388.049 178.86H386.205V182.331H388.049V178.86Z" fill="white"/>
<path d="M393.75 178.86H391.906V182.331H393.75V178.86Z" fill="white"/>
<path d="M405.153 178.86H403.309V182.331H405.153V178.86Z" fill="white"/>
<path d="M416.557 178.86H414.713V182.331H416.557V178.86Z" fill="white"/>
<path d="M399.451 185.421H397.607V188.892H399.451V185.421Z" fill="white"/>
<path d="M405.153 185.421H403.309V188.892H405.153V185.421Z" fill="white"/>
<path d="M410.854 185.421H409.01V188.892H410.854V185.421Z" fill="white"/>
<path d="M416.557 185.421H414.713V188.892H416.557V185.421Z" fill="white"/>
<path d="M393.75 191.981H391.906V195.453H393.75V191.981Z" fill="white"/>
<path d="M399.451 191.981H397.607V195.453H399.451V191.981Z" fill="white"/>
<path d="M638.986 79.1182H636.877V82.5894H638.986V79.1182Z" fill="white"/>
<path d="M632.464 79.1182H630.355V82.5894H632.464V79.1182Z" fill="white"/>
<path d="M625.943 79.1182H623.834V82.5894H625.943V79.1182Z" fill="white"/>
<path d="M619.421 79.1182H617.312V82.5894H619.421V79.1182Z" fill="white"/>
<path d="M612.896 79.1182H610.787V82.5894H612.896V79.1182Z" fill="white"/>
<path d="M606.374 79.1182H604.266V82.5894H606.374V79.1182Z" fill="white"/>
<path d="M638.986 85.6792H636.877V89.1504H638.986V85.6792Z" fill="white"/>
<path d="M632.464 85.6792H630.355V89.1504H632.464V85.6792Z" fill="white"/>
<path d="M619.421 85.6792H617.312V89.1504H619.421V85.6792Z" fill="white"/>
<path d="M606.374 85.6792H604.266V89.1504H606.374V85.6792Z" fill="white"/>
<path d="M638.986 92.2354H636.877V95.7066H638.986V92.2354Z" fill="white"/>
<path d="M632.464 92.2354H630.355V95.7066H632.464V92.2354Z" fill="white"/>
<path d="M619.421 92.2354H617.312V95.7066H619.421V92.2354Z" fill="white"/>
<path d="M612.896 92.2354H610.787V95.7066H612.896V92.2354Z" fill="white"/>
<path d="M606.374 92.2354H604.266V95.7066H606.374V92.2354Z" fill="white"/>
<path d="M632.464 98.7959H630.355V102.267H632.464V98.7959Z" fill="white"/>
<path d="M612.896 98.7959H610.787V102.267H612.896V98.7959Z" fill="white"/>
<path d="M638.986 105.356H636.877V108.828H638.986V105.356Z" fill="white"/>
<path d="M632.464 105.356H630.355V108.828H632.464V105.356Z" fill="white"/>
<path d="M625.943 105.356H623.834V108.828H625.943V105.356Z" fill="white"/>
<path d="M619.421 105.356H617.312V108.828H619.421V105.356Z" fill="white"/>
<path d="M606.374 105.356H604.266V108.828H606.374V105.356Z" fill="white"/>
<path d="M638.986 111.917H636.877V115.388H638.986V111.917Z" fill="white"/>
<path d="M625.943 111.917H623.834V115.388H625.943V111.917Z" fill="white"/>
<path d="M619.421 111.917H617.312V115.388H619.421V111.917Z" fill="white"/>
<path d="M612.896 111.917H610.787V115.388H612.896V111.917Z" fill="white"/>
<path d="M606.374 111.917H604.266V115.388H606.374V111.917Z" fill="white"/>
<path d="M638.986 118.474H636.877V121.945H638.986V118.474Z" fill="white"/>
<path d="M625.943 118.474H623.834V121.945H625.943V118.474Z" fill="white"/>
<path d="M619.421 118.474H617.312V121.945H619.421V118.474Z" fill="white"/>
<path d="M606.374 118.474H604.266V121.945H606.374V118.474Z" fill="white"/>
<path d="M638.986 125.034H636.877V128.505H638.986V125.034Z" fill="white"/>
<path d="M632.464 125.034H630.355V128.505H632.464V125.034Z" fill="white"/>
<path d="M625.943 125.034H623.834V128.505H625.943V125.034Z" fill="white"/>
<path d="M638.986 131.595H636.877V135.066H638.986V131.595Z" fill="white"/>
<path d="M632.464 131.595H630.355V135.066H632.464V131.595Z" fill="white"/>
<path d="M619.421 131.595H617.312V135.066H619.421V131.595Z" fill="white"/>
<path d="M606.374 131.595H604.266V135.066H606.374V131.595Z" fill="white"/>
<path d="M625.943 138.151H623.834V141.622H625.943V138.151Z" fill="white"/>
<path d="M619.421 138.151H617.312V141.622H619.421V138.151Z" fill="white"/>
<path d="M612.896 138.151H610.787V141.622H612.896V138.151Z" fill="white"/>
<path d="M606.374 138.151H604.266V141.622H606.374V138.151Z" fill="white"/>
<path d="M632.464 144.712H630.355V148.183H632.464V144.712Z" fill="white"/>
<path d="M625.943 144.712H623.834V148.183H625.943V144.712Z" fill="white"/>
<path d="M319.385 171.974H317.541V175.445H319.385V171.974Z" fill="white"/>
<path d="M326.934 171.974H325.09V175.445H326.934V171.974Z" fill="white"/>
<path d="M334.481 171.974H332.637V175.445H334.481V171.974Z" fill="white"/>
<path d="M349.571 171.974H347.727V175.445H349.571V171.974Z" fill="white"/>
<path d="M357.116 171.974H355.271V175.445H357.116V171.974Z" fill="white"/>
<path d="M319.385 179.689H317.541V183.16H319.385V179.689Z" fill="white"/>
<path d="M334.481 179.689H332.637V183.16H334.481V179.689Z" fill="white"/>
<path d="M342.026 179.689H340.182V183.16H342.026V179.689Z" fill="white"/>
<path d="M349.571 179.689H347.727V183.16H349.571V179.689Z" fill="white"/>
<path d="M364.662 179.689H362.818V183.16H364.662V179.689Z" fill="white"/>
<path d="M319.385 187.408H317.541V190.879H319.385V187.408Z" fill="white"/>
<path d="M326.934 187.408H325.09V190.879H326.934V187.408Z" fill="white"/>
<path d="M334.481 187.408H332.637V190.879H334.481V187.408Z" fill="white"/>
<path d="M349.571 187.408H347.727V190.879H349.571V187.408Z" fill="white"/>
<path d="M334.481 195.123H332.637V198.594H334.481V195.123Z" fill="white"/>
<path d="M342.026 195.123H340.182V198.594H342.026V195.123Z" fill="white"/>
<path d="M357.116 195.123H355.271V198.594H357.116V195.123Z" fill="white"/>
<path d="M364.662 195.123H362.818V198.594H364.662V195.123Z" fill="white"/>
<path d="M319.385 202.842H317.541V206.313H319.385V202.842Z" fill="white"/>
<path d="M342.026 202.842H340.182V206.313H342.026V202.842Z" fill="white"/>
<path d="M357.116 202.842H355.271V206.313H357.116V202.842Z" fill="white"/>
<path d="M319.385 210.557H317.541V214.028H319.385V210.557Z" fill="white"/>
<path d="M326.934 210.557H325.09V214.028H326.934V210.557Z" fill="white"/>
<path d="M334.481 210.557H332.637V214.028H334.481V210.557Z" fill="white"/>
<path d="M211.436 187.373H209.592V190.844H211.436V187.373Z" fill="white"/>
<path d="M219.539 187.373H217.695V190.844H219.539V187.373Z" fill="white"/>
<path d="M227.641 187.373H225.797V190.844H227.641V187.373Z" fill="white"/>
<path d="M235.743 187.373H233.898V190.844H235.743V187.373Z" fill="white"/>
<path d="M243.848 187.373H242.004V190.844H243.848V187.373Z" fill="white"/>
<path d="M251.948 187.373H250.104V190.844H251.948V187.373Z" fill="white"/>
<path d="M260.053 187.373H258.209V190.844H260.053V187.373Z" fill="white"/>
<path d="M268.155 187.373H266.311V190.844H268.155V187.373Z" fill="white"/>
<path d="M276.26 187.373H274.416V190.844H276.26V187.373Z" fill="white"/>
<path d="M284.36 187.373H282.516V190.844H284.36V187.373Z" fill="white"/>
<path d="M300.567 187.373H298.723V190.844H300.567V187.373Z" fill="white"/>
<path d="M227.641 197.483H225.797V200.955H227.641V197.483Z" fill="white"/>
<path d="M243.848 197.483H242.004V200.955H243.848V197.483Z" fill="white"/>
<path d="M251.948 197.483H250.104V200.955H251.948V197.483Z" fill="white"/>
<path d="M268.155 197.483H266.311V200.955H268.155V197.483Z" fill="white"/>
<path d="M284.36 197.483H282.516V200.955H284.36V197.483Z" fill="white"/>
<path d="M227.641 207.593H225.797V211.065H227.641V207.593Z" fill="white"/>
<path d="M243.848 207.593H242.004V211.065H243.848V207.593Z" fill="white"/>
<path d="M251.948 207.593H250.104V211.065H251.948V207.593Z" fill="white"/>
<path d="M260.053 207.593H258.209V211.065H260.053V207.593Z" fill="white"/>
<path d="M276.26 207.593H274.416V211.065H276.26V207.593Z" fill="white"/>
<path d="M284.36 207.593H282.516V211.065H284.36V207.593Z" fill="white"/>
<path d="M292.461 207.593H290.617V211.065H292.461V207.593Z" fill="white"/>
<path d="M300.567 207.593H298.723V211.065H300.567V207.593Z" fill="white"/>
<path d="M243.848 217.699H242.004V221.17H243.848V217.699Z" fill="white"/>
<path d="M251.948 217.699H250.104V221.17H251.948V217.699Z" fill="white"/>
<path d="M268.155 217.699H266.311V221.17H268.155V217.699Z" fill="white"/>
<path d="M276.26 217.699H274.416V221.17H276.26V217.699Z" fill="white"/>
<path d="M192.369 176.773H190.525V180.244H192.369V176.773Z" fill="white"/>
<path d="M186.881 176.773H185.037V180.244H186.881V176.773Z" fill="white"/>
<path d="M181.391 176.773H179.547V180.244H181.391V176.773Z" fill="white"/>
<path d="M175.903 176.773H174.059V180.244H175.903V176.773Z" fill="white"/>
<path d="M170.414 176.773H168.57V180.244H170.414V176.773Z" fill="white"/>
<path d="M164.926 176.773H163.082V180.244H164.926V176.773Z" fill="white"/>
<path d="M159.436 176.773H157.592V180.244H159.436V176.773Z" fill="white"/>
<path d="M192.369 184.618H190.525V188.089H192.369V184.618Z" fill="white"/>
<path d="M186.881 184.618H185.037V188.089H186.881V184.618Z" fill="white"/>
<path d="M181.391 184.618H179.547V188.089H181.391V184.618Z" fill="white"/>
<path d="M175.903 184.618H174.059V188.089H175.903V184.618Z" fill="white"/>
<path d="M170.414 184.618H168.57V188.089H170.414V184.618Z" fill="white"/>
<path d="M159.436 184.618H157.592V188.089H159.436V184.618Z" fill="white"/>
<path d="M192.369 192.463H190.525V195.934H192.369V192.463Z" fill="white"/>
<path d="M181.391 192.463H179.547V195.934H181.391V192.463Z" fill="white"/>
<path d="M175.903 192.463H174.059V195.934H175.903V192.463Z" fill="white"/>
<path d="M170.414 192.463H168.57V195.934H170.414V192.463Z" fill="white"/>
<path d="M164.926 192.463H163.082V195.934H164.926V192.463Z" fill="white"/>
<path d="M159.436 192.463H157.592V195.934H159.436V192.463Z" fill="white"/>
<path d="M192.369 200.308H190.525V203.779H192.369V200.308Z" fill="white"/>
<path d="M186.881 200.308H185.037V203.779H186.881V200.308Z" fill="white"/>
<path d="M175.903 200.308H174.059V203.779H175.903V200.308Z" fill="white"/>
<path d="M164.926 200.308H163.082V203.779H164.926V200.308Z" fill="white"/>
<path d="M159.436 200.308H157.592V203.779H159.436V200.308Z" fill="white"/>
<path d="M192.369 208.153H190.525V211.624H192.369V208.153Z" fill="white"/>
<path d="M186.881 208.153H185.037V211.624H186.881V208.153Z" fill="white"/>
<path d="M175.903 208.153H174.059V211.624H175.903V208.153Z" fill="white"/>
<path d="M170.414 208.153H168.57V211.624H170.414V208.153Z" fill="white"/>
<path d="M159.436 208.153H157.592V211.624H159.436V208.153Z" fill="white"/>
<path d="M186.881 215.998H185.037V219.469H186.881V215.998Z" fill="white"/>
<path d="M175.903 215.998H174.059V219.469H175.903V215.998Z" fill="white"/>
<path d="M164.926 215.998H163.082V219.469H164.926V215.998Z" fill="white"/>
<path d="M159.436 215.998H157.592V219.469H159.436V215.998Z" fill="white"/>
<path d="M186.881 223.843H185.037V227.315H186.881V223.843Z" fill="white"/>
<path d="M170.414 223.843H168.57V227.315H170.414V223.843Z" fill="white"/>
<path d="M159.436 223.843H157.592V227.315H159.436V223.843Z" fill="white"/>
<path d="M713.451 153.729H710.812V157.59H713.451V153.729Z" fill="white"/>
<path d="M705.593 153.729H702.955V157.59H705.593V153.729Z" fill="white"/>
<path d="M697.736 153.729H695.098V157.59H697.736V153.729Z" fill="white"/>
<path d="M689.872 153.729H687.234V157.59H689.872V153.729Z" fill="white"/>
<path d="M682.015 153.729H679.377V157.59H682.015V153.729Z" fill="white"/>
<path d="M674.154 153.729H671.516V157.59H674.154V153.729Z" fill="white"/>
<path d="M666.294 153.729H663.656V157.59H666.294V153.729Z" fill="white"/>
<path d="M713.451 162.454H710.812V166.316H713.451V162.454Z" fill="white"/>
<path d="M705.593 162.454H702.955V166.316H705.593V162.454Z" fill="white"/>
<path d="M697.736 162.454H695.098V166.316H697.736V162.454Z" fill="white"/>
<path d="M689.872 162.454H687.234V166.316H689.872V162.454Z" fill="white"/>
<path d="M682.015 162.454H679.377V166.316H682.015V162.454Z" fill="white"/>
<path d="M666.294 162.454H663.656V166.316H666.294V162.454Z" fill="white"/>
<path d="M713.451 171.18H710.812V175.042H713.451V171.18Z" fill="white"/>
<path d="M697.736 171.18H695.098V175.042H697.736V171.18Z" fill="white"/>
<path d="M689.872 171.18H687.234V175.042H689.872V171.18Z" fill="white"/>
<path d="M682.015 171.18H679.377V175.042H682.015V171.18Z" fill="white"/>
<path d="M674.154 171.18H671.516V175.042H674.154V171.18Z" fill="white"/>
<path d="M666.294 171.18H663.656V175.042H666.294V171.18Z" fill="white"/>
<path d="M713.451 179.91H710.812V183.772H713.451V179.91Z" fill="white"/>
<path d="M705.593 179.91H702.955V183.772H705.593V179.91Z" fill="white"/>
<path d="M689.872 179.91H687.234V183.772H689.872V179.91Z" fill="white"/>
<path d="M674.154 179.91H671.516V183.772H674.154V179.91Z" fill="white"/>
<path d="M666.294 179.91H663.656V183.772H666.294V179.91Z" fill="white"/>
<path d="M713.451 188.636H710.812V192.498H713.451V188.636Z" fill="white"/>
<path d="M705.593 188.636H702.955V192.498H705.593V188.636Z" fill="white"/>
<path d="M689.872 188.636H687.234V192.498H689.872V188.636Z" fill="white"/>
<path d="M682.015 188.636H679.377V192.498H682.015V188.636Z" fill="white"/>
<path d="M666.294 188.636H663.656V192.498H666.294V188.636Z" fill="white"/>
<path d="M705.593 197.362H702.955V201.224H705.593V197.362Z" fill="white"/>
<path d="M689.872 197.362H687.234V201.224H689.872V197.362Z" fill="white"/>
<path d="M674.154 197.362H671.516V201.224H674.154V197.362Z" fill="white"/>
<path d="M666.294 197.362H663.656V201.224H666.294V197.362Z" fill="white"/>
<path d="M705.593 206.092H702.955V209.954H705.593V206.092Z" fill="white"/>
<path d="M682.015 206.092H679.377V209.954H682.015V206.092Z" fill="white"/>
<path d="M666.294 206.092H663.656V209.954H666.294V206.092Z" fill="white"/>
<path d="M844.704 174.339H842.422V177.597H844.704V174.339Z" fill="white"/>
<path d="M851.501 174.339H849.219V177.597H851.501V174.339Z" fill="white"/>
<path d="M858.294 174.339H856.012V177.597H858.294V174.339Z" fill="white"/>
<path d="M865.089 174.339H862.807V177.597H865.089V174.339Z" fill="white"/>
<path d="M871.884 174.339H869.602V177.597H871.884V174.339Z" fill="white"/>
<path d="M878.679 174.339H876.396V177.597H878.679V174.339Z" fill="white"/>
<path d="M885.474 174.339H883.191V177.597H885.474V174.339Z" fill="white"/>
<path d="M844.704 181.702H842.422V184.961H844.704V181.702Z" fill="white"/>
<path d="M851.501 181.702H849.219V184.961H851.501V181.702Z" fill="white"/>
<path d="M858.294 181.702H856.012V184.961H858.294V181.702Z" fill="white"/>
<path d="M865.089 181.702H862.807V184.961H865.089V181.702Z" fill="white"/>
<path d="M871.884 181.702H869.602V184.961H871.884V181.702Z" fill="white"/>
<path d="M885.474 181.702H883.191V184.961H885.474V181.702Z" fill="white"/>
<path d="M844.704 189.07H842.422V192.328H844.704V189.07Z" fill="white"/>
<path d="M858.294 189.07H856.012V192.328H858.294V189.07Z" fill="white"/>
<path d="M865.089 189.07H862.807V192.328H865.089V189.07Z" fill="white"/>
<path d="M871.884 189.07H869.602V192.328H871.884V189.07Z" fill="white"/>
<path d="M878.679 189.07H876.396V192.328H878.679V189.07Z" fill="white"/>
<path d="M885.474 189.07H883.191V192.328H885.474V189.07Z" fill="white"/>
<path d="M844.704 196.433H842.422V199.692H844.704V196.433Z" fill="white"/>
<path d="M851.501 196.433H849.219V199.692H851.501V196.433Z" fill="white"/>
<path d="M865.089 196.433H862.807V199.692H865.089V196.433Z" fill="white"/>
<path d="M878.679 196.433H876.396V199.692H878.679V196.433Z" fill="white"/>
<path d="M885.474 196.433H883.191V199.692H885.474V196.433Z" fill="white"/>
<path d="M844.704 203.796H842.422V207.055H844.704V203.796Z" fill="white"/>
<path d="M851.501 203.796H849.219V207.055H851.501V203.796Z" fill="white"/>
<path d="M865.089 203.796H862.807V207.055H865.089V203.796Z" fill="white"/>
<path d="M871.884 203.796H869.602V207.055H871.884V203.796Z" fill="white"/>
<path d="M885.474 203.796H883.191V207.055H885.474V203.796Z" fill="white"/>
<path d="M851.501 211.16H849.219V214.419H851.501V211.16Z" fill="white"/>
<path d="M865.089 211.16H862.807V214.419H865.089V211.16Z" fill="white"/>
<path d="M878.679 211.16H876.396V214.419H878.679V211.16Z" fill="white"/>
<path d="M885.474 211.16H883.191V214.419H885.474V211.16Z" fill="white"/>
<path d="M851.501 218.528H849.219V221.786H851.501V218.528Z" fill="white"/>
<path d="M871.884 218.528H869.602V221.786H871.884V218.528Z" fill="white"/>
<path d="M885.474 218.528H883.191V221.786H885.474V218.528Z" fill="white"/>
<path d="M116.84 201.488H114.996V204.96H116.84V201.488Z" fill="white"/>
<path d="M125.969 201.488H124.125V204.96H125.969V201.488Z" fill="white"/>
<path d="M130.539 201.488H128.695V204.96H130.539V201.488Z" fill="white"/>
<path d="M139.668 201.488H137.824V204.96H139.668V201.488Z" fill="white"/>
<path d="M112.276 207.233H110.432V210.705H112.276V207.233Z" fill="white"/>
<path d="M116.84 207.233H114.996V210.705H116.84V207.233Z" fill="white"/>
<path d="M130.539 207.233H128.695V210.705H130.539V207.233Z" fill="white"/>
<path d="M139.668 207.233H137.824V210.705H139.668V207.233Z" fill="white"/>
<path d="M112.276 212.978H110.432V216.449H112.276V212.978Z" fill="white"/>
<path d="M116.84 212.978H114.996V216.449H116.84V212.978Z" fill="white"/>
<path d="M125.969 212.978H124.125V216.449H125.969V212.978Z" fill="white"/>
<path d="M135.104 212.978H133.26V216.449H135.104V212.978Z" fill="white"/>
<path d="M62.8851 175.28H61.041V178.752H62.8851V175.28Z" fill="white"/>
<path d="M62.8851 182.231H61.041V185.703H62.8851V182.231Z" fill="white"/>
<path d="M62.8851 189.178H61.041V192.649H62.8851V189.178Z" fill="white"/>
<path d="M62.8851 196.125H61.041V199.596H62.8851V196.125Z" fill="white"/>
<path d="M62.8851 203.072H61.041V206.543H62.8851V203.072Z" fill="white"/>
<path d="M62.8851 210.023H61.041V213.494H62.8851V210.023Z" fill="white"/>
<path d="M62.8851 216.97H61.041V220.441H62.8851V216.97Z" fill="white"/>
<path d="M6.85188 203.458H5.00781V206.929H6.85188V203.458Z" fill="white"/>
<path d="M12.0804 203.458H10.2363V206.929H12.0804V203.458Z" fill="white"/>
<path d="M17.3089 203.458H15.4648V206.929H17.3089V203.458Z" fill="white"/>
<path d="M33.0023 203.458H31.1582V206.929H33.0023V203.458Z" fill="white"/>
<path d="M43.4652 203.458H41.6211V206.929H43.4652V203.458Z" fill="white"/>
<path d="M6.85188 212.34H5.00781V215.812H6.85188V212.34Z" fill="white"/>
<path d="M12.0804 212.34H10.2363V215.812H12.0804V212.34Z" fill="white"/>
<path d="M22.5413 212.34H20.6973V215.812H22.5413V212.34Z" fill="white"/>
<path d="M27.7698 212.34H25.9258V215.812H27.7698V212.34Z" fill="white"/>
<path d="M38.2308 212.34H36.3867V215.812H38.2308V212.34Z" fill="white"/>
<path d="M6.85188 221.222H5.00781V224.693H6.85188V221.222Z" fill="white"/>
<path d="M17.3089 221.222H15.4648V224.693H17.3089V221.222Z" fill="white"/>
<path d="M27.7698 221.222H25.9258V224.693H27.7698V221.222Z" fill="white"/>
<path d="M758.615 119.038H756.189V122.509H758.615V119.038Z" fill="white"/>
<path d="M750.406 119.038H747.98V122.509H750.406V119.038Z" fill="white"/>
<path d="M742.197 119.038H739.771V122.509H742.197V119.038Z" fill="white"/>
<path d="M733.988 119.038H731.562V122.509H733.988V119.038Z" fill="white"/>
<path d="M766.83 125.989H764.404V129.46H766.83V125.989Z" fill="white"/>
<path d="M758.615 125.989H756.189V129.46H758.615V125.989Z" fill="white"/>
<path d="M742.197 125.989H739.771V129.46H742.197V125.989Z" fill="white"/>
<path d="M758.615 132.936H756.189V136.407H758.615V132.936Z" fill="white"/>
<path d="M733.988 132.936H731.562V136.407H733.988V132.936Z" fill="white"/>
<path d="M766.83 139.882H764.404V143.354H766.83V139.882Z" fill="white"/>
<path d="M758.615 139.882H756.189V143.354H758.615V139.882Z" fill="white"/>
<path d="M750.406 139.882H747.98V143.354H750.406V139.882Z" fill="white"/>
<path d="M733.988 139.882H731.562V143.354H733.988V139.882Z" fill="white"/>
<path d="M766.83 146.829H764.404V150.3H766.83V146.829Z" fill="white"/>
<path d="M742.197 146.829H739.771V150.3H742.197V146.829Z" fill="white"/>
<path d="M756.189 153.78V157.23V157.252H758.619V157.23V153.78V153.754H756.189V153.78Z" fill="white"/>
<path d="M750.406 153.754H747.98V157.226H750.406V153.754Z" fill="white"/>
<path d="M742.197 153.754H739.771V157.226H742.197V153.754Z" fill="white"/>
<path d="M731.562 153.78V157.23V157.252H733.988V157.23V153.78V153.754H731.562V153.78Z" fill="white"/>
<path d="M766.83 160.706H764.404V164.177H766.83V160.706Z" fill="white"/>
<path d="M758.615 160.706H756.189V164.177H758.615V160.706Z" fill="white"/>
<path d="M739.771 160.727V164.177V164.199H742.197V164.177V160.727V160.706H739.771V160.727Z" fill="white"/>
<path d="M758.615 167.652H756.189V171.124H758.615V167.652Z" fill="white"/>
<path d="M733.988 167.652H731.562V171.124H733.988V167.652Z" fill="white"/>
<path d="M766.83 174.599H764.404V178.07H766.83V174.599Z" fill="white"/>
<path d="M758.615 174.599H756.189V178.07H758.615V174.599Z" fill="white"/>
<path d="M750.406 174.599H747.98V178.07H750.406V174.599Z" fill="white"/>
<path d="M733.988 174.599H731.562V178.07H733.988V174.599Z" fill="white"/>
<path d="M766.83 181.55H764.404V185.022H766.83V181.55Z" fill="white"/>
<path d="M742.197 181.55H739.771V185.022H742.197V181.55Z" fill="white"/>
<path d="M758.615 188.497H756.189V191.968H758.615V188.497Z" fill="white"/>
<path d="M733.988 188.497H731.562V191.968H733.988V188.497Z" fill="white"/>
<path d="M742.197 195.444H739.771V198.915H742.197V195.444Z" fill="white"/>
<path d="M1067.45 214.202H1065.03V217.673H1067.45V214.202Z" fill="white"/>
<path d="M1092.08 214.202H1089.65V217.673H1092.08V214.202Z" fill="white"/>
<path d="M1065.43 139.783H1063.01V143.254H1065.43V139.783Z" fill="white"/>
<path d="M1065.43 132.645H1063.01V136.116H1065.43V132.645Z" fill="white"/>
<path d="M1072.25 132.645H1069.82V136.116H1072.25V132.645Z" fill="white"/>
<path d="M1079.07 132.645H1076.64V136.116H1079.07V132.645Z" fill="white"/>
<path d="M1072.25 125.507H1069.82V128.979H1072.25V125.507Z" fill="white"/>
<path d="M1079.07 125.507H1076.64V128.979H1079.07V125.507Z" fill="white"/>
<path d="M1085.88 125.507H1083.46V128.979H1085.88V125.507Z" fill="white"/>
<path d="M1065.43 118.369H1063.01V121.84H1065.43V118.369Z" fill="white"/>
<path d="M1085.88 118.369H1083.46V121.84H1085.88V118.369Z" fill="white"/>
<path d="M1065.43 111.231H1063.01V114.703H1065.43V111.231Z" fill="white"/>
<path d="M1072.25 111.231H1069.82V114.703H1072.25V111.231Z" fill="white"/>
<path d="M1079.07 111.231H1076.64V114.703H1079.07V111.231Z" fill="white"/>
<path d="M1065.43 104.094H1063.01V107.565H1065.43V104.094Z" fill="white"/>
<path d="M1072.25 104.094H1069.82V107.565H1072.25V104.094Z" fill="white"/>
<path d="M1085.88 104.094H1083.46V107.565H1085.88V104.094Z" fill="white"/>
<path d="M1066.01 94.5088H1063.58V97.98H1066.01V94.5088Z" fill="white"/>
<path d="M1066.01 85.1841H1063.58V88.6553H1066.01V85.1841Z" fill="white"/>
<path d="M1079.64 85.1841H1077.21V88.6553H1079.64V85.1841Z" fill="white"/>
<path d="M1072.82 75.8599H1070.4V79.3311H1072.82V75.8599Z" fill="white"/>
<path d="M1079.64 75.8599H1077.21V79.3311H1079.64V75.8599Z" fill="white"/>
<path d="M1066.01 66.5352H1063.58V70.0064H1066.01V66.5352Z" fill="white"/>
<path d="M1072.82 66.5352H1070.4V70.0064H1072.82V66.5352Z" fill="white"/>
<path d="M1066.01 57.2104H1063.58V60.6817H1066.01V57.2104Z" fill="white"/>
<path d="M1072.82 57.2104H1070.4V60.6817H1072.82V57.2104Z" fill="white"/>
<path d="M1079.64 57.2104H1077.21V60.6817H1079.64V57.2104Z" fill="white"/>
<path d="M1059.24 207.25H1056.81V210.722H1059.24V207.25Z" fill="white"/>
<path d="M1067.45 207.25H1065.03V210.722H1067.45V207.25Z" fill="white"/>
<path d="M1075.66 207.25H1073.23V210.722H1075.66V207.25Z" fill="white"/>
<path d="M1092.08 207.25H1089.65V210.722H1092.08V207.25Z" fill="white"/>
<path d="M1059.24 200.304H1056.81V203.775H1059.24V200.304Z" fill="white"/>
<path d="M1083.87 200.304H1081.45V203.775H1083.87V200.304Z" fill="white"/>
<path d="M1065.03 193.379V196.828V196.85H1067.45V196.828V193.379V193.357H1065.03V193.379Z" fill="white"/>
<path d="M1089.65 193.379V196.828V196.85H1092.08V196.828V193.379V193.357H1089.65V193.379Z" fill="white"/>
<path d="M1081.45 186.432V189.881V189.903H1083.87V189.881V186.432V186.41H1081.45V186.432Z" fill="white"/>
<path d="M1075.66 193.378H1073.23V196.85H1075.66V193.378Z" fill="white"/>
<path d="M1083.87 193.378H1081.45V196.85H1083.87V193.378Z" fill="white"/>
<path d="M1059.24 186.432H1056.81V189.903H1059.24V186.432Z" fill="white"/>
<path d="M1067.45 186.432H1065.03V189.903H1067.45V186.432Z" fill="white"/>
<path d="M1067.45 179.48H1065.03V182.952H1067.45V179.48Z" fill="white"/>
<path d="M1092.08 179.48H1089.65V182.952H1092.08V179.48Z" fill="white"/>
<path d="M1059.24 172.534H1056.81V176.005H1059.24V172.534Z" fill="white"/>
<path d="M1067.45 172.534H1065.03V176.005H1067.45V172.534Z" fill="white"/>
<path d="M1075.66 172.534H1073.23V176.005H1075.66V172.534Z" fill="white"/>
<path d="M1092.08 172.534H1089.65V176.005H1092.08V172.534Z" fill="white"/>
<path d="M1059.24 165.587H1056.81V169.058H1059.24V165.587Z" fill="white"/>
<path d="M1083.87 165.587H1081.45V169.058H1083.87V165.587Z" fill="white"/>
<path d="M1067.45 158.64H1065.03V162.111H1067.45V158.64Z" fill="white"/>
<path d="M1092.08 158.64H1089.65V162.111H1092.08V158.64Z" fill="white"/>
<path d="M1083.87 151.689H1081.45V155.16H1083.87V151.689Z" fill="white"/>
<path d="M783.434 167.652H780.553V173.115H783.434V167.652Z" fill="white"/>
<path d="M796.508 167.652H793.627V173.115H796.508V167.652Z" fill="white"/>
<path d="M803.043 167.652H800.162V173.115H803.043V167.652Z" fill="white"/>
<path d="M809.576 167.652H806.695V173.115H809.576V167.652Z" fill="white"/>
<path d="M816.112 167.652H813.23V173.115H816.112V167.652Z" fill="white"/>
<path d="M795.756 154.496H792.875V159.959H795.756V154.496Z" fill="white"/>
<path d="M810.936 154.496H808.055V159.959H810.936V154.496Z" fill="white"/>
<path d="M818.524 154.496H815.643V159.959H818.524V154.496Z" fill="white"/>
<path d="M795.756 144.425H792.875V149.888H795.756V144.425Z" fill="white"/>
<path d="M803.346 144.425H800.465V149.888H803.346V144.425Z" fill="white"/>
<path d="M795.756 134.354H792.875V139.817H795.756V134.354Z" fill="white"/>
<path d="M810.936 134.354H808.055V139.817H810.936V134.354Z" fill="white"/>
<path d="M804.686 120.079H801.805V125.542H804.686V120.079Z" fill="white"/>
<path d="M797.098 120.079H794.217V125.542H797.098V120.079Z" fill="white"/>
<path d="M812.276 109.917H809.395V115.38H812.276V109.917Z" fill="white"/>
<path d="M799.358 85.8701H796.477V91.333H799.358V85.8701Z" fill="white"/>
<path d="M804.631 76.606H801.75V82.0688H804.631V76.606Z" fill="white"/>
<path d="M799.358 67.3467H796.477V72.8095H799.358V67.3467Z" fill="white"/>
<path d="M804.631 67.3467H801.75V72.8095H804.631V67.3467Z" fill="white"/>
<path d="M797.098 109.917H794.217V115.38H797.098V109.917Z" fill="white"/>
<path d="M87.8382 175.28H85.9941V178.752H87.8382V175.28Z" fill="white"/>
<path d="M81.5999 175.28H79.7559V178.752H81.5999V175.28Z" fill="white"/>
<path d="M75.3597 175.28H73.5156V178.752H75.3597V175.28Z" fill="white"/>
<path d="M69.1253 175.28H67.2812V178.752H69.1253V175.28Z" fill="white"/>
<path d="M94.0745 182.231H92.2305V185.703H94.0745V182.231Z" fill="white"/>
<path d="M87.8382 182.231H85.9941V185.703H87.8382V182.231Z" fill="white"/>
<path d="M75.3597 182.231H73.5156V185.703H75.3597V182.231Z" fill="white"/>
<path d="M87.8382 189.178H85.9941V192.649H87.8382V189.178Z" fill="white"/>
<path d="M69.1253 189.178H67.2812V192.649H69.1253V189.178Z" fill="white"/>
<path d="M94.0745 196.125H92.2305V199.596H94.0745V196.125Z" fill="white"/>
<path d="M87.8382 196.125H85.9941V199.596H87.8382V196.125Z" fill="white"/>
<path d="M81.5999 196.125H79.7559V199.596H81.5999V196.125Z" fill="white"/>
<path d="M69.1253 196.125H67.2812V199.596H69.1253V196.125Z" fill="white"/>
<path d="M94.0745 203.072H92.2305V206.543H94.0745V203.072Z" fill="white"/>
<path d="M75.3597 203.072H73.5156V206.543H75.3597V203.072Z" fill="white"/>
<path d="M87.8382 210.023H85.9941V213.494H87.8382V210.023Z" fill="white"/>
<path d="M69.1253 210.023H67.2812V213.494H69.1253V210.023Z" fill="white"/>
<path d="M75.3597 216.97H73.5156V220.441H75.3597V216.97Z" fill="white"/>
<path d="M818.524 134.354H815.643V139.817H818.524V134.354Z" fill="white"/>
<path d="M822.651 167.652H819.77V173.115H822.651V167.652Z" fill="white"/>
<path d="M783.434 178.817H780.553V184.28H783.434V178.817Z" fill="white"/>
<path d="M796.508 178.817H793.627V184.28H796.508V178.817Z" fill="white"/>
<path d="M803.043 178.817H800.162V184.28H803.043V178.817Z" fill="white"/>
<path d="M816.112 178.817H813.23V184.28H816.112V178.817Z" fill="white"/>
<path d="M822.651 178.817H819.77V184.28H822.651V178.817Z" fill="white"/>
<path d="M783.434 189.981H780.553V195.444H783.434V189.981Z" fill="white"/>
<path d="M789.969 189.981H787.088V195.444H789.969V189.981Z" fill="white"/>
<path d="M809.576 189.981H806.695V195.444H809.576V189.981Z" fill="white"/>
<path d="M816.112 189.981H813.23V195.444H816.112V189.981Z" fill="white"/>
<path d="M822.651 189.981H819.77V195.444H822.651V189.981Z" fill="white"/>
<path d="M783.434 201.15H780.553V206.613H783.434V201.15Z" fill="white"/>
<path d="M789.969 201.15H787.088V206.613H789.969V201.15Z" fill="white"/>
<path d="M803.043 201.15H800.162V206.613H803.043V201.15Z" fill="white"/>
<path d="M903.781 150.726H901.789V154.479H903.781V150.726Z" fill="white"/>
<path d="M913.656 150.726H911.664V154.479H913.656V150.726Z" fill="white"/>
<path d="M918.589 150.726H916.598V154.479H918.589V150.726Z" fill="white"/>
<path d="M923.527 150.726H921.535V154.479H923.527V150.726Z" fill="white"/>
<path d="M933.402 150.726H931.41V154.479H933.402V150.726Z" fill="white"/>
<path d="M938.335 150.726H936.344V154.479H938.335V150.726Z" fill="white"/>
<path d="M903.781 156.935H901.789V160.688H903.781V156.935Z" fill="white"/>
<path d="M913.656 156.935H911.664V160.688H913.656V156.935Z" fill="white"/>
<path d="M918.589 156.935H916.598V160.688H918.589V156.935Z" fill="white"/>
<path d="M928.464 156.935H926.473V160.688H928.464V156.935Z" fill="white"/>
<path d="M908.718 163.148H906.727V166.902H908.718V163.148Z" fill="white"/>
<path d="M918.589 163.148H916.598V166.902H918.589V163.148Z" fill="white"/>
<path d="M923.527 163.148H921.535V166.902H923.527V163.148Z" fill="white"/>
<path d="M928.464 163.148H926.473V166.902H928.464V163.148Z" fill="white"/>
<path d="M933.402 163.148H931.41V166.902H933.402V163.148Z" fill="white"/>
<path d="M923.527 169.357H921.535V173.111H923.527V169.357Z" fill="white"/>
<path d="M933.402 169.357H931.41V173.111H933.402V169.357Z" fill="white"/>
<path d="M908.718 175.571H906.727V179.325H908.718V175.571Z" fill="white"/>
<path d="M913.656 175.571H911.664V179.325H913.656V175.571Z" fill="white"/>
<path d="M923.527 175.571H921.535V179.325H923.527V175.571Z" fill="white"/>
<path d="M928.464 175.571H926.473V179.325H928.464V175.571Z" fill="white"/>
<path d="M938.335 175.571H936.344V179.325H938.335V175.571Z" fill="white"/>
<path d="M903.781 181.78H901.789V185.534H903.781V181.78Z" fill="white"/>
<path d="M908.718 181.78H906.727V185.534H908.718V181.78Z" fill="white"/>
<path d="M913.656 181.78H911.664V185.534H913.656V181.78Z" fill="white"/>
<path d="M918.589 181.78H916.598V185.534H918.589V181.78Z" fill="white"/>
<path d="M928.464 181.78H926.473V185.534H928.464V181.78Z" fill="white"/>
<path d="M903.781 187.994H901.789V191.747H903.781V187.994Z" fill="white"/>
<path d="M913.656 187.994H911.664V191.747H913.656V187.994Z" fill="white"/>
<path d="M923.527 187.994H921.535V191.747H923.527V187.994Z" fill="white"/>
<path d="M933.402 187.994H931.41V191.747H933.402V187.994Z" fill="white"/>
<path d="M903.781 194.203H901.789V197.956H903.781V194.203Z" fill="white"/>
<path d="M908.718 194.203H906.727V197.956H908.718V194.203Z" fill="white"/>
<path d="M918.589 194.203H916.598V197.956H918.589V194.203Z" fill="white"/>
<path d="M928.464 194.203H926.473V197.956H928.464V194.203Z" fill="white"/>
<path d="M933.402 194.203H931.41V197.956H933.402V194.203Z" fill="white"/>
<path d="M908.718 200.417H906.727V204.17H908.718V200.417Z" fill="white"/>
<path d="M918.589 200.417H916.598V204.17H918.589V200.417Z" fill="white"/>
<path d="M923.527 200.417H921.535V204.17H923.527V200.417Z" fill="white"/>
<path d="M933.402 200.417H931.41V204.17H933.402V200.417Z" fill="white"/>
<path d="M903.781 206.625H901.789V210.379H903.781V206.625Z" fill="white"/>
<path d="M908.718 206.625H906.727V210.379H908.718V206.625Z" fill="white"/>
<path d="M923.527 206.625H921.535V210.379H923.527V206.625Z" fill="white"/>
<path d="M933.402 206.625H931.41V210.379H933.402V206.625Z" fill="white"/>
<path d="M903.781 212.839H901.789V216.593H903.781V212.839Z" fill="white"/>
<path d="M908.718 212.839H906.727V216.593H908.718V212.839Z" fill="white"/>
<path d="M918.589 212.839H916.598V216.593H918.589V212.839Z" fill="white"/>
<path d="M928.464 212.839H926.473V216.593H928.464V212.839Z" fill="white"/>
<path d="M932.201 102.124H930.209V105.877H932.201V102.124Z" fill="white"/>
<path d="M926.478 102.124H924.486V105.877H926.478V102.124Z" fill="white"/>
<path d="M920.755 102.124H918.764V105.877H920.755V102.124Z" fill="white"/>
<path d="M909.308 102.124H907.316V105.877H909.308V102.124Z" fill="white"/>
<path d="M932.201 109.136H930.209V112.889H932.201V109.136Z" fill="white"/>
<path d="M920.755 109.136H918.764V112.889H920.755V109.136Z" fill="white"/>
<path d="M915.031 109.136H913.039V112.889H915.031V109.136Z" fill="white"/>
<path d="M909.308 109.136H907.316V112.889H909.308V109.136Z" fill="white"/>
<path d="M932.201 116.144H930.209V119.897H932.201V116.144Z" fill="white"/>
<path d="M926.478 116.144H924.486V119.897H926.478V116.144Z" fill="white"/>
<path d="M915.031 116.144H913.039V119.897H915.031V116.144Z" fill="white"/>
<path d="M926.478 123.155H924.486V126.909H926.478V123.155Z" fill="white"/>
<path d="M909.308 123.155H907.316V126.909H909.308V123.155Z" fill="white"/>
<path d="M987.644 174.208H985.83V177.884H987.644V174.208Z" fill="white"/>
<path d="M971.698 174.208H969.885V177.884H971.698V174.208Z" fill="white"/>
<path d="M963.724 174.208H961.91V177.884H963.724V174.208Z" fill="white"/>
<path d="M955.749 174.208H953.936V177.884H955.749V174.208Z" fill="white"/>
<path d="M979.673 181.412H977.859V185.087H979.673V181.412Z" fill="white"/>
<path d="M971.698 181.412H969.885V185.087H971.698V181.412Z" fill="white"/>
<path d="M963.724 181.412H961.91V185.087H963.724V181.412Z" fill="white"/>
<path d="M987.644 188.614H985.83V192.289H987.644V188.614Z" fill="white"/>
<path d="M979.673 188.614H977.859V192.289H979.673V188.614Z" fill="white"/>
<path d="M971.698 188.614H969.885V192.289H971.698V188.614Z" fill="white"/>
<path d="M963.724 188.614H961.91V192.289H963.724V188.614Z" fill="white"/>
<path d="M955.749 188.614H953.936V192.289H955.749V188.614Z" fill="white"/>
<path d="M979.673 195.817H977.859V199.492H979.673V195.817Z" fill="white"/>
<path d="M971.698 195.817H969.885V199.492H971.698V195.817Z" fill="white"/>
<path d="M955.749 195.817H953.936V199.492H955.749V195.817Z" fill="white"/>
<path d="M963.724 203.02H961.91V206.695H963.724V203.02Z" fill="white"/>
<path d="M955.749 203.02H953.936V206.695H955.749V203.02Z" fill="white"/>
<path d="M971.698 210.223H969.885V213.898H971.698V210.223Z" fill="white"/>
<path d="M963.724 210.223H961.91V213.898H963.724V210.223Z" fill="white"/>
<path d="M955.749 210.223H953.936V213.898H955.749V210.223Z" fill="white"/>
<path d="M987.644 217.426H985.83V221.101H987.644V217.426Z" fill="white"/>
<path d="M979.673 217.426H977.859V221.101H979.673V217.426Z" fill="white"/>
<path d="M1153.12 214.258H1150.99V217.73H1153.12V214.258Z" fill="white"/>
<path d="M1147.93 214.258H1145.8V217.73H1147.93V214.258Z" fill="white"/>
<path d="M1142.73 214.258H1140.61V217.73H1142.73V214.258Z" fill="white"/>
<path d="M1132.34 214.258H1130.22V217.73H1132.34V214.258Z" fill="white"/>
<path d="M1127.15 214.258H1125.03V217.73H1127.15V214.258Z" fill="white"/>
<path d="M1121.96 214.258H1119.83V217.73H1121.96V214.258Z" fill="white"/>
<path d="M1116.76 214.258H1114.64V217.73H1116.76V214.258Z" fill="white"/>
<path d="M1153.12 204.79H1150.99V208.261H1153.12V204.79Z" fill="white"/>
<path d="M1147.93 204.79H1145.8V208.261H1147.93V204.79Z" fill="white"/>
<path d="M1142.73 204.79H1140.61V208.261H1142.73V204.79Z" fill="white"/>
<path d="M1137.54 204.79H1135.41V208.261H1137.54V204.79Z" fill="white"/>
<path d="M1132.34 204.79H1130.22V208.261H1132.34V204.79Z" fill="white"/>
<path d="M1121.96 204.79H1119.83V208.261H1121.96V204.79Z" fill="white"/>
<path d="M1116.76 204.79H1114.64V208.261H1116.76V204.79Z" fill="white"/>
<path d="M1153.12 195.327H1150.99V198.798H1153.12V195.327Z" fill="white"/>
<path d="M1147.93 195.327H1145.8V198.798H1147.93V195.327Z" fill="white"/>
<path d="M1137.54 195.327H1135.41V198.798H1137.54V195.327Z" fill="white"/>
<path d="M1132.34 195.327H1130.22V198.798H1132.34V195.327Z" fill="white"/>
<path d="M1121.96 195.327H1119.83V198.798H1121.96V195.327Z" fill="white"/>
<path d="M1116.76 195.327H1114.64V198.798H1116.76V195.327Z" fill="white"/>
<path d="M1153.12 185.859H1150.99V189.33H1153.12V185.859Z" fill="white"/>
<path d="M1147.93 185.859H1145.8V189.33H1147.93V185.859Z" fill="white"/>
<path d="M1137.54 185.859H1135.41V189.33H1137.54V185.859Z" fill="white"/>
<path d="M1121.96 185.859H1119.83V189.33H1121.96V185.859Z" fill="white"/>
<path d="M1111.57 185.859H1109.44V189.33H1111.57V185.859Z" fill="white"/>
<path d="M1153.12 176.391H1150.99V179.862H1153.12V176.391Z" fill="white"/>
<path d="M1142.73 176.391H1140.61V179.862H1142.73V176.391Z" fill="white"/>
<path d="M1132.34 176.391H1130.22V179.862H1132.34V176.391Z" fill="white"/>
<path d="M1121.96 176.391H1119.83V179.862H1121.96V176.391Z" fill="white"/>
<path d="M1111.57 176.391H1109.44V179.862H1111.57V176.391Z" fill="white"/>
<path d="M1147.93 166.928H1145.8V170.399H1147.93V166.928Z" fill="white"/>
<path d="M1137.54 166.928H1135.41V170.399H1137.54V166.928Z" fill="white"/>
<path d="M1132.34 166.928H1130.22V170.399H1132.34V166.928Z" fill="white"/>
<path d="M1121.96 166.928H1119.83V170.399H1121.96V166.928Z" fill="white"/>
<path d="M1116.76 166.928H1114.64V170.399H1116.76V166.928Z" fill="white"/>
<path d="M1111.57 166.928H1109.44V170.399H1111.57V166.928Z" fill="white"/>
<path d="M1153.12 157.46H1150.99V160.931H1153.12V157.46Z" fill="white"/>
<path d="M1147.93 157.46H1145.8V160.931H1147.93V157.46Z" fill="white"/>
<path d="M1137.54 157.46H1135.41V160.931H1137.54V157.46Z" fill="white"/>
<path d="M1127.15 157.46H1125.03V160.931H1127.15V157.46Z" fill="white"/>
<path d="M1116.76 157.46H1114.64V160.931H1116.76V157.46Z" fill="white"/>
<path d="M1111.57 157.46H1109.44V160.931H1111.57V157.46Z" fill="white"/>
<path d="M1153.12 147.992H1150.99V151.463H1153.12V147.992Z" fill="white"/>
<path d="M1147.93 147.992H1145.8V151.463H1147.93V147.992Z" fill="white"/>
<path d="M1132.34 147.992H1130.22V151.463H1132.34V147.992Z" fill="white"/>
<path d="M1127.15 147.992H1125.03V151.463H1127.15V147.992Z" fill="white"/>
<path d="M1116.76 147.992H1114.64V151.463H1116.76V147.992Z" fill="white"/>
<path d="M1111.57 147.992H1109.44V151.463H1111.57V147.992Z" fill="white"/>
<path d="M1153.12 138.524H1150.99V141.996H1153.12V138.524Z" fill="white"/>
<path d="M1147.93 138.524H1145.8V141.996H1147.93V138.524Z" fill="white"/>
<path d="M1142.73 138.524H1140.61V141.996H1142.73V138.524Z" fill="white"/>
<path d="M1121.96 138.524H1119.83V141.996H1121.96V138.524Z" fill="white"/>
<path d="M1116.76 138.524H1114.64V141.996H1116.76V138.524Z" fill="white"/>
<path d="M1111.57 138.524H1109.44V141.996H1111.57V138.524Z" fill="white"/>
<path d="M1153.12 129.061H1150.99V132.532H1153.12V129.061Z" fill="white"/>
<path d="M1147.93 129.061H1145.8V132.532H1147.93V129.061Z" fill="white"/>
<path d="M1142.73 129.061H1140.61V132.532H1142.73V129.061Z" fill="white"/>
<path d="M1187.62 109.513H1184.68V114.104H1187.62V109.513Z" fill="white"/>
<path d="M1202.22 109.513H1199.27V114.104H1202.22V109.513Z" fill="white"/>
<path d="M1209.51 109.513H1206.56V114.104H1209.51V109.513Z" fill="white"/>
<path d="M1216.81 109.513H1213.86V114.104H1216.81V109.513Z" fill="white"/>
<path d="M1231.4 109.513H1228.45V114.104H1231.4V109.513Z" fill="white"/>
<path d="M1238.69 109.513H1235.75V114.104H1238.69V109.513Z" fill="white"/>
<path d="M1187.62 117.111H1184.68V121.702H1187.62V117.111Z" fill="white"/>
<path d="M1202.22 117.111H1199.27V121.702H1202.22V117.111Z" fill="white"/>
<path d="M1209.51 117.111H1206.56V121.702H1209.51V117.111Z" fill="white"/>
<path d="M1224.1 117.111H1221.16V121.702H1224.1V117.111Z" fill="white"/>
<path d="M1194.92 124.708H1191.97V129.299H1194.92V124.708Z" fill="white"/>
<path d="M1209.51 124.708H1206.56V129.299H1209.51V124.708Z" fill="white"/>
<path d="M1216.81 124.708H1213.86V129.299H1216.81V124.708Z" fill="white"/>
<path d="M1224.1 124.708H1221.16V129.299H1224.1V124.708Z" fill="white"/>
<path d="M1231.4 124.708H1228.45V129.299H1231.4V124.708Z" fill="white"/>
<path d="M1216.81 132.307H1213.86V136.897H1216.81V132.307Z" fill="white"/>
<path d="M1231.4 132.307H1228.45V136.897H1231.4V132.307Z" fill="white"/>
<path d="M1194.92 139.904H1191.97V144.495H1194.92V139.904Z" fill="white"/>
<path d="M1202.22 139.904H1199.27V144.495H1202.22V139.904Z" fill="white"/>
<path d="M1216.81 139.904H1213.86V144.495H1216.81V139.904Z" fill="white"/>
<path d="M1224.1 139.904H1221.16V144.495H1224.1V139.904Z" fill="white"/>
<path d="M1238.69 139.904H1235.75V144.495H1238.69V139.904Z" fill="white"/>
<path d="M1187.62 147.498H1184.68V152.088H1187.62V147.498Z" fill="white"/>
<path d="M1194.92 147.498H1191.97V152.088H1194.92V147.498Z" fill="white"/>
<path d="M1202.22 147.498H1199.27V152.088H1202.22V147.498Z" fill="white"/>
<path d="M1209.51 147.498H1206.56V152.088H1209.51V147.498Z" fill="white"/>
<path d="M1224.1 147.498H1221.16V152.088H1224.1V147.498Z" fill="white"/>
<path d="M1187.62 155.095H1184.68V159.686H1187.62V155.095Z" fill="white"/>
<path d="M1202.22 155.095H1199.27V159.686H1202.22V155.095Z" fill="white"/>
<path d="M1216.81 155.095H1213.86V159.686H1216.81V155.095Z" fill="white"/>
<path d="M1231.4 155.095H1228.45V159.686H1231.4V155.095Z" fill="white"/>
<path d="M1187.62 162.693H1184.68V167.284H1187.62V162.693Z" fill="white"/>
<path d="M1194.92 162.693H1191.97V167.284H1194.92V162.693Z" fill="white"/>
<path d="M1209.51 162.693H1206.56V167.284H1209.51V162.693Z" fill="white"/>
<path d="M1224.1 162.693H1221.16V167.284H1224.1V162.693Z" fill="white"/>
<path d="M1231.4 162.693H1228.45V167.284H1231.4V162.693Z" fill="white"/>
<path d="M1194.92 170.291H1191.97V174.881H1194.92V170.291Z" fill="white"/>
<path d="M1209.51 170.291H1206.56V174.881H1209.51V170.291Z" fill="white"/>
<path d="M1216.81 170.291H1213.86V174.881H1216.81V170.291Z" fill="white"/>
<path d="M1231.4 170.291H1228.45V174.881H1231.4V170.291Z" fill="white"/>
<path d="M1187.62 177.888H1184.68V182.479H1187.62V177.888Z" fill="white"/>
<path d="M1194.92 177.888H1191.97V182.479H1194.92V177.888Z" fill="white"/>
<path d="M1216.81 177.888H1213.86V182.479H1216.81V177.888Z" fill="white"/>
<path d="M1231.4 177.888H1228.45V182.479H1231.4V177.888Z" fill="white"/>
<path d="M1187.62 185.486H1184.68V190.077H1187.62V185.486Z" fill="white"/>
<path d="M1194.92 185.486H1191.97V190.077H1194.92V185.486Z" fill="white"/>
<path d="M1209.51 185.486H1206.56V190.077H1209.51V185.486Z" fill="white"/>
<path d="M1224.1 185.486H1221.16V190.077H1224.1V185.486Z" fill="white"/>
<path d="M1448.76 105.604H1446.34V109.075H1448.76V105.604Z" fill="white"/>
<path d="M1440.55 105.604H1438.13V109.075H1440.55V105.604Z" fill="white"/>
<path d="M1432.34 105.604H1429.92V109.075H1432.34V105.604Z" fill="white"/>
<path d="M1424.13 105.604H1421.7V109.075H1424.13V105.604Z" fill="white"/>
<path d="M1456.97 112.551H1454.54V116.022H1456.97V112.551Z" fill="white"/>
<path d="M1448.76 112.551H1446.34V116.022H1448.76V112.551Z" fill="white"/>
<path d="M1432.34 112.551H1429.92V116.022H1432.34V112.551Z" fill="white"/>
<path d="M1448.76 119.498H1446.34V122.969H1448.76V119.498Z" fill="white"/>
<path d="M1424.13 119.498H1421.7V122.969H1424.13V119.498Z" fill="white"/>
<path d="M1456.97 126.449H1454.54V129.92H1456.97V126.449Z" fill="white"/>
<path d="M1448.76 126.449H1446.34V129.92H1448.76V126.449Z" fill="white"/>
<path d="M1440.55 126.449H1438.13V129.92H1440.55V126.449Z" fill="white"/>
<path d="M1424.13 126.449H1421.7V129.92H1424.13V126.449Z" fill="white"/>
<path d="M1456.97 133.396H1454.54V136.867H1456.97V133.396Z" fill="white"/>
<path d="M1432.34 133.396H1429.92V136.867H1432.34V133.396Z" fill="white"/>
<path d="M1446.34 140.342V143.792V143.814H1448.76V143.792V140.342V140.321H1446.34V140.342Z" fill="white"/>
<path d="M1440.55 140.321H1438.13V143.792H1440.55V140.321Z" fill="white"/>
<path d="M1432.34 140.321H1429.92V143.792H1432.34V140.321Z" fill="white"/>
<path d="M1421.7 140.342V143.792V143.814H1424.13V143.792V140.342V140.321H1421.7V140.342Z" fill="white"/>
<path d="M1456.97 147.268H1454.54V150.739H1456.97V147.268Z" fill="white"/>
<path d="M1448.76 147.268H1446.34V150.739H1448.76V147.268Z" fill="white"/>
<path d="M1429.92 147.289V150.743V150.765H1432.34V150.743V147.289V147.268H1429.92V147.289Z" fill="white"/>
<path d="M1448.76 154.219H1446.34V157.69H1448.76V154.219Z" fill="white"/>
<path d="M1424.13 154.219H1421.7V157.69H1424.13V154.219Z" fill="white"/>
<path d="M1456.97 161.166H1454.54V164.637H1456.97V161.166Z" fill="white"/>
<path d="M1448.76 161.166H1446.34V164.637H1448.76V161.166Z" fill="white"/>
<path d="M1440.55 161.166H1438.13V164.637H1440.55V161.166Z" fill="white"/>
<path d="M1424.13 161.166H1421.7V164.637H1424.13V161.166Z" fill="white"/>
<path d="M1456.97 168.112H1454.54V171.584H1456.97V168.112Z" fill="white"/>
<path d="M1432.34 168.112H1429.92V171.584H1432.34V168.112Z" fill="white"/>
<path d="M1448.76 175.059H1446.34V178.53H1448.76V175.059Z" fill="white"/>
<path d="M1424.13 175.059H1421.7V178.53H1424.13V175.059Z" fill="white"/>
<path d="M1432.34 182.01H1429.92V185.481H1432.34V182.01Z" fill="white"/>
<path d="M1391 136.268H1389.16V139.739H1391V136.268Z" fill="white"/>
<path d="M1381.31 136.268H1379.47V139.739H1381.31V136.268Z" fill="white"/>
<path d="M1376.47 136.268H1374.62V139.739H1376.47V136.268Z" fill="white"/>
<path d="M1400.69 130.137H1398.85V133.608H1400.69V130.137Z" fill="white"/>
<path d="M1395.84 130.137H1394V133.608H1395.84V130.137Z" fill="white"/>
<path d="M1386.15 130.137H1384.31V133.608H1386.15V130.137Z" fill="white"/>
<path d="M1376.47 130.137H1374.62V133.608H1376.47V130.137Z" fill="white"/>
<path d="M1400.69 124.006H1398.85V127.477H1400.69V124.006Z" fill="white"/>
<path d="M1395.84 124.006H1394V127.477H1395.84V124.006Z" fill="white"/>
<path d="M1386.15 124.006H1384.31V127.477H1386.15V124.006Z" fill="white"/>
<path d="M1381.31 124.006H1379.47V127.477H1381.31V124.006Z" fill="white"/>
<path d="M1391 114.195H1389.16V117.667H1391V114.195Z" fill="white"/>
<path d="M1381.31 114.195H1379.47V117.667H1381.31V114.195Z" fill="white"/>
<path d="M1395.84 108.194H1394V111.666H1395.84V108.194Z" fill="white"/>
<path d="M1391 108.194H1389.16V111.666H1391V108.194Z" fill="white"/>
<path d="M1386.15 108.194H1384.31V111.666H1386.15V108.194Z" fill="white"/>
<path d="M1381.31 108.194H1379.47V111.666H1381.31V108.194Z" fill="white"/>
<path d="M1399.55 146.898H1397.71V150.37H1399.55V146.898Z" fill="white"/>
<path d="M1394.06 146.898H1392.22V150.37H1394.06V146.898Z" fill="white"/>
<path d="M1388.57 146.898H1386.73V150.37H1388.57V146.898Z" fill="white"/>
<path d="M1377.6 146.898H1375.75V150.37H1377.6V146.898Z" fill="white"/>
<path d="M1372.11 146.898H1370.26V150.37H1372.11V146.898Z" fill="white"/>
<path d="M1399.55 154.744H1397.71V158.215H1399.55V154.744Z" fill="white"/>
<path d="M1394.06 154.744H1392.22V158.215H1394.06V154.744Z" fill="white"/>
<path d="M1383.09 154.744H1381.24V158.215H1383.09V154.744Z" fill="white"/>
<path d="M1372.11 154.744H1370.26V158.215H1372.11V154.744Z" fill="white"/>
<path d="M1405.04 162.589H1403.2V166.06H1405.04V162.589Z" fill="white"/>
<path d="M1394.06 162.589H1392.22V166.06H1394.06V162.589Z" fill="white"/>
<path d="M1388.57 162.589H1386.73V166.06H1388.57V162.589Z" fill="white"/>
<path d="M1383.09 162.589H1381.24V166.06H1383.09V162.589Z" fill="white"/>
<path d="M1377.6 162.589H1375.75V166.06H1377.6V162.589Z" fill="white"/>
<path d="M1372.11 162.589H1370.26V166.06H1372.11V162.589Z" fill="white"/>
<path d="M1405.04 170.438H1403.2V173.909H1405.04V170.438Z" fill="white"/>
<path d="M1399.55 170.438H1397.71V173.909H1399.55V170.438Z" fill="white"/>
<path d="M1388.57 170.438H1386.73V173.909H1388.57V170.438Z" fill="white"/>
<path d="M1377.6 170.438H1375.75V173.909H1377.6V170.438Z" fill="white"/>
<path d="M1372.11 170.438H1370.26V173.909H1372.11V170.438Z" fill="white"/>
<path d="M1405.04 178.283H1403.2V181.754H1405.04V178.283Z" fill="white"/>
<path d="M1399.55 178.283H1397.71V181.754H1399.55V178.283Z" fill="white"/>
<path d="M1388.57 178.283H1386.73V181.754H1388.57V178.283Z" fill="white"/>
<path d="M1383.09 178.283H1381.24V181.754H1383.09V178.283Z" fill="white"/>
<path d="M1372.11 178.283H1370.26V181.754H1372.11V178.283Z" fill="white"/>
<path d="M1399.55 186.128H1397.71V189.599H1399.55V186.128Z" fill="white"/>
<path d="M1388.57 186.128H1386.73V189.599H1388.57V186.128Z" fill="white"/>
<path d="M1377.6 186.128H1375.75V189.599H1377.6V186.128Z" fill="white"/>
<path d="M1372.11 186.128H1370.26V189.599H1372.11V186.128Z" fill="white"/>
<path d="M1399.55 193.973H1397.71V197.444H1399.55V193.973Z" fill="white"/>
<path d="M1383.09 193.973H1381.24V197.444H1383.09V193.973Z" fill="white"/>
<path d="M1372.11 193.973H1370.26V197.444H1372.11V193.973Z" fill="white"/>
<path d="M1298.82 129.577H1296.64V133.283H1298.82V129.577Z" fill="white"/>
<path d="M1316.69 129.577H1314.51V133.283H1316.69V129.577Z" fill="white"/>
<path d="M1325.62 129.577H1323.44V133.283H1325.62V129.577Z" fill="white"/>
<path d="M1334.56 129.577H1332.38V133.283H1334.56V129.577Z" fill="white"/>
<path d="M1343.49 129.577H1341.31V133.283H1343.49V129.577Z" fill="white"/>
<path d="M1352.43 129.577H1350.24V133.283H1352.43V129.577Z" fill="white"/>
<path d="M1298.82 137.812H1296.64V141.518H1298.82V137.812Z" fill="white"/>
<path d="M1307.76 137.812H1305.57V141.518H1307.76V137.812Z" fill="white"/>
<path d="M1316.69 137.812H1314.51V141.518H1316.69V137.812Z" fill="white"/>
<path d="M1334.56 137.812H1332.38V141.518H1334.56V137.812Z" fill="white"/>
<path d="M1343.49 137.812H1341.31V141.518H1343.49V137.812Z" fill="white"/>
<path d="M1298.82 146.044H1296.64V149.749H1298.82V146.044Z" fill="white"/>
<path d="M1316.69 146.044H1314.51V149.749H1316.69V146.044Z" fill="white"/>
<path d="M1325.62 146.044H1323.44V149.749H1325.62V146.044Z" fill="white"/>
<path d="M1334.56 146.044H1332.38V149.749H1334.56V146.044Z" fill="white"/>
<path d="M1352.43 146.044H1350.24V149.749H1352.43V146.044Z" fill="white"/>
<path d="M1298.82 154.275H1296.64V157.98H1298.82V154.275Z" fill="white"/>
<path d="M1307.76 154.275H1305.57V157.98H1307.76V154.275Z" fill="white"/>
<path d="M1316.69 154.275H1314.51V157.98H1316.69V154.275Z" fill="white"/>
<path d="M1334.56 154.275H1332.38V157.98H1334.56V154.275Z" fill="white"/>
<path d="M1316.69 162.506H1314.51V166.212H1316.69V162.506Z" fill="white"/>
<path d="M1325.62 162.506H1323.44V166.212H1325.62V162.506Z" fill="white"/>
<path d="M1343.49 162.506H1341.31V166.212H1343.49V162.506Z" fill="white"/>
<path d="M1352.43 162.506H1350.24V166.212H1352.43V162.506Z" fill="white"/>
<path d="M1298.82 170.737H1296.64V174.443H1298.82V170.737Z" fill="white"/>
<path d="M1325.62 170.737H1323.44V174.443H1325.62V170.737Z" fill="white"/>
<path d="M1343.49 170.737H1341.31V174.443H1343.49V170.737Z" fill="white"/>
<path d="M1298.82 178.969H1296.64V182.674H1298.82V178.969Z" fill="white"/>
<path d="M1307.76 178.969H1305.57V182.674H1307.76V178.969Z" fill="white"/>
<path d="M1316.69 178.969H1314.51V182.674H1316.69V178.969Z" fill="white"/>
<path d="M1265.73 138.112H1262.72V143.081H1265.73V138.112Z" fill="white"/>
<path d="M1258.7 138.112H1255.69V143.081H1258.7V138.112Z" fill="white"/>
<path d="M1274.26 118.365H1271.26V123.333H1274.26V118.365Z" fill="white"/>
<path d="M1267.23 109.834H1264.22V114.803H1267.23V109.834Z" fill="white"/>
<path d="M1267.23 101.308H1264.22V106.276H1267.23V101.308Z" fill="white"/>
<path d="M1274.26 92.7778H1271.26V97.746H1274.26V92.7778Z" fill="white"/>
<path d="M1274.26 84.2471H1271.26V89.2153H1274.26V84.2471Z" fill="white"/>
<path d="M1267.23 75.7207H1264.22V80.6889H1267.23V75.7207Z" fill="white"/>
<path d="M1274.26 67.1904H1271.26V72.1586H1274.26V67.1904Z" fill="white"/>
<path d="M1267.23 67.1904H1264.22V72.1586H1267.23V67.1904Z" fill="white"/>
<path d="M1279.79 147.896H1276.79V152.865H1279.79V147.896Z" fill="white"/>
<path d="M1272.76 147.896H1269.76V152.865H1272.76V147.896Z" fill="white"/>
<path d="M1258.7 147.896H1255.69V152.865H1258.7V147.896Z" fill="white"/>
<path d="M1279.79 157.677H1276.79V162.645H1279.79V157.677Z" fill="white"/>
<path d="M1265.73 157.677H1262.72V162.645H1265.73V157.677Z" fill="white"/>
<path d="M1258.7 157.677H1255.69V162.645H1258.7V157.677Z" fill="white"/>
<path d="M1279.79 167.461H1276.79V172.43H1279.79V167.461Z" fill="white"/>
<path d="M1272.76 167.461H1269.76V172.43H1272.76V167.461Z" fill="white"/>
<path d="M1258.7 167.461H1255.69V172.43H1258.7V167.461Z" fill="white"/>
<path d="M1265.73 177.246H1262.72V182.214H1265.73V177.246Z" fill="white"/>
<path d="M1279.79 187.031H1276.79V191.999H1279.79V187.031Z" fill="white"/>
<path d="M1272.76 187.031H1269.76V191.999H1272.76V187.031Z" fill="white"/>
<path d="M1258.7 187.031H1255.69V191.999H1258.7V187.031Z" fill="white"/>
<path d="M1265.73 196.815H1262.72V201.783H1265.73V196.815Z" fill="white"/>
<path d="M1258.7 196.815H1255.69V201.783H1258.7V196.815Z" fill="white"/>
<path d="M1544.65 154.01H1542.84V157.685H1544.65V154.01Z" fill="white"/>
<path d="M1536.68 154.01H1534.86V157.685H1536.68V154.01Z" fill="white"/>
<path d="M1528.71 154.01H1526.89V157.685H1528.71V154.01Z" fill="white"/>
<path d="M1544.65 161.213H1542.84V164.889H1544.65V161.213Z" fill="white"/>
<path d="M1536.68 161.213H1534.86V164.889H1536.68V161.213Z" fill="white"/>
<path d="M1544.65 168.416H1542.84V172.091H1544.65V168.416Z" fill="white"/>
<path d="M1536.68 168.416H1534.86V172.091H1536.68V168.416Z" fill="white"/>
<path d="M1528.71 168.416H1526.89V172.091H1528.71V168.416Z" fill="white"/>
<path d="M1544.65 175.619H1542.84V179.294H1544.65V175.619Z" fill="white"/>
<path d="M1528.71 175.619H1526.89V179.294H1528.71V175.619Z" fill="white"/>
<path d="M1536.68 182.822H1534.86V186.497H1536.68V182.822Z" fill="white"/>
<path d="M1528.71 182.822H1526.89V186.497H1528.71V182.822Z" fill="white"/>
<path d="M1544.65 190.024H1542.84V193.7H1544.65V190.024Z" fill="white"/>
<path d="M1536.68 190.024H1534.86V193.7H1536.68V190.024Z" fill="white"/>
<path d="M1528.71 190.024H1526.89V193.7H1528.71V190.024Z" fill="white"/>
<path d="M1508.86 166.746H1507.01V169.9H1508.86V166.746Z" fill="white"/>
<path d="M1493.65 166.746H1491.79V169.9H1493.65V166.746Z" fill="white"/>
<path d="M1486.04 166.746H1484.18V169.9H1486.04V166.746Z" fill="white"/>
<path d="M1478.43 166.746H1476.57V169.9H1478.43V166.746Z" fill="white"/>
<path d="M1508.86 173.757H1507.01V176.912H1508.86V173.757Z" fill="white"/>
<path d="M1501.25 173.757H1499.4V176.912H1501.25V173.757Z" fill="white"/>
<path d="M1493.65 173.757H1491.79V176.912H1493.65V173.757Z" fill="white"/>
<path d="M1478.43 173.757H1476.57V176.912H1478.43V173.757Z" fill="white"/>
<path d="M1508.86 180.765H1507.01V183.92H1508.86V180.765Z" fill="white"/>
<path d="M1493.65 180.765H1491.79V183.92H1493.65V180.765Z" fill="white"/>
<path d="M1486.04 180.765H1484.18V183.92H1486.04V180.765Z" fill="white"/>
<path d="M1478.43 180.765H1476.57V183.92H1478.43V180.765Z" fill="white"/>
<path d="M1508.86 187.777H1507.01V190.931H1508.86V187.777Z" fill="white"/>
<path d="M1501.25 187.777H1499.4V190.931H1501.25V187.777Z" fill="white"/>
<path d="M1493.65 187.777H1491.79V190.931H1493.65V187.777Z" fill="white"/>
<path d="M1478.43 187.777H1476.57V190.931H1478.43V187.777Z" fill="white"/>
<path d="M1493.65 194.784H1491.79V197.939H1493.65V194.784Z" fill="white"/>
<path d="M1486.04 194.784H1484.18V197.939H1486.04V194.784Z" fill="white"/>
<path d="M1508.86 201.796H1507.01V204.951H1508.86V201.796Z" fill="white"/>
<path d="M1486.04 201.796H1484.18V204.951H1486.04V201.796Z" fill="white"/>
<path d="M1508.86 208.804H1507.01V211.958H1508.86V208.804Z" fill="white"/>
<path d="M1501.25 208.804H1499.4V211.958H1501.25V208.804Z" fill="white"/>
<path d="M1493.65 208.804H1491.79V211.958H1493.65V208.804Z" fill="white"/>
<path d="M1677.95 152.119H1675.54V155.885H1677.95V152.119Z" fill="white"/>
<path d="M1689.93 152.119H1687.51V155.885H1689.93V152.119Z" fill="white"/>
<path d="M1695.91 152.119H1693.5V155.885H1695.91V152.119Z" fill="white"/>
<path d="M1686.93 139.626H1684.52V143.393H1686.93V139.626Z" fill="white"/>
<path d="M1676.74 132.619H1674.33V136.385H1676.74V132.619Z" fill="white"/>
<path d="M1686.93 125.607H1684.52V129.373H1686.93V125.607Z" fill="white"/>
<path d="M1676.74 125.607H1674.33V129.373H1676.74V125.607Z" fill="white"/>
<path d="M1681.84 117.636H1679.42V121.403H1681.84V117.636Z" fill="white"/>
<path d="M1692.03 110.776H1689.61V114.542H1692.03V110.776Z" fill="white"/>
<path d="M1681.84 110.776H1679.42V114.542H1681.84V110.776Z" fill="white"/>
<path d="M1683.94 158.354H1681.52V162.12H1683.94V158.354Z" fill="white"/>
<path d="M1677.95 164.589H1675.54V168.355H1677.95V164.589Z" fill="white"/>
<path d="M1683.94 164.589H1681.52V168.355H1683.94V164.589Z" fill="white"/>
<path d="M1689.93 164.589H1687.51V168.355H1689.93V164.589Z" fill="white"/>
<path d="M1677.95 170.82H1675.54V174.586H1677.95V170.82Z" fill="white"/>
<path d="M1689.93 170.82H1687.51V174.586H1689.93V170.82Z" fill="white"/>
<path d="M1677.95 177.055H1675.54V180.821H1677.95V177.055Z" fill="white"/>
<path d="M1683.94 177.055H1681.52V180.821H1683.94V177.055Z" fill="white"/>
<path d="M1695.91 177.055H1693.5V180.821H1695.91V177.055Z" fill="white"/>
<path d="M1683.94 183.29H1681.52V187.056H1683.94V183.29Z" fill="white"/>
<path d="M1677.95 189.521H1675.54V193.287H1677.95V189.521Z" fill="white"/>
<path d="M1689.93 189.521H1687.51V193.287H1689.93V189.521Z" fill="white"/>
<path d="M1683.94 195.756H1681.52V199.523H1683.94V195.756Z" fill="white"/>
<path d="M1689.93 195.756H1687.51V199.523H1689.93V195.756Z" fill="white"/>
<path d="M1677.95 201.992H1675.54V205.758H1677.95V201.992Z" fill="white"/>
<path d="M1689.93 201.992H1687.51V205.758H1689.93V201.992Z" fill="white"/>
<path d="M1677.95 208.223H1675.54V211.989H1677.95V208.223Z" fill="white"/>
<path d="M1689.93 208.223H1687.51V211.989H1689.93V208.223Z" fill="white"/>
<path d="M1683.94 214.458H1681.52V218.224H1683.94V214.458Z" fill="white"/>
<path d="M1566.86 168.577H1565.02V172.048H1566.86V168.577Z" fill="white"/>
<path d="M1574.97 168.577H1573.12V172.048H1574.97V168.577Z" fill="white"/>
<path d="M1583.07 168.577H1581.23V172.048H1583.07V168.577Z" fill="white"/>
<path d="M1591.17 168.577H1589.33V172.048H1591.17V168.577Z" fill="white"/>
<path d="M1599.28 168.577H1597.43V172.048H1599.28V168.577Z" fill="white"/>
<path d="M1566.86 178.687H1565.02V182.158H1566.86V178.687Z" fill="white"/>
<path d="M1574.97 178.687H1573.12V182.158H1574.97V178.687Z" fill="white"/>
<path d="M1583.07 178.687H1581.23V182.158H1583.07V178.687Z" fill="white"/>
<path d="M1599.28 178.687H1597.43V182.158H1599.28V178.687Z" fill="white"/>
<path d="M1566.86 188.796H1565.02V192.268H1566.86V188.796Z" fill="white"/>
<path d="M1583.07 188.796H1581.23V192.268H1583.07V188.796Z" fill="white"/>
<path d="M1574.97 198.907H1573.12V202.378H1574.97V198.907Z" fill="white"/>
<path d="M1583.07 198.907H1581.23V202.378H1583.07V198.907Z" fill="white"/>
<path d="M1591.17 198.907H1589.33V202.378H1591.17V198.907Z" fill="white"/>
<path d="M1599.28 198.907H1597.43V202.378H1599.28V198.907Z" fill="white"/>
<path d="M1566.86 209.012H1565.02V212.483H1566.86V209.012Z" fill="white"/>
<path d="M1574.97 209.012H1573.12V212.483H1574.97V209.012Z" fill="white"/>
<path d="M1631.4 134.502H1629.83V136.806H1631.4V134.502Z" fill="white"/>
<path d="M1622.03 134.502H1620.45V136.806H1622.03V134.502Z" fill="white"/>
<path d="M1631.4 139.709H1629.83V142.013H1631.4V139.709Z" fill="white"/>
<path d="M1626.71 139.709H1625.14V142.013H1626.71V139.709Z" fill="white"/>
<path d="M1622.03 139.709H1620.45V142.013H1622.03V139.709Z" fill="white"/>
<path d="M1626.71 144.92H1625.14V147.224H1626.71V144.92Z" fill="white"/>
<path d="M1622.03 144.92H1620.45V147.224H1622.03V144.92Z" fill="white"/>
<path d="M1631.4 150.127H1629.83V152.431H1631.4V150.127Z" fill="white"/>
<path d="M1622.03 150.127H1620.45V152.431H1622.03V150.127Z" fill="white"/>
<path d="M1626.71 155.334H1625.14V157.638H1626.71V155.334Z" fill="white"/>
<path d="M1622.03 155.334H1620.45V157.638H1622.03V155.334Z" fill="white"/>
<path d="M1631.4 160.541H1629.83V162.845H1631.4V160.541Z" fill="white"/>
<path d="M1622.03 160.541H1620.45V162.845H1622.03V160.541Z" fill="white"/>
<path d="M1623.08 172.708H1621.5V175.012H1623.08V172.708Z" fill="white"/>
<path d="M1628.56 172.708H1626.98V175.012H1628.56V172.708Z" fill="white"/>
<path d="M1634.04 172.708H1632.46V175.012H1634.04V172.708Z" fill="white"/>
<path d="M1639.51 172.708H1637.94V175.012H1639.51V172.708Z" fill="white"/>
<path d="M1644.99 172.708H1643.42V175.012H1644.99V172.708Z" fill="white"/>
<path d="M1650.47 172.708H1648.89V175.012H1650.47V172.708Z" fill="white"/>
<path d="M1623.08 178.118H1621.5V180.422H1623.08V178.118Z" fill="white"/>
<path d="M1639.51 178.118H1637.94V180.422H1639.51V178.118Z" fill="white"/>
<path d="M1644.99 178.118H1643.42V180.422H1644.99V178.118Z" fill="white"/>
<path d="M1655.95 178.118H1654.37V180.422H1655.95V178.118Z" fill="white"/>
<path d="M1623.08 183.529H1621.5V185.833H1623.08V183.529Z" fill="white"/>
<path d="M1634.04 183.529H1632.46V185.833H1634.04V183.529Z" fill="white"/>
<path d="M1639.51 183.529H1637.94V185.833H1639.51V183.529Z" fill="white"/>
<path d="M1655.95 183.529H1654.37V185.833H1655.95V183.529Z" fill="white"/>
<path d="M1628.56 188.94H1626.98V191.244H1628.56V188.94Z" fill="white"/>
<path d="M1639.51 188.94H1637.94V191.244H1639.51V188.94Z" fill="white"/>
<path d="M1644.99 188.94H1643.42V191.244H1644.99V188.94Z" fill="white"/>
<path d="M1628.56 194.355H1626.98V196.659H1628.56V194.355Z" fill="white"/>
<path d="M1634.04 194.355H1632.46V196.659H1634.04V194.355Z" fill="white"/>
<path d="M1639.51 194.355H1637.94V196.659H1639.51V194.355Z" fill="white"/>
<path d="M1650.47 194.355H1648.89V196.659H1650.47V194.355Z" fill="white"/>
<path d="M1655.95 194.355H1654.37V196.659H1655.95V194.355Z" fill="white"/>
<path d="M1623.08 199.766H1621.5V202.07H1623.08V199.766Z" fill="white"/>
<path d="M1628.56 199.766H1626.98V202.07H1628.56V199.766Z" fill="white"/>
<path d="M1655.95 199.766H1654.37V202.07H1655.95V199.766Z" fill="white"/>
<path d="M1634.04 205.176H1632.46V207.48H1634.04V205.176Z" fill="white"/>
<path d="M1644.99 205.176H1643.42V207.48H1644.99V205.176Z" fill="white"/>
<path d="M1623.08 210.587H1621.5V212.891H1623.08V210.587Z" fill="white"/>
<path d="M1639.51 210.587H1637.94V212.891H1639.51V210.587Z" fill="white"/>
<path d="M1650.47 210.587H1648.89V212.891H1650.47V210.587Z" fill="white"/>
<path d="M1623.08 216.002H1621.5V218.306H1623.08V216.002Z" fill="white"/>
<path d="M1634.04 216.002H1632.46V218.306H1634.04V216.002Z" fill="white"/>
<path d="M1824.71 189.781H1823.13V192.458H1824.71V189.781Z" fill="white"/>
<path d="M1837.63 189.781H1836.05V192.458H1837.63V189.781Z" fill="white"/>
<path d="M1844.09 189.781H1842.51V192.458H1844.09V189.781Z" fill="white"/>
<path d="M1850.55 189.781H1848.97V192.458H1850.55V189.781Z" fill="white"/>
<path d="M1824.71 195.73H1823.13V198.408H1824.71V195.73Z" fill="white"/>
<path d="M1831.17 195.73H1829.59V198.408H1831.17V195.73Z" fill="white"/>
<path d="M1837.63 195.73H1836.05V198.408H1837.63V195.73Z" fill="white"/>
<path d="M1850.55 195.73H1848.97V198.408H1850.55V195.73Z" fill="white"/>
<path d="M1824.71 201.684H1823.13V204.361H1824.71V201.684Z" fill="white"/>
<path d="M1837.63 201.684H1836.05V204.361H1837.63V201.684Z" fill="white"/>
<path d="M1844.09 201.684H1842.51V204.361H1844.09V201.684Z" fill="white"/>
<path d="M1850.55 201.684H1848.97V204.361H1850.55V201.684Z" fill="white"/>
<path d="M1824.71 207.637H1823.13V210.314H1824.71V207.637Z" fill="white"/>
<path d="M1831.17 207.637H1829.59V210.314H1831.17V207.637Z" fill="white"/>
<path d="M1837.63 207.637H1836.05V210.314H1837.63V207.637Z" fill="white"/>
<path d="M1850.55 207.637H1848.97V210.314H1850.55V207.637Z" fill="white"/>
<path d="M1837.63 213.59H1836.05V216.267H1837.63V213.59Z" fill="white"/>
<path d="M1844.09 213.59H1842.51V216.267H1844.09V213.59Z" fill="white"/>
<path d="M1824.71 219.543H1823.13V222.22H1824.71V219.543Z" fill="white"/>
<path d="M1844.09 219.543H1842.51V222.22H1844.09V219.543Z" fill="white"/>
<path d="M1824.71 225.492H1823.13V228.169H1824.71V225.492Z" fill="white"/>
<path d="M1831.17 225.492H1829.59V228.169H1831.17V225.492Z" fill="white"/>
<path d="M1837.63 225.492H1836.05V228.169H1837.63V225.492Z" fill="white"/>
<path d="M1738.27 156.401H1735.63V160.263H1738.27V156.401Z" fill="white"/>
<path d="M1726.48 146.5H1723.84V150.361H1726.48V146.5Z" fill="white"/>
<path d="M1719.12 146.5H1716.48V150.361H1719.12V146.5Z" fill="white"/>
<path d="M1733.84 139.167H1731.2V143.028H1733.84V139.167Z" fill="white"/>
<path d="M1733.84 131.838H1731.2V135.7H1733.84V131.838Z" fill="white"/>
<path d="M1726.48 131.838H1723.84V135.7H1726.48V131.838Z" fill="white"/>
<path d="M1719.12 131.838H1716.48V135.7H1719.12V131.838Z" fill="white"/>
<path d="M1722.8 121.428H1720.16V125.29H1722.8V121.428Z" fill="white"/>
<path d="M1730.16 114.417H1727.52V118.278H1730.16V114.417Z" fill="white"/>
<path d="M1722.8 114.417H1720.16V118.278H1722.8V114.417Z" fill="white"/>
<path d="M1730.41 156.401H1727.77V160.263H1730.41V156.401Z" fill="white"/>
<path d="M1714.69 156.401H1712.05V160.263H1714.69V156.401Z" fill="white"/>
<path d="M1730.41 165.131H1727.77V168.993H1730.41V165.131Z" fill="white"/>
<path d="M1722.55 165.131H1719.91V168.993H1722.55V165.131Z" fill="white"/>
<path d="M1738.27 173.857H1735.63V177.719H1738.27V173.857Z" fill="white"/>
<path d="M1722.55 173.857H1719.91V177.719H1722.55V173.857Z" fill="white"/>
<path d="M1714.69 173.857H1712.05V177.719H1714.69V173.857Z" fill="white"/>
<path d="M1738.27 182.583H1735.63V186.445H1738.27V182.583Z" fill="white"/>
<path d="M1730.41 191.313H1727.77V195.175H1730.41V191.313Z" fill="white"/>
<path d="M1714.69 191.313H1712.05V195.175H1714.69V191.313Z" fill="white"/>
<path d="M1714.69 200.039H1712.05V203.901H1714.69V200.039Z" fill="white"/>
<path d="M1759.38 190.84H1757.49V193.596H1759.38V190.84Z" fill="white"/>
<path d="M1784.45 190.84H1782.57V193.596H1784.45V190.84Z" fill="white"/>
<path d="M1790.72 190.84H1788.84V193.596H1790.72V190.84Z" fill="white"/>
<path d="M1796.99 190.84H1795.1V193.596H1796.99V190.84Z" fill="white"/>
<path d="M1803.26 190.84H1801.37V193.596H1803.26V190.84Z" fill="white"/>
<path d="M1799.16 181.62H1797.28V184.375H1799.16V181.62Z" fill="white"/>
<path d="M1774.71 181.62H1772.83V184.375H1774.71V181.62Z" fill="white"/>
<path d="M1766.56 181.62H1764.67V184.375H1766.56V181.62Z" fill="white"/>
<path d="M1807.32 175.788H1805.43V178.543H1807.32V175.788Z" fill="white"/>
<path d="M1799.16 175.788H1797.28V178.543H1799.16V175.788Z" fill="white"/>
<path d="M1782.86 175.788H1780.98V178.543H1782.86V175.788Z" fill="white"/>
<path d="M1766.56 175.788H1764.67V178.543H1766.56V175.788Z" fill="white"/>
<path d="M1759.38 197.032H1757.49V199.788H1759.38V197.032Z" fill="white"/>
<path d="M1771.92 197.032H1770.03V199.788H1771.92V197.032Z" fill="white"/>
<path d="M1778.18 197.032H1776.3V199.788H1778.18V197.032Z" fill="white"/>
<path d="M1790.72 197.032H1788.84V199.788H1790.72V197.032Z" fill="white"/>
<path d="M1803.26 197.032H1801.37V199.788H1803.26V197.032Z" fill="white"/>
<path d="M1809.52 197.032H1807.64V199.788H1809.52V197.032Z" fill="white"/>
<path d="M1759.38 203.224H1757.49V205.979H1759.38V203.224Z" fill="white"/>
<path d="M1765.65 203.224H1763.76V205.979H1765.65V203.224Z" fill="white"/>
<path d="M1778.18 203.224H1776.3V205.979H1778.18V203.224Z" fill="white"/>
<path d="M1790.72 203.224H1788.84V205.979H1790.72V203.224Z" fill="white"/>
<path d="M1796.99 203.224H1795.1V205.979H1796.99V203.224Z" fill="white"/>
<path d="M1809.52 203.224H1807.64V205.979H1809.52V203.224Z" fill="white"/>
<path d="M1771.92 209.416H1770.03V212.171H1771.92V209.416Z" fill="white"/>
<path d="M1784.45 209.416H1782.57V212.171H1784.45V209.416Z" fill="white"/>
<path d="M1796.99 209.416H1795.1V212.171H1796.99V209.416Z" fill="white"/>
<path d="M1803.26 209.416H1801.37V212.171H1803.26V209.416Z" fill="white"/>
<path d="M1765.65 215.607H1763.76V218.363H1765.65V215.607Z" fill="white"/>
<path d="M1790.72 215.607H1788.84V218.363H1790.72V215.607Z" fill="white"/>
<path d="M1809.52 215.607H1807.64V218.363H1809.52V215.607Z" fill="white"/>
<path d="M1887.59 210.795H1885.71V213.551H1887.59V210.795Z" fill="white"/>
<path d="M1893.85 210.795H1891.97V213.551H1893.85V210.795Z" fill="white"/>
<path d="M1900.12 210.795H1898.24V213.551H1900.12V210.795Z" fill="white"/>
<path d="M1906.39 210.795H1904.51V213.551H1906.39V210.795Z" fill="white"/>
<path d="M1893.85 216.987H1891.97V219.743H1893.85V216.987Z" fill="white"/>
<path d="M1906.39 216.987H1904.51V219.743H1906.39V216.987Z" fill="white"/>
<path d="M1912.66 216.987H1910.78V219.743H1912.66V216.987Z" fill="white"/>
<path d="M1893.85 223.179H1891.97V225.935H1893.85V223.179Z" fill="white"/>
<path d="M1900.12 223.179H1898.24V225.935H1900.12V223.179Z" fill="white"/>
<path d="M1912.66 223.179H1910.78V225.935H1912.66V223.179Z" fill="white"/>
<path d="M1887.59 229.367H1885.71V232.122H1887.59V229.367Z" fill="white"/>
<path d="M1900.12 229.367H1898.24V232.122H1900.12V229.367Z" fill="white"/>
<path d="M1906.39 229.367H1904.51V232.122H1906.39V229.367Z" fill="white"/>
<path d="M1893.85 235.559H1891.97V238.314H1893.85V235.559Z" fill="white"/>
<path d="M1912.66 235.559H1910.78V238.314H1912.66V235.559Z" fill="white"/>
<path d="M1765.65 221.799H1763.76V224.555H1765.65V221.799Z" fill="white"/>
<path d="M1771.92 221.799H1770.03V224.555H1771.92V221.799Z" fill="white"/>
</g>
<defs>
<clipPath id="clip0_86_55">
<rect width="1920" height="258" fill="white"/>
</clipPath>
</defs>
</svg>
